<svg width="596" height="547" viewBox="0 0 596 547" fill="none" xmlns="http://www.w3.org/2000/svg">
<path d="M219.621 76.9341L193.752 81.4492L146.02 175.698L150.014 198.582L208.12 188.44L213.781 220.876L243.829 215.631L238.168 183.196L260.057 179.375L255.194 151.516L233.305 155.337L219.621 76.9341ZM197.058 125.061L203.258 160.581L177.986 164.992L197.058 125.061Z" fill="url(#paint0_linear)"/>
<path d="M368.462 263.565C414.527 253.912 409.285 209.193 403.443 181.316C398.016 155.417 385.334 111.637 338.676 121.414C292.215 131.149 297.894 175.983 303.404 202.278C309.245 230.155 322.396 273.217 368.462 263.565ZM362.496 235.095C345.098 238.741 338.739 219.228 334.058 196.887C329.169 173.558 327.284 153.727 344.682 150.081C362.081 146.436 368.315 165.355 373.204 188.685C377.885 211.025 379.894 231.449 362.496 235.095Z" fill="url(#paint1_linear)"/>
<path d="M557.883 81.1129L532.315 75.1221L451.448 143.104L446.148 165.721L503.577 179.178L496.065 211.235L525.763 218.194L533.274 186.136L554.908 191.206L561.36 163.671L539.726 158.602L557.883 81.1129ZM518.254 116.537L510.028 151.644L485.051 145.791L518.254 116.537Z" fill="url(#paint2_linear)"/>
<g style="mix-blend-mode:hard-light">
<ellipse cx="353.918" cy="194.508" rx="26.8831" ry="61.6071" transform="rotate(-15 353.918 194.508)" fill="url(#paint3_linear)"/>
</g>
<g style="mix-blend-mode:hard-light">
<ellipse cx="354.787" cy="197.754" rx="22.6684" ry="55.4117" transform="rotate(-12.1195 354.787 197.754)" fill="url(#paint4_linear)"/>
</g>
<g filter="url(#filter0_f)">
<path d="M340.164 177.801C339.759 167.92 342.539 153.19 356.902 173.317C352.655 168.627 343.363 162.959 340.164 177.801Z" fill="url(#paint5_linear)"/>
<path d="M356.835 223.282C361.009 230.489 369.362 239.905 369.388 219.919C368.753 225.916 365.353 234.985 356.835 223.282Z" fill="url(#paint6_linear)"/>
<path d="M353.341 176.768C357.026 184.938 364.181 203.832 363.331 214.049C362.268 226.821 371.514 194.375 353.341 176.768Z" fill="url(#paint7_linear)"/>
<path d="M358.303 220.391C362.476 227.598 367.077 228.03 366.672 218.149C365.828 223.37 362.959 225.517 358.303 220.391Z" fill="url(#paint8_linear)"/>
</g>
<g filter="url(#filter1_f)">
<line x1="345.352" y1="182.153" x2="354.352" y2="207.153" stroke="url(#paint9_linear)" stroke-width="5"/>
</g>
<path d="M154.929 342.972L165.958 351.572L200.933 339.962L241.882 301.202L252.691 253.731L222.884 237.813L207.139 231.424L202.265 231.106L202.843 232.849L194.13 231.225L186.4 242.825L187.295 249.627L181.773 251.46L175.27 262.653L174.201 265.589L159.162 288.005C155.436 299.352 147.492 322.209 145.528 322.861C143.565 323.513 146.125 327.395 147.651 329.255C144.832 332.256 149.095 335.659 151.579 336.985C159.39 327.681 157.067 337.1 154.929 342.972Z" fill="#FF9142"/>
<g filter="url(#filter2_f)">
<path d="M332.958 189.466L354.135 205.572L353.402 207.033L350.66 207.943C349.742 211.292 347.87 218.245 347.722 219.268C347.575 220.291 346.807 220.79 346.441 220.911L346.247 229.499L344.602 230.045L343.316 235.343L338.56 239.357C338.495 242.828 338.035 249.881 336.719 250.318C335.074 250.864 335.062 260 331.407 259.996C328.484 259.992 316.653 270.576 311.104 275.868L311.468 276.965C306.287 279.699 295.668 285.862 294.642 288.638C293.615 291.415 285.434 296.362 281.472 298.489L275.612 308.349C275.611 308.958 275.244 310.176 273.783 310.174C272.321 310.172 272.196 312.121 272.317 313.096C272.315 314.923 271.36 318.65 267.559 318.937C263.757 319.225 264.747 326.365 265.717 329.899L266.625 334.468L255.643 349.072L248.695 351.987L245.225 350.704L240.284 355.997C241.26 355.267 243.502 354.685 244.667 358.195C245.832 361.705 254.998 377.089 259.435 384.343C259.982 385.988 261.219 390.083 261.8 393.299C262.38 396.516 265.566 401.587 267.086 403.721C267.509 406.219 267.88 411.616 265.977 413.221C264.075 414.827 264.452 415.351 264.878 415.413L263.408 421.989L256.276 426.183C255.115 428.801 251.844 434.108 248.043 434.395C244.241 434.683 244.019 436.949 244.383 438.045L236.332 446.806L233.774 446.438L231.394 450.272C229.93 451.367 227.222 454.579 228.094 458.673C228.147 458.923 228.195 459.149 228.239 459.355L228.276 459.222C228.56 460.652 228.919 462.523 228.239 459.355L227.174 463.24C228.873 468.968 230.083 479.924 227.331 483.888C224.036 488.635 224.215 491.011 212.344 486.428C209.543 485.328 203.729 478.085 202.878 457.911C200.322 455.716 196.237 449.279 200.34 441.098L210.224 428.685L209.678 427.039L213.517 425.765L213.703 422.659L219.925 415.723C223.278 413.595 229.619 408.974 228.158 407.511C226.698 406.047 222.077 400.194 219.948 397.451C218.427 395.926 215.752 392.512 217.215 391.052L204.809 375.688C200.961 383.662 192.535 399.61 189.612 399.606C189.122 401.798 187.191 406.254 183.39 406.542C182.595 409.038 180.639 414.03 179.178 414.028C180.029 414.76 181.002 416.589 178.076 418.047C175.15 419.505 173.319 422.67 172.769 424.07L162.89 432.829C162.403 433.194 161.171 433.887 160.148 433.739C158.869 433.555 161.607 436.299 159.962 436.845C158.645 437.282 156.61 438.364 155.756 438.85C151.424 444.753 141.225 456.703 135.084 457.28C133.903 457.391 131.793 458.372 130.699 456.909L119.172 468.041L114.223 480.643L112.932 489.595L109.817 496.718C104.817 500.61 94.2374 504.811 91.9166 490.483C91.6746 489.143 91.1931 484.635 91.2023 477.326C94.0106 472.335 99.4446 462.17 98.7146 461.438C97.9845 460.706 96.9494 460.401 96.5231 460.339L99.2791 448.465C104.704 445.853 116.067 438.509 118.124 430.033L121.781 428.211L121.783 426.383C124.711 422.976 131.08 415.87 133.128 414.703C135.176 413.536 134.837 411.903 134.411 411.233L134.049 408.309L136.243 407.58L139.536 404.661L142.281 401.923L143.56 402.108L147.779 389.139L151.254 386.768L152.724 380.192L156.388 372.887L156.39 371.06L160.967 364.671L159.874 361.38C163.289 358.217 169.864 351.489 168.843 349.879C167.822 348.27 170.37 346.531 171.772 345.863L165.748 340.557L167.951 332.52L170.327 332.34L174.357 324.305L176.731 325.952L178.187 330.339L190.087 312.995L191.373 307.698L197.781 297.656L200.518 300.4L212.589 292.74L217.524 291.102C209.313 292.664 193.388 295.118 192.511 293.034C192.501 294.213 191.458 295.891 187.186 295.085C182.509 294.202 178.408 299.825 176.943 302.747C176.942 303.356 176.173 304.463 173.104 304.021C170.722 309.073 164.422 319.688 158.28 321.727C156.327 325.014 151.762 331.44 149.132 330.852C149.069 332.496 148.833 336.187 148.392 337.795C147.951 339.402 147.473 342.362 147.288 343.64L147.834 345.286C147.102 346.137 145.2 347.621 143.447 346.742C141.694 345.863 140.894 342.11 140.714 340.343L141.449 337.055L140.175 333.216L138.529 333.763C139.624 335.226 140.497 338.589 135.232 340.337C135.717 342.408 135.663 346.404 131.57 345.814C131.384 348.311 130.611 353.195 129.003 352.754C127.396 352.314 126.508 350.741 126.266 350.01C124.74 352.14 121.324 356.034 119.864 354.57C118.404 353.107 119.139 349.94 119.689 348.54L121.71 339.955L123.544 334.475C124.766 332.04 127.537 327.061 128.854 326.624C130.499 326.078 127.946 322.055 131.785 320.781C134.856 319.761 136.243 311.589 136.552 307.63C138.382 305.805 141.676 301.79 140.216 300.326L144.604 298.87C147.715 294.793 154.195 286.675 155.218 286.823C156.497 287.007 160.34 282.078 159.061 281.894C157.782 281.71 162.172 278.426 163.085 279.341C163.815 280.073 171.803 273.2 175.706 269.672L177.902 267.116L179.729 267.119L184.665 265.48L191.064 262.747L197.097 260.745L203.132 256.915L209.165 254.912L217.939 251.999L224.707 246.709L226.724 241.778L226.91 238.672L222.166 233.549C221.686 227.214 222.154 213.705 227.86 210.35L227.68 207.975C231.951 202.498 242.612 191.694 251.09 192.289C255.417 190.041 266.591 187.996 276.666 197.802C284.942 203.781 298.636 221.803 287.203 246.054C287.324 247.029 287.199 249.344 285.735 250.804C290.98 245.816 302.164 235.731 304.942 235.296C307.72 234.86 311.466 230.492 312.991 228.362L312.445 226.717L318.487 217.405C321.231 214.668 326.245 208.863 324.347 207.545C322.448 206.227 324.9 203.709 326.363 202.614L330.585 187.819L332.958 189.466Z" fill="#20FFAF"/>
</g>
<path d="M349.325 191.08L354.135 205.572L353.402 207.033L350.66 207.943C349.742 211.292 347.87 218.245 347.722 219.268C347.575 220.291 346.807 220.79 346.441 220.911L346.247 229.499L344.602 230.045L343.316 235.343L338.56 239.357C338.495 242.828 338.035 249.881 336.719 250.318C335.074 250.864 335.062 260 331.407 259.996C328.484 259.992 316.653 270.576 311.104 275.868L311.468 276.965C306.287 279.699 295.668 285.862 294.642 288.638C293.615 291.415 285.434 296.362 281.472 298.489L275.612 308.349C275.611 308.958 275.244 310.176 273.783 310.174C272.321 310.172 272.196 312.121 272.317 313.096C272.315 314.923 271.36 318.65 267.559 318.937C263.757 319.225 264.747 326.365 265.717 329.899L266.625 334.468L255.643 349.072L248.695 351.987L245.225 350.704L240.284 355.997C241.26 355.267 243.502 354.685 244.667 358.195C245.832 361.705 254.998 377.089 259.435 384.343C259.982 385.988 261.219 390.083 261.8 393.299C262.38 396.516 265.566 401.587 267.086 403.721C267.509 406.219 267.88 411.616 265.977 413.221C264.075 414.827 264.452 415.351 264.878 415.413L263.408 421.989L256.276 426.183C255.115 428.801 251.844 434.108 248.043 434.395C244.241 434.683 244.019 436.949 244.383 438.045L236.332 446.806L233.774 446.438L231.394 450.272C229.93 451.367 227.222 454.579 228.094 458.673C228.147 458.923 228.195 459.149 228.239 459.355L228.276 459.222C228.56 460.652 228.919 462.523 228.239 459.355L227.174 463.24C228.873 468.968 230.083 479.924 227.331 483.888C224.036 488.635 224.215 491.011 212.344 486.428C209.543 485.328 203.729 478.085 202.877 457.911C200.322 455.716 196.237 449.279 200.34 441.098L210.224 428.685L209.678 427.039L213.517 425.765L213.703 422.659L219.925 415.723C223.278 413.595 229.619 408.974 228.158 407.511C226.698 406.047 222.077 400.194 219.948 397.451C218.427 395.926 215.752 392.512 217.215 391.052L204.809 375.688C200.961 383.662 192.535 399.61 189.612 399.606C189.122 401.798 187.191 406.254 183.39 406.542C182.595 409.038 180.639 414.03 179.178 414.028C180.029 414.76 181.002 416.589 178.076 418.047C175.15 419.505 173.319 422.67 172.769 424.07L162.89 432.829C162.403 433.194 161.171 433.887 160.148 433.739C158.869 433.555 161.607 436.299 159.962 436.845C158.645 437.282 156.61 438.364 155.756 438.85C151.424 444.753 141.225 456.703 135.084 457.28C133.903 457.391 131.793 458.372 130.699 456.909L119.172 468.041L114.223 480.643L112.932 489.595L109.817 496.718C104.817 500.61 94.2374 504.811 91.9166 490.483C91.6746 489.143 91.1931 484.635 91.2023 477.326C94.0106 472.335 99.4446 462.17 98.7146 461.438C97.9845 460.706 96.9494 460.401 96.5231 460.339L99.2791 448.465C104.704 445.853 116.067 438.509 118.124 430.033L121.781 428.211L121.783 426.383C124.711 422.976 131.08 415.87 133.128 414.703C135.176 413.536 134.837 411.903 134.411 411.233L134.049 408.309L136.243 407.58L139.536 404.661L142.281 401.923L143.56 402.108L147.779 389.139L151.254 386.768L152.724 380.192L156.388 372.888L156.39 371.06L160.967 364.671L159.874 361.38C163.289 358.217 169.864 351.489 168.843 349.879C167.822 348.27 170.37 346.531 171.772 345.863L165.748 340.557L167.951 332.52L170.327 332.34L174.357 324.305L176.731 325.952L178.187 330.339L190.087 312.995L191.373 307.698L197.781 297.656L200.518 300.4L212.589 292.74L217.524 291.102C209.313 292.664 193.388 295.118 192.511 293.034C192.501 294.213 191.458 295.891 187.186 295.085C182.509 294.202 178.408 299.825 176.943 302.747C176.942 303.356 176.173 304.463 173.104 304.021C170.722 309.073 164.422 319.688 158.28 321.727C156.327 325.014 151.762 331.44 149.132 330.852C149.069 332.496 148.833 336.187 148.392 337.795C147.951 339.402 147.473 342.362 147.288 343.64L147.834 345.286C147.102 346.137 145.2 347.621 143.447 346.742C141.694 345.863 140.894 342.11 140.714 340.343L141.449 337.055L140.175 333.216L138.529 333.763C139.624 335.226 140.497 338.589 135.232 340.337C135.717 342.408 135.663 346.404 131.57 345.814C131.384 348.311 130.611 353.195 129.003 352.754C127.396 352.314 126.508 350.741 126.266 350.01C124.74 352.14 121.324 356.034 119.864 354.57C118.404 353.107 119.139 349.94 119.689 348.54L121.71 339.955L123.544 334.475C124.766 332.04 127.537 327.061 128.854 326.624C130.499 326.078 127.946 322.055 131.785 320.781C134.856 319.761 136.243 311.589 136.552 307.63C138.382 305.805 141.676 301.79 140.216 300.326L144.604 298.87C147.715 294.793 154.195 286.675 155.218 286.823C156.497 287.007 160.34 282.078 159.061 281.894C157.782 281.71 162.172 278.426 163.085 279.341C163.815 280.073 171.803 273.2 175.706 269.672L177.902 267.116L179.729 267.119L184.665 265.48L191.064 262.747L197.097 260.745L203.132 256.915L209.165 254.912L217.939 251.999L224.707 246.709L226.724 241.778L226.91 238.672L222.166 233.549C221.686 227.214 222.154 213.706 227.86 210.35L227.68 207.975C231.951 202.498 242.612 191.694 251.09 192.289C255.417 190.041 266.591 187.996 276.666 197.802C284.942 203.781 298.636 221.803 287.203 246.054C287.324 247.029 287.199 249.344 285.735 250.804C290.98 245.815 302.164 235.731 304.942 235.296C307.72 234.86 311.466 230.492 312.991 228.362L312.445 226.717L318.487 217.405C321.231 214.668 328.985 211.996 327.087 210.678C325.188 209.36 328.765 205.494 330.229 204.4L346.455 182.435L349.325 191.08Z" fill="#78FF96"/>
<path d="M349.586 191.866L354.135 205.572L353.402 207.033L350.66 207.943C349.742 211.292 347.87 218.245 347.722 219.268C347.575 220.291 346.807 220.79 346.441 220.911L346.247 229.499L344.602 230.045L343.316 235.343L338.56 239.357C338.495 242.828 338.035 249.881 336.719 250.318C335.074 250.864 335.062 260 331.407 259.996C328.484 259.992 316.653 270.576 311.104 275.868L311.468 276.965C306.287 279.699 295.668 285.862 294.642 288.638C293.615 291.415 285.434 296.362 281.472 298.489L275.612 308.349C275.611 308.958 275.244 310.176 273.783 310.174C272.321 310.172 272.196 312.121 272.317 313.096C272.315 314.923 271.36 318.65 267.559 318.937C263.757 319.225 264.747 326.365 265.717 329.899L266.625 334.468L255.643 349.072L248.695 351.987L245.225 350.704L240.284 355.997C241.26 355.267 243.502 354.685 244.667 358.195C245.832 361.705 254.998 377.089 259.435 384.343C259.982 385.988 261.219 390.083 261.8 393.299C262.38 396.516 265.566 401.587 267.086 403.721C267.509 406.219 267.88 411.616 265.977 413.221C264.075 414.827 264.452 415.351 264.878 415.413L263.408 421.989L256.276 426.183C255.115 428.801 251.844 434.108 248.043 434.395C244.241 434.683 244.019 436.949 244.383 438.045L236.332 446.806L233.774 446.438L231.394 450.272C229.93 451.367 227.222 454.579 228.094 458.673C228.147 458.923 228.195 459.149 228.239 459.355L228.276 459.222C228.56 460.652 228.919 462.523 228.239 459.355L227.174 463.24C228.873 468.968 230.083 479.924 227.331 483.888C224.036 488.635 224.215 491.011 212.344 486.428C209.543 485.328 203.729 478.085 202.878 457.911C200.322 455.716 196.237 449.279 200.34 441.098L210.224 428.685L209.678 427.039L213.517 425.765L213.703 422.659L219.925 415.723C223.278 413.595 229.619 408.974 228.158 407.511C226.698 406.047 222.077 400.194 219.948 397.451C218.427 395.926 215.752 392.512 217.215 391.052L204.809 375.688C200.961 383.662 192.535 399.61 189.612 399.606C189.122 401.798 187.191 406.254 183.39 406.542C182.595 409.038 180.639 414.03 179.178 414.028C180.029 414.76 181.002 416.589 178.076 418.047C175.151 419.505 173.319 422.67 172.769 424.07L162.89 432.829C162.403 433.194 161.171 433.887 160.148 433.739C158.869 433.555 161.607 436.299 159.962 436.845C158.645 437.282 156.61 438.364 155.756 438.85C151.424 444.753 141.225 456.703 135.084 457.28C133.903 457.391 131.793 458.372 130.699 456.909L119.172 468.041L114.223 480.643L112.932 489.595L109.817 496.718C104.817 500.61 94.2374 504.811 91.9166 490.483C91.6746 489.143 91.1931 484.635 91.2023 477.326C94.0106 472.335 99.4446 462.17 98.7146 461.438C97.9845 460.706 96.9494 460.401 96.5231 460.339L99.2791 448.465C104.704 445.853 116.067 438.509 118.124 430.033L121.781 428.211L121.783 426.383C124.711 422.976 131.08 415.87 133.128 414.703C135.176 413.536 134.837 411.903 134.411 411.233L134.049 408.309L136.243 407.58L139.536 404.661L142.281 401.923L143.56 402.108L147.779 389.139L151.254 386.768L152.724 380.192L156.388 372.888L156.39 371.06L160.967 364.671L159.874 361.38C163.289 358.217 169.864 351.489 168.843 349.879C167.822 348.27 170.37 346.531 171.772 345.863L165.748 340.557L167.951 332.52L170.327 332.34L174.357 324.305L176.731 325.952L178.187 330.339L190.087 312.995L191.373 307.698L197.781 297.656L200.518 300.4L212.589 292.74L217.525 291.102C209.313 292.664 193.389 295.117 192.511 293.034C192.501 294.213 191.458 295.891 187.186 295.085C182.509 294.202 178.408 299.825 176.943 302.747C176.942 303.356 176.173 304.463 173.104 304.021C170.722 309.073 164.422 319.688 158.28 321.727C156.327 325.014 151.762 331.44 149.132 330.852C149.069 332.496 148.833 336.187 148.392 337.795C147.951 339.402 147.473 342.362 147.288 343.64L147.834 345.286C147.102 346.137 145.2 347.621 143.447 346.742C141.694 345.863 140.894 342.11 140.714 340.343L141.449 337.055L140.175 333.216L138.529 333.763C139.624 335.226 140.497 338.589 135.232 340.337C135.717 342.408 135.663 346.404 131.57 345.814C131.384 348.311 130.611 353.195 129.003 352.754C127.396 352.314 126.509 350.741 126.266 350.01C124.74 352.14 121.324 356.034 119.864 354.57C118.404 353.107 119.139 349.94 119.689 348.54L121.71 339.955L123.544 334.475C124.766 332.04 127.537 327.061 128.854 326.624C130.499 326.078 127.946 322.055 131.785 320.781C134.856 319.761 136.243 311.589 136.552 307.63C138.382 305.805 141.676 301.79 140.216 300.326L144.604 298.87C147.715 294.793 154.195 286.675 155.218 286.823C156.497 287.007 160.34 282.078 159.061 281.894C157.782 281.71 162.172 278.426 163.085 279.341C163.815 280.073 171.803 273.2 175.706 269.672L177.902 267.116L179.729 267.119L184.665 265.48L191.064 262.747L197.097 260.745L203.132 256.915L209.165 254.912L217.939 251.999L224.707 246.709L226.724 241.778L226.91 238.672L222.166 233.549C221.686 227.214 222.154 213.705 227.86 210.35L227.68 207.975C231.951 202.498 242.612 191.694 251.09 192.289C255.417 190.041 266.591 187.996 276.666 197.802C284.942 203.781 298.636 221.803 287.203 246.054C287.324 247.029 287.199 249.344 285.735 250.804C290.98 245.815 302.164 235.731 304.942 235.296C307.72 234.86 311.466 230.492 312.991 228.362L312.445 226.717L318.487 217.405C321.231 214.668 328.985 211.996 327.087 210.678C325.188 209.36 328.766 205.494 330.229 204.4L346.455 182.435L349.586 191.866Z" fill="url(#paint10_linear)"/>
<path d="M234.102 231.614L233.672 240.051C258.509 261.923 277.799 255.676 285 248.819C298.255 228.843 291.454 207.204 273.116 194.788C243.096 186.887 234.822 216.912 234.102 231.614Z" fill="url(#paint11_linear)"/>
<path d="M238.228 229.848L237.891 237.851C261.125 258.791 280.209 251.12 286.847 244.668C294.488 232.217 293.58 209.046 276.454 197.127C248.509 189.406 238.787 215.903 238.228 229.848Z" fill="url(#paint12_linear)"/>
<defs>
<filter id="filter0_f" x="335.854" y="159.812" width="37.8657" height="75.8841" filterUnits="userSpaceOnUse" color-interpolation-filters="sRGB">
<feFlood flood-opacity="0" result="BackgroundImageFix"/>
<feBlend mode="normal" in="SourceGraphic" in2="BackgroundImageFix" result="shape"/>
<feGaussianBlur stdDeviation="0.5" result="effect1_foregroundBlur"/>
</filter>
<filter id="filter1_f" x="337" y="175.306" width="25.7044" height="38.6936" filterUnits="userSpaceOnUse" color-interpolation-filters="sRGB">
<feFlood flood-opacity="0" result="BackgroundImageFix"/>
<feBlend mode="normal" in="SourceGraphic" in2="BackgroundImageFix" result="shape"/>
<feGaussianBlur stdDeviation="3" result="effect1_foregroundBlur"/>
</filter>
<filter id="filter2_f" x="0" y="144" width="443.768" height="402.144" filterUnits="userSpaceOnUse" color-interpolation-filters="sRGB">
<feFlood flood-opacity="0" result="BackgroundImageFix"/>
<feBlend mode="normal" in="SourceGraphic" in2="BackgroundImageFix" result="shape"/>
<feGaussianBlur stdDeviation="9" result="effect1_foregroundBlur"/>
</filter>
<linearGradient id="paint0_linear" x1="116.168" y1="32.8594" x2="239.069" y2="13.9841" gradientUnits="userSpaceOnUse">
<stop stop-color="#0DEFE1"/>
<stop offset="1" stop-color="#78FF96"/>
</linearGradient>
<linearGradient id="paint1_linear" x1="269.285" y1="75.8951" x2="390.449" y2="53.0557" gradientUnits="userSpaceOnUse">
<stop stop-color="#0DEFE1"/>
<stop offset="1" stop-color="#78FF96"/>
</linearGradient>
<linearGradient id="paint2_linear" x1="480" y1="0" x2="600.459" y2="30.8315" gradientUnits="userSpaceOnUse">
<stop stop-color="#0DEFE1"/>
<stop offset="1" stop-color="#78FF96"/>
</linearGradient>
<linearGradient id="paint3_linear" x1="419.632" y1="232.073" x2="353.825" y2="255.858" gradientUnits="userSpaceOnUse">
<stop stop-color="#24ECA4"/>
<stop offset="1" stop-color="#C4C4C4" stop-opacity="0"/>
</linearGradient>
<linearGradient id="paint4_linear" x1="354.787" y1="142.342" x2="354.787" y2="253.166" gradientUnits="userSpaceOnUse">
<stop stop-color="#24ECA4"/>
<stop offset="1" stop-color="#C4C4C4" stop-opacity="0"/>
</linearGradient>
<linearGradient id="paint5_linear" x1="383.443" y1="188.681" x2="282.809" y2="223.71" gradientUnits="userSpaceOnUse">
<stop stop-color="white"/>
<stop offset="1" stop-color="#C4C4C4" stop-opacity="0"/>
</linearGradient>
<linearGradient id="paint6_linear" x1="383.443" y1="188.681" x2="282.809" y2="223.71" gradientUnits="userSpaceOnUse">
<stop stop-color="white"/>
<stop offset="1" stop-color="#C4C4C4" stop-opacity="0"/>
</linearGradient>
<linearGradient id="paint7_linear" x1="383.443" y1="188.681" x2="282.809" y2="223.71" gradientUnits="userSpaceOnUse">
<stop stop-color="white"/>
<stop offset="1" stop-color="#C4C4C4" stop-opacity="0"/>
</linearGradient>
<linearGradient id="paint8_linear" x1="383.443" y1="188.681" x2="282.809" y2="223.71" gradientUnits="userSpaceOnUse">
<stop stop-color="white"/>
<stop offset="1" stop-color="#C4C4C4" stop-opacity="0"/>
</linearGradient>
<linearGradient id="paint9_linear" x1="354" y1="192.5" x2="346.559" y2="195.839" gradientUnits="userSpaceOnUse">
<stop stop-color="#24ECA4"/>
<stop offset="1" stop-color="#04DCC9"/>
</linearGradient>
<linearGradient id="paint10_linear" x1="301.131" y1="214.643" x2="176.917" y2="480.545" gradientUnits="userSpaceOnUse">
<stop stop-color="#01DACC"/>
<stop offset="1" stop-color="#4E3490" stop-opacity="0"/>
</linearGradient>
<linearGradient id="paint11_linear" x1="245.413" y1="253.613" x2="277.194" y2="171.108" gradientUnits="userSpaceOnUse">
<stop stop-color="#EAF84A"/>
<stop offset="1" stop-color="white" stop-opacity="0"/>
</linearGradient>
<linearGradient id="paint12_linear" x1="284.22" y1="194.956" x2="289.46" y2="254.151" gradientUnits="userSpaceOnUse">
<stop stop-color="#824AF8"/>
<stop offset="0.322917" stop-color="#E9E4F5" stop-opacity="0.131769"/>
<stop offset="0.520833" stop-color="white" stop-opacity="0"/>
<stop offset="1" stop-color="#824AF8"/>
</linearGradient>
</defs>
</svg>
