<svg width="300" height="152" viewBox="0 0 300 152" fill="none" xmlns="http://www.w3.org/2000/svg">
<path d="M283.023 55.8493C269.916 63.9582 264.555 70.6477 256.705 84.4277C257.829 85.2645 260.705 85.5675 262.064 84.9911C274.117 79.878 279.077 73.208 289.007 65.6798L283.023 55.8493Z" fill="#C4CDCD"/>
<path d="M291.559 51.9117C290.973 51.2702 284.171 53.7094 282.878 56.1949C283.853 61.5598 285.609 63.1872 289.028 65.7598C289.028 65.7598 295.097 59.3906 294.779 58.2691C294.46 57.1476 293.139 56.9964 291.578 56.9562C292.015 54.95 292.145 52.5532 291.559 51.9117Z" fill="#776969"/>
<path d="M211.074 56.6664C225.024 63.2179 231.118 69.2479 240.497 82.0362C239.477 82.9965 236.654 83.6275 235.238 83.2108C222.679 79.5144 216.986 73.4576 206.257 67.1186L211.074 56.6664Z" fill="#C4CDCD"/>
<path d="M202.142 53.7344C202.651 53.0299 209.688 54.6724 211.257 56.9932C210.904 62.4345 209.347 64.2526 206.245 67.2006C206.245 67.2006 199.486 61.5698 199.673 60.4192C199.861 59.2686 201.157 58.9667 202.702 58.7476C202.038 56.8049 201.633 54.4389 202.142 53.7344Z" fill="#776969"/>
<path d="M264.394 112.309H250.21C250.527 123.3 250.514 129.924 250.21 142.488H262.645C265.262 127.312 268.172 116.274 264.394 112.309Z" fill="#C4CDCD"/>
<path d="M259.295 151.716C260.292 151.857 263.849 143.893 262.705 140.698C257.585 138.505 254.773 138.154 249.918 139.663C249.918 139.663 250.745 149.901 251.949 150.672C253.153 151.443 254.292 150.597 255.517 149.472C256.594 151.048 258.298 151.575 259.295 151.716Z" fill="#9AAEAD"/>
<path d="M229.285 112.31H243.469C243.152 123.3 243.165 129.925 243.469 142.488H231.034C228.417 127.313 225.507 116.275 229.285 112.31Z" fill="#C4CDCD"/>
<path d="M234.383 151.716C233.386 151.857 229.829 143.894 230.973 140.698C236.093 138.505 238.905 138.155 243.76 139.664C243.76 139.664 242.933 149.901 241.729 150.672C240.525 151.444 239.386 150.597 238.161 149.473C237.084 151.048 235.38 151.575 234.383 151.716Z" fill="#9AAEAD"/>
<path d="M233.541 70.3386H263.769C263.769 70.3386 274.503 96.9846 272.75 111.944C270.998 126.903 248.655 124.744 248.655 124.744C248.655 124.744 226.313 126.903 224.56 111.944C222.808 96.9846 233.541 70.3386 233.541 70.3386Z" fill="#C4CDCD"/>
<path d="M247.166 71.656L233.229 68.3957C226.124 81.2996 224.694 98.5344 220.162 107.053C214.019 118.599 243.171 132.505 247.166 123.311C251.162 114.117 250.764 92.9935 247.166 71.656Z" fill="#D4DFDF"/>
<path d="M226.338 99.4758C226.577 98.1139 228.005 97.1986 229.316 97.5666L234.677 99.0701L240.919 101.823C241.773 102.2 242.239 103.092 242.074 104.035L240.481 113.122C240.265 114.353 239.06 115.252 237.829 115.07C232.468 114.28 229.284 113.176 225.51 110.496C224.897 110.06 224.615 109.306 224.75 108.537L226.338 99.4758Z" fill="#C4CDCD"/>
<path d="M243.677 104.244C243.658 102.132 228.372 96.2175 227.069 97.0026C225.765 97.7877 226.501 106.895 230.987 107.907C235.473 108.919 243.695 106.355 243.677 104.244Z" fill="#DDF0EF"/>
<path d="M250.002 71.6558L263.234 68.3955C269.979 81.2994 271.336 98.5342 275.639 107.053C281.47 118.599 253.795 132.505 250.002 123.311C246.208 114.117 246.586 92.9933 250.002 71.6558Z" fill="#D4DFDF"/>
<path d="M269.779 99.5032C269.551 98.1313 268.118 97.2199 266.802 97.6089L262.008 99.0251C261.908 99.0546 261.811 99.0912 261.717 99.1348L255.974 101.803C255.135 102.193 254.677 103.079 254.832 104.012L256.346 113.115C256.552 114.349 257.75 115.245 258.981 115.051C263.995 114.264 266.998 113.157 270.548 110.504C271.141 110.061 271.412 109.319 271.287 108.567L269.779 99.5032Z" fill="#C4CDCD"/>
<path d="M253.314 104.243C253.331 102.132 267.843 96.2169 269.081 97.002C270.318 97.7871 269.62 106.895 265.361 107.907C261.102 108.919 253.296 106.354 253.314 104.243Z" fill="#DDF0EF"/>
<path d="M265.089 40.4378C265.086 40.4356 265.084 40.4333 265.081 40.4309L260.629 36.7802C260.629 36.7802 260.272 27.8978 260.629 25.2851C260.986 22.6724 261.699 18.7536 263.662 19.5375C265.625 20.3213 263.662 28.4199 265.803 27.8975C267.944 27.3751 269.55 15.8799 270.798 13.7898C272.047 11.6998 276.183 15.6699 274.545 19.5375C272.912 23.3942 264.106 39.5662 265.081 40.4309L265.089 40.4378Z" fill="#776969"/>
<path d="M232.217 40.4378C232.22 40.4356 232.223 40.4333 232.226 40.4309L236.781 36.7802C236.781 36.7802 237.146 27.8978 236.781 25.2851C236.416 22.6724 235.686 18.7536 233.678 19.5375C231.669 20.3213 233.678 28.4199 231.487 27.8975C229.296 27.3751 227.653 15.8799 226.375 13.7898C225.097 11.6998 220.865 15.6699 222.541 19.5375C224.213 23.3942 233.223 39.5662 232.226 40.4309L232.217 40.4378Z" fill="#776969"/>
<path d="M270.386 30.0752C265.345 29.5711 263.832 38.31 263.832 38.31L268.874 45.5364C268.874 45.5364 279.461 44.8642 280.638 38.31C281.814 31.7558 280.638 28.5627 278.789 28.0585C276.94 27.5543 275.428 30.5794 270.386 30.0752Z" fill="#C49E80"/>
<path d="M270.682 37.6323C267.74 37.4293 266.857 40.947 266.857 40.947L269.799 43.8559C269.799 43.8559 275.978 43.5854 276.665 40.947C277.352 38.3087 276.665 37.0234 275.586 36.8205C274.507 36.6175 273.625 37.8352 270.682 37.6323Z" fill="#E1C7B3"/>
<path d="M226.154 30.0755C231.196 29.5714 232.708 38.3103 232.708 38.3103L227.667 45.5368C227.667 45.5368 217.079 44.8645 215.903 38.3103C214.726 31.7561 215.903 28.563 217.751 28.0588C219.6 27.5546 221.113 30.5797 226.154 30.0755Z" fill="#C49E80"/>
<path d="M225.859 37.6322C228.801 37.4293 229.684 40.947 229.684 40.947L226.741 43.8559C226.741 43.8559 220.562 43.5853 219.876 40.947C219.189 38.3087 219.876 37.0233 220.955 36.8204C222.034 36.6174 222.916 37.8351 225.859 37.6322Z" fill="#E1C7B3"/>
<path d="M248.707 77.4106C262.258 77.4106 273.243 67.253 273.243 54.7229C273.243 42.1928 262.258 32.0352 248.707 32.0352C235.156 32.0352 224.171 42.1928 224.171 54.7229C224.171 67.253 235.156 77.4106 248.707 77.4106Z" fill="#C49E80"/>
<path d="M248.875 70.3522C255.279 70.3522 260.471 66.4396 260.471 61.6132C260.471 56.7868 255.279 52.8742 248.875 52.8742C242.471 52.8742 237.279 56.7868 237.279 61.6132C237.279 66.4396 242.471 70.3522 248.875 70.3522Z" fill="#E1C7B3"/>
<path d="M247.537 60.0022C246.667 59.5446 243.671 57.592 245.016 56.6482C245.615 56.2275 247.721 57.676 248.545 57.6494C249.327 57.624 251.056 56.5457 251.738 56.6482C253.877 58.3367 249.898 61.2451 247.537 60.0022Z" fill="#372831" stroke="#372831" stroke-width="0.886139" stroke-linecap="round"/>
<path d="M242.091 63.4276C243.991 65.9604 247.885 67.1873 248.655 63.4276M248.655 63.4276C249.476 67.0728 252.31 66.7363 255.368 63.4276M248.655 63.4276V60.1702" stroke="#372831" stroke-width="1.32921" stroke-linecap="round"/>
<path d="M237.615 54.8907C239.286 54.8907 240.64 52.7839 240.64 50.1851C240.64 47.5863 239.286 45.4795 237.615 45.4795C235.944 45.4795 234.59 47.5863 234.59 50.1851C234.59 52.7839 235.944 54.8907 237.615 54.8907Z" fill="#776969"/>
<path d="M237.636 51.7182C238.186 51.7182 238.557 50.9566 238.464 50.017C238.371 49.0775 237.85 48.3159 237.3 48.3159C236.75 48.3159 236.379 49.0775 236.472 50.017C236.565 50.9566 237.086 51.7182 237.636 51.7182Z" fill="white"/>
<path d="M258.791 54.8911C260.462 54.8911 261.816 52.7844 261.816 50.1855C261.816 47.5867 260.462 45.4799 258.791 45.4799C257.12 45.4799 255.766 47.5867 255.766 50.1855C255.766 52.7844 257.12 54.8911 258.791 54.8911Z" fill="#776969"/>
<path d="M258.106 51.5711C258.656 51.5711 259.027 50.8095 258.934 49.87C258.841 48.9304 258.32 48.1688 257.77 48.1688C257.22 48.1688 256.849 48.9304 256.942 49.87C257.035 50.8095 257.556 51.5711 258.106 51.5711Z" fill="white"/>
<path d="M248.464 81.2202V117.556" stroke="#C4CDCD" stroke-width="0.886139"/>
<path d="M248.657 77.334C268.724 77.334 284.992 60.0222 284.992 38.667C284.992 17.3118 268.724 0 248.657 0C228.59 0 212.322 17.3118 212.322 38.667C212.322 60.0222 228.59 77.334 248.657 77.334Z" fill="#DDF0EF" fill-opacity="0.25"/>
<path opacity="0.65" d="M277.089 43.5585C275.94 36.6039 272.311 25.9629 261.974 13.1241C261.871 12.997 261.796 12.8491 261.753 12.6899C261.711 12.5307 261.702 12.3638 261.727 12.2001C261.752 12.0364 261.811 11.8795 261.9 11.7398C261.988 11.6 262.105 11.4804 262.241 11.3889L265.304 9.34559C265.534 9.19151 265.81 9.12523 266.082 9.15867C266.354 9.1921 266.604 9.32297 266.788 9.5279C269.697 12.7766 281.016 26.5945 279.383 43.4376C279.361 43.7241 279.237 43.9936 279.033 44.195C278.829 44.3965 278.561 44.5159 278.278 44.5308C277.995 44.5457 277.718 44.4551 277.499 44.2759C277.28 44.0967 277.134 43.8414 277.089 43.5585Z" fill="#F8FFFD"/>
<path opacity="0.65" d="M278.425 46.3367C280.63 47.1345 279.505 50.1337 277.299 49.3397C275.092 48.5457 276.198 45.532 278.425 46.3367Z" fill="#F8FFFD"/>
<path d="M212.711 69.7556C216.246 67.2437 216.9 65.1141 216.791 60.6232M218.734 73.4474C222.369 70.9192 222.854 68.8852 222.815 64.8979M224.175 77.3336C226.693 74.8779 227.192 73.1262 227.478 69.7556M269.254 68.5898C269.16 73.3807 269.318 75.8557 272.752 77.1393M273.917 63.1492C273.852 68.9798 274.413 71.5216 278.192 72.6702M279.358 59.6517C279.718 64.9051 280.525 66.8012 282.856 68.5898" stroke="#DDF0EF" stroke-width="0.886139"/>
<path d="M80.3563 62.3923C91.1198 57.0704 90.4067 45.2277 97.9566 45.8013C105.507 46.3749 106.765 56.1818 105.7 60.8281C104.635 65.4743 94.6331 73.7945 88.7473 76.9026C75.8808 85.0029 61.9651 83.6458 60.3455 80.3703C57.8328 75.2884 68.7522 70.6951 80.3563 62.3923Z" fill="#9AAEAD"/>
<path d="M24.3243 139.958C21.6439 133.181 24.2252 125.138 25.6349 117.688C34.9142 114.968 39.6245 116.051 46.4694 126.173C46.4694 126.173 40.9859 146.065 37.7302 145.795C34.4745 145.524 26.4525 145.34 24.3243 139.958Z" fill="#9AAEAD"/>
<path d="M76.0999 139.302C78.7833 132.525 76.2056 124.482 74.7992 117.03C65.5212 114.306 60.8104 115.387 53.9609 125.506C53.9609 125.506 59.4355 145.401 62.6914 145.132C65.9472 144.863 73.9692 144.683 76.0999 139.302Z" fill="#9AAEAD"/>
<path d="M77.3907 94.3931C79.5078 118.863 69.8951 129.85 51.0729 129.85C34.2494 129.85 20.8618 125.355 24.755 94.3931C27.9912 68.6565 36.5379 58.9367 51.0729 58.9367C65.6078 58.9367 74.8992 65.5965 77.3907 94.3931Z" fill="#D8EAE9"/>
<path d="M83.0033 50.2808C83.0033 65.1742 78.8418 70.4227 51.2091 70.4227C22.0782 70.4227 19.4148 65.1742 19.4148 50.2808C19.4148 35.3874 33.6496 19.6517 51.2091 19.6517C68.7686 19.6517 83.0033 35.3874 83.0033 50.2808Z" fill="#C59E80"/>
<path d="M27.0294 95.3067C21.7648 106.098 29.5689 115.035 23.2434 119.196C16.9178 123.358 9.92641 116.366 7.92886 112.038C5.93132 107.71 8.76061 95.0111 11.5184 88.9533C16.7488 74.6773 28.591 67.2442 31.8751 68.8463C36.9702 71.3319 31.1368 81.6422 27.0294 95.3067Z" fill="#9AAEAD"/>
<path d="M51.2091 68.2586C59.5752 68.2586 66.3572 63.0416 66.3572 56.6062C66.3572 50.1708 59.5752 44.9538 51.2091 44.9538C42.8431 44.9538 36.061 50.1708 36.061 56.6062C36.061 63.0416 42.8431 68.2586 51.2091 68.2586Z" fill="#E1C7B3"/>
<path d="M38.0583 48.9493C39.7132 48.9493 41.0546 46.8625 41.0546 44.2884C41.0546 41.7142 39.7132 39.6274 38.0583 39.6274C36.4035 39.6274 35.062 41.7142 35.062 44.2884C35.062 46.8625 36.4035 48.9493 38.0583 48.9493Z" fill="#776969"/>
<path d="M39.5381 43.7223C40.0676 43.5934 40.2461 42.7736 39.9367 41.8911C39.6274 41.0086 38.9474 40.3977 38.4179 40.5266C37.8885 40.6555 37.71 41.4754 38.0193 42.3579C38.3287 43.2403 39.0087 43.8512 39.5381 43.7223Z" fill="white"/>
<path d="M64.3598 48.6161C66.0147 48.6161 67.3562 46.5293 67.3562 43.9551C67.3562 41.381 66.0147 39.2942 64.3598 39.2942C62.705 39.2942 61.3635 41.381 61.3635 43.9551C61.3635 46.5293 62.705 48.6161 64.3598 48.6161Z" fill="#776969"/>
<path d="M65.8397 43.3891C66.3691 43.2602 66.5476 42.4404 66.2383 41.5579C65.9289 40.6754 65.2489 40.0646 64.7194 40.1934C64.19 40.3223 64.0115 41.1422 64.3208 42.0247C64.6302 42.9071 65.3102 43.518 65.8397 43.3891Z" fill="white"/>
<path d="M49.4414 55.3251C48.3101 54.8949 44.411 53.0589 46.1611 52.1715C46.9414 51.7758 49.5716 51.3057 50.6439 51.2807C51.662 51.2568 53.9732 51.6378 54.9086 52.1715C57.6918 53.7591 52.5146 56.4939 49.4414 55.3251Z" fill="#776969" stroke="#776969" stroke-width="0.904959" stroke-linecap="round"/>
<path d="M42.5243 59.5055C44.9877 62.7904 50.0386 64.3815 51.0377 59.5055M51.0377 59.5055C52.1024 64.2331 55.7778 63.7967 59.7428 59.5055M51.0377 59.5055V55.2809" stroke="#776969" stroke-width="1.35744" stroke-linecap="round"/>
<path d="M77.3745 34.1476C87.7282 23.7065 71.0404 12.8497 64.9791 24.2078L77.3745 34.1476Z" fill="#C59E80"/>
<path d="M74.7653 32.1432C81.7191 25.1307 70.5111 17.8389 66.4401 25.4674L74.7653 32.1432Z" fill="#E1C7B3"/>
<path d="M25.5679 34.1477C15.2142 23.7066 31.902 12.8498 37.9633 24.208L25.5679 34.1477Z" fill="#C59E80"/>
<path d="M28.1773 32.1435C21.2235 25.1309 32.4315 17.8391 36.5025 25.4676L28.1773 32.1435Z" fill="#E1C7B3"/>
<path opacity="0.5" d="M52.5889 78.9137C73.5239 77.689 89.6677 60.6465 88.647 40.8481C87.6263 21.0498 69.8277 5.99283 48.8926 7.21749C27.9575 8.44215 11.8138 25.4847 12.8345 45.283C13.8552 65.0814 31.6538 80.1384 52.5889 78.9137Z" fill="#EEFFFE" fill-opacity="0.5"/>
<path opacity="0.65" d="M80.1029 26.422C76.9163 22.9445 71.0677 18.3103 60.9148 14.9041C60.8139 14.8707 60.7197 14.8154 60.6382 14.7418C60.5568 14.6681 60.4899 14.5779 60.4421 14.4769C60.3942 14.3759 60.3664 14.2664 60.3604 14.1555C60.3544 14.0447 60.3704 13.9349 60.4073 13.8335L61.238 11.5648C61.3001 11.394 61.4188 11.2557 61.5726 11.1747C61.7264 11.0937 61.9051 11.0753 62.0768 11.1229C64.7985 11.8771 75.8262 15.472 81.2501 25.5128C81.3454 25.6814 81.3811 25.8782 81.3503 26.0658C81.3195 26.2534 81.2244 26.4188 81.0831 26.5309C80.9417 26.6429 80.764 26.6936 80.5833 26.6736C80.4027 26.6535 80.2318 26.564 80.1029 26.422Z" fill="#F8FFFD"/>
<path opacity="0.65" d="M81.8316 27.4896C83.2746 27.1282 83.8072 29.2218 82.365 29.5859C80.9228 29.95 80.3748 27.8552 81.8316 27.4896Z" fill="#F8FFFD"/>
<path d="M51.1038 73.9154C54.0843 92.2482 52.9297 102.526 51.1038 120.858" stroke="#9AAEAD" stroke-width="0.904959"/>
<path d="M20.8077 76.5789C22.6342 79.6584 24.6299 80.648 29.2972 81.5728M13.4833 89.23C17.2202 93.9629 19.6318 94.7329 24.3034 93.7245M9.32178 106.542C15.1878 109.449 18.445 109.472 24.3034 106.542M81.7328 78.0771C85.5614 76.4125 80.734 66.7577 78.57 66.0918M91.5541 71.918C94.051 67.7564 88.0584 60.2655 86.3938 60.765M101.209 63.4284C103.373 57.7687 96.215 51.6096 93.0522 51.1102" stroke="#D8EAE9" stroke-width="0.904959"/>
<path d="M134.997 112.57C134.241 120.13 134.391 126.912 140.669 127.541C146.946 128.169 146.786 120.694 147.542 113.134C148.298 105.574 152.747 102.187 141.55 101.067C135.273 100.439 135.753 105.01 134.997 112.57Z" fill="#9AAEAD"/>
<path d="M171.802 112.706C173.119 120.189 173.474 126.963 167.261 128.057C161.048 129.151 160.651 121.685 159.334 114.202C158.017 106.719 153.328 103.673 164.411 101.722C170.624 100.629 170.485 105.223 171.802 112.706Z" fill="#9AAEAD"/>
<g filter="url(#filter0_d_805861_2)">
<path d="M123.649 60.4858C125.938 60.2416 127.875 62.5849 129.366 63.8447C130.28 65.2706 130.977 67.3184 131.125 69.0062C131.216 70.0465 131.028 71.1153 131.115 72.1515C131.195 73.1057 131.288 73.9989 131.146 74.9569C130.974 76.1117 131.133 77.2673 131.008 78.4227C130.873 79.6683 130.772 80.9774 130.819 82.2293C130.91 84.6613 130.56 87.0211 130.41 89.4434C130.262 91.8249 129.883 94.1972 129.616 96.5643C129.375 98.7035 129.368 101.322 127.848 102.993C126.462 104.517 123.428 103.546 121.957 102.769C119.529 101.485 117.602 99.5317 115.632 97.6628C109.362 91.7153 104.057 83.3065 105.55 74.3222C105.942 71.967 106.7 69.5098 108.564 67.8848C110.522 66.1778 112.332 64.3034 114.52 62.8783C116.304 61.7159 118.479 61.0373 120.588 60.8123L123.649 60.4858Z" fill="#543A3A"/>
<path d="M185.947 66.521C183.578 67.4614 181.983 68.4589 179.911 69.9219C178.278 71.3124 177.914 73.302 177.925 75.3533C177.938 77.8592 179.322 79.6316 181.788 80.0566C183.486 80.3492 185.934 79.6654 187.456 78.8532C189.568 77.7253 192.426 77.0029 193.962 75.069C194.667 74.1822 195.561 73.3612 195.682 72.1757C195.802 71.0058 195.738 70.0988 195.562 68.9389C195.23 66.7614 193.763 65.6993 191.412 65.5107C189.194 65.3329 187.949 65.7265 185.947 66.521Z" fill="#9AAEAD"/>
<path d="M132.137 70.7406C133.665 71.9552 135.188 72.2274 136.533 73.8557C138.007 79.2963 131.342 80.9728 127.949 80.7129C126.602 80.6097 125.271 79.5612 123.971 79.0194C122.487 78.4014 121.153 77.6636 119.726 76.8707C117.925 75.8692 115.621 73.6901 115.078 71.3677C114.549 69.1047 113.175 65.5981 115.251 64.0941C117.28 62.6249 119.949 62.6976 122.384 63.9157C124.825 65.1364 126.727 66.9141 129.01 68.4329C130.093 69.1529 131.103 69.9188 132.137 70.7406Z" fill="#9AAEAD"/>
<path d="M169.164 40.1892C161.507 35.5504 155.887 34.3311 146.747 39.2063C140.281 41.1076 136.237 49.5117 135.162 52.0502C134.252 54.198 133.029 56.1983 132.233 58.4182C131.13 61.4935 130.005 64.5037 129.12 67.6681C127.435 73.6889 125.84 79.7434 125.358 86.0539C125.005 90.6825 125.048 95.3387 125.333 99.9878C125.495 102.629 126.056 105.504 127.877 107.357C129.767 109.281 131.478 110.804 133.733 112.17C137.899 114.694 142.417 116.415 147.119 117.189C151.485 117.908 155.975 118.551 160.382 118.386C162.369 118.312 164.339 118.046 166.298 117.757C168.033 117.501 169.477 116.663 171.13 116.194C173.63 115.485 175.569 113.436 177.264 111.432C179.079 109.287 180.599 107.183 181.488 104.363C182.652 100.671 183.481 96.9722 183.333 93.0043C183.251 90.8144 183.35 88.5947 183.268 86.3831C183.182 84.0879 182.917 81.835 182.831 79.5324C182.641 74.4353 182.293 69.0161 181.075 64.0725C180.605 62.1681 180.456 59.9379 179.674 58.1535C179.328 57.3626 179.052 56.2506 178.846 55.3978C178.553 54.1884 177.959 53.0517 177.545 51.8856C176.648 49.3565 175.207 46.9923 173.733 44.8401C172.586 43.1645 170.862 41.2184 169.164 40.1892Z" fill="url(#paint0_linear_805861_2)"/>
<path d="M154.732 62.1306C155.423 61.6211 156.592 61.6803 157.446 61.7727C158.78 62.7188 157.107 64.1942 155.648 63.5156C155.111 63.2657 153.938 62.7168 154.732 62.1306Z" fill="#372831" stroke="#372831" stroke-width="1.00366" stroke-linecap="round"/>
<path d="M154.702 68.7383C154.66 68.0606 154.652 67.3792 154.627 66.7008C155.213 66.3157 155.972 65.8507 156.455 65.3785C157.014 64.8327 157.507 65.443 158.048 65.6774C158.683 65.9528 158.955 66.1545 158.98 66.8271C159.002 67.413 159.048 68.0521 159.067 68.5756C159.237 69.2985 158.506 69.4923 157.821 69.5179L155.942 69.5879C155.398 69.5079 154.738 69.3025 154.702 68.7383Z" fill="#E0D0C1"/>
<path d="M120.87 74.6811C122.497 71.3442 123.991 70.2362 127.06 68.7805M117.687 72.6526C118.499 69.0388 120.056 68.0065 123.291 66.5697" stroke="#D8EAE9" stroke-width="1.00366"/>
</g>
<path d="M150.14 56.8127C150.21 58.6946 149.028 60.2664 147.711 60.3155C146.394 60.3646 145.111 59.2259 145.041 57.344C144.971 55.4621 146.14 53.5495 147.457 53.5004C148.774 53.4513 150.07 54.9308 150.14 56.8127Z" fill="#372831"/>
<path d="M166.837 56.1901C166.907 58.072 165.725 59.6438 164.408 59.6929C163.091 59.742 161.808 58.6033 161.738 56.7214C161.668 54.8395 162.837 52.927 164.154 52.8779C165.471 52.8288 166.767 54.3082 166.837 56.1901Z" fill="#372831"/>
<path d="M146.792 57.0096C147.202 57.0346 147.546 56.4436 147.561 55.6894C147.576 54.9353 147.256 54.3036 146.847 54.2786C146.437 54.2535 146.093 54.8446 146.078 55.5987C146.063 56.3529 146.382 56.9845 146.792 57.0096Z" fill="white"/>
<path d="M163.83 56.3744C164.24 56.3995 164.584 55.8084 164.599 55.0543C164.614 54.3002 164.294 53.6685 163.885 53.6434C163.475 53.6184 163.131 54.2094 163.116 54.9636C163.101 55.7177 163.421 56.3494 163.83 56.3744Z" fill="white"/>
<path d="M142.991 44.6085C139.926 45.3528 137.71 42.2955 136.389 39.9277C135.523 37.6206 137.253 35.8661 139.24 35.2316C141.589 34.4816 145.492 37.1369 146.045 39.5676C146.241 40.4293 145.411 40.5521 144.856 41.329C144.25 42.1768 144.053 44.3507 142.991 44.6085Z" fill="#AE8873"/>
<path d="M174.484 36.2335C172.038 36.5979 169.007 39.5497 169.041 42.0887C169.134 44.5732 170.945 46.5329 173.616 45.777C174.97 45.3937 176.238 44.6641 177.207 43.6202C177.951 42.818 179.016 41.7371 179.074 40.5672C179.204 37.932 177.052 35.8508 174.484 36.2335Z" fill="#AE8873"/>
<path d="M149.893 66.6876C152.238 68.0344 156.37 66.8923 156.726 64.0572C157.467 66.5318 160.383 68.0061 163.587 65.6955" stroke="#372831" stroke-width="1.50548" stroke-linecap="round"/>
<path fill-rule="evenodd" clip-rule="evenodd" d="M181.88 68.1372C175.66 71.7334 168.077 73.9814 159.834 74.2887C148.097 74.7262 137.402 71.1412 129.899 65.0878C129.624 65.9395 129.363 66.7982 129.119 67.6686C127.435 73.6894 125.84 79.744 125.358 86.0544C125.004 90.683 125.048 95.3392 125.333 99.9883C125.495 102.63 126.056 105.504 127.876 107.358C129.767 109.282 131.477 110.804 133.732 112.171C137.898 114.695 142.417 116.416 147.118 117.189C151.485 117.908 155.974 118.551 160.382 118.387C162.369 118.313 164.338 118.046 166.297 117.757C167.35 117.602 168.296 117.232 169.246 116.861C169.862 116.621 170.479 116.379 171.129 116.195C173.629 115.486 175.569 113.437 177.264 111.432C179.078 109.287 180.598 107.183 181.487 104.364C182.652 100.671 183.481 96.9727 183.333 93.0048C183.292 91.9126 183.296 90.813 183.3 89.7106C183.304 88.6027 183.309 87.4921 183.267 86.3836C183.225 85.2369 183.137 84.1008 183.049 82.9637C182.961 81.8249 182.873 80.6851 182.83 79.5329C182.691 75.8026 182.468 71.8998 181.88 68.1372Z" fill="#D8EAE9"/>
<path opacity="0.5" d="M156.958 79.5141C176.248 78.795 191.367 64.3292 190.729 47.2037C190.091 30.0783 173.936 16.7783 154.646 17.4974C135.356 18.2165 120.237 32.6824 120.875 49.8079C121.513 66.9333 137.668 80.2333 156.958 79.5141Z" fill="#EEFFFE" fill-opacity="0.5"/>
<path d="M155.539 79.5806C156.204 92.3682 155.258 99.3224 151.958 111.463" stroke="#9AAEAD" stroke-width="1.00366"/>
<path d="M185 68.1935C186.566 71.5593 186.485 73.4178 185.682 76.7182M188.58 67C190.876 69.9068 190.696 71.7665 189.774 75.1837" stroke="#D8EAE9" stroke-width="1.00366"/>
<path opacity="0.65" d="M127.484 45.4358C129.899 40.4285 135.012 33.1833 145.69 25.7671C145.796 25.6938 145.886 25.5986 145.954 25.4876C146.021 25.3766 146.065 25.2523 146.083 25.1228C146.1 24.9934 146.09 24.8616 146.054 24.7361C146.018 24.6106 145.957 24.4943 145.874 24.3946L144.01 22.1671C143.871 21.9994 143.676 21.8879 143.463 21.8527C143.25 21.8175 143.032 21.8609 142.847 21.9751C139.923 23.7864 128.284 31.7252 125.774 44.834C125.727 45.0557 125.761 45.2873 125.871 45.485C125.98 45.6828 126.157 45.8329 126.367 45.907C126.578 45.9812 126.808 45.9742 127.014 45.8873C127.219 45.8005 127.387 45.6398 127.484 45.4358Z" fill="#F8FFFD"/>
<path opacity="0.65" d="M125.855 47.241C124.009 47.3543 124.193 49.874 126.039 49.7639C127.885 49.6538 127.719 47.1274 125.855 47.241Z" fill="#F8FFFD"/>
<defs>
<filter id="filter0_d_805861_2" x="103.288" y="36.0827" width="94.4624" height="86.344" filterUnits="userSpaceOnUse" color-interpolation-filters="sRGB">
<feFlood flood-opacity="0" result="BackgroundImageFix"/>
<feColorMatrix in="SourceAlpha" type="matrix" values="0 0 0 0 0 0 0 0 0 0 0 0 0 0 0 0 0 0 127 0" result="hardAlpha"/>
<feOffset dy="2.00731"/>
<feGaussianBlur stdDeviation="1.00366"/>
<feComposite in2="hardAlpha" operator="out"/>
<feColorMatrix type="matrix" values="0 0 0 0 0 0 0 0 0 0 0 0 0 0 0 0 0 0 0.25 0"/>
<feBlend mode="normal" in2="BackgroundImageFix" result="effect1_dropShadow_805861_2"/>
<feBlend mode="normal" in="SourceGraphic" in2="effect1_dropShadow_805861_2" result="shape"/>
</filter>
<linearGradient id="paint0_linear_805861_2" x1="152.171" y1="36.5491" x2="155.229" y2="118.579" gradientUnits="userSpaceOnUse">
<stop stop-color="#AD806B"/>
<stop offset="1" stop-color="#C99A81"/>
</linearGradient>
</defs>
</svg>
