<svg width="55" height="55" viewBox="0 0 55 55" fill="none" xmlns="http://www.w3.org/2000/svg">
<g filter="url(#filter0_i_5720_850)">
<circle cx="27.1782" cy="27.1783" r="27" transform="rotate(0.379521 27.1782 27.1783)" fill="#E1CABF"/>
<ellipse cx="6.28503" cy="7.45059" rx="6.28503" ry="7.45059" transform="matrix(0.694975 0.719033 -0.72207 0.69182 17.8268 6.79199)" fill="#C8AA9C"/>
<ellipse cx="5.61917" cy="7.20434" rx="5.61917" ry="7.20434" transform="matrix(0.694975 0.719033 -0.72207 0.69182 18.5552 7.93945)" fill="#F3E2DA"/>
<ellipse cx="4.29796" cy="4.72006" rx="4.29796" ry="4.72006" transform="matrix(0.694975 0.719033 -0.72207 0.69182 33.966 24.9731)" fill="#C8AA9C"/>
<ellipse cx="4.09652" cy="4.38651" rx="4.09652" ry="4.38651" transform="matrix(0.694975 0.719033 -0.72207 0.69182 33.7862 25.2524)" fill="#F3E2DA"/>
<ellipse cx="41.6411" cy="11.0954" rx="3.50235" ry="6.66154" transform="rotate(-47.3621 41.6411 11.0954)" fill="#C8AA9C"/>
<ellipse cx="41.4419" cy="11.4339" rx="3.0073" ry="6.26308" transform="rotate(-47.3621 41.4419 11.4339)" fill="#F3E2DA"/>
<ellipse cx="10.3525" cy="41.394" rx="3.71953" ry="6.80393" transform="rotate(139.429 10.3525 41.394)" fill="#C8AA9C"/>
<ellipse cx="10.5543" cy="40.9243" rx="3.29973" ry="6.26308" transform="rotate(139.429 10.5543 40.9243)" fill="#F3E2DA"/>
<ellipse cx="37.5034" cy="48.0351" rx="2.89756" ry="1.49302" transform="rotate(-26.2828 37.5034 48.0351)" fill="#C8AA9C"/>
<ellipse cx="37.4254" cy="47.8272" rx="2.6844" ry="1.21462" transform="rotate(-26.2828 37.4254 47.8272)" fill="#F3E2DA"/>
<ellipse cx="48.3608" cy="30.6113" rx="2.37073" ry="3.6878" transform="rotate(12.6021 48.3608 30.6113)" fill="#C8AA9C"/>
<ellipse cx="48.1209" cy="30.4006" rx="2.09062" ry="3.53447" transform="rotate(12.6021 48.1209 30.4006)" fill="#F3E2DA"/>
</g>
<defs>
<filter id="filter0_i_5720_850" x="0.178223" y="0.178223" width="54" height="54" filterUnits="userSpaceOnUse" color-interpolation-filters="sRGB">
<feFlood flood-opacity="0" result="BackgroundImageFix"/>
<feBlend mode="normal" in="SourceGraphic" in2="BackgroundImageFix" result="shape"/>
<feColorMatrix in="SourceAlpha" type="matrix" values="0 0 0 0 0 0 0 0 0 0 0 0 0 0 0 0 0 0 127 0" result="hardAlpha"/>
<feOffset/>
<feGaussianBlur stdDeviation="5"/>
<feComposite in2="hardAlpha" operator="arithmetic" k2="-1" k3="1"/>
<feColorMatrix type="matrix" values="0 0 0 0 0.784314 0 0 0 0 0.666667 0 0 0 0 0.611765 0 0 0 1 0"/>
<feBlend mode="normal" in2="shape" result="effect1_innerShadow_5720_850"/>
</filter>
</defs>
</svg>
