<svg width="65" height="65" viewBox="0 0 65 65" fill="none" xmlns="http://www.w3.org/2000/svg">
<g filter="url(#filter0_i_5720_913)">
<circle cx="32.1516" cy="32.1516" r="27" transform="rotate(-167.646 32.1516 32.1516)" fill="#DDC4B1"/>
<ellipse cx="6.28503" cy="7.4506" rx="6.28503" ry="7.4506" transform="matrix(-0.530666 -0.847581 0.849896 -0.52695 37.0694 54.0347)" fill="#A78A7D"/>
<ellipse cx="5.61917" cy="7.20434" rx="5.61917" ry="7.20434" transform="matrix(-0.530666 -0.847581 0.849896 -0.52695 36.5949 52.7607)" fill="#F0D6C2"/>
<ellipse cx="4.29796" cy="4.72006" rx="4.29796" ry="4.72006" transform="matrix(-0.530666 -0.847581 0.849896 -0.52695 25.054 32.9004)" fill="#A78A7D"/>
<ellipse cx="4.09652" cy="4.38651" rx="4.09652" ry="4.38651" transform="matrix(-0.530666 -0.847581 0.849896 -0.52695 25.2878 32.6646)" fill="#F0D6C2"/>
<ellipse cx="14.6666" cy="44.8835" rx="3.50235" ry="6.66154" transform="rotate(144.613 14.6666 44.8835)" fill="#A78A7D"/>
<ellipse cx="14.9315" cy="44.594" rx="3.0073" ry="6.26308" transform="rotate(144.613 14.9315 44.594)" fill="#F0D6C2"/>
<ellipse cx="51.5609" cy="21.7366" rx="3.71953" ry="6.80393" transform="rotate(-28.5964 51.5609 21.7366)" fill="#A78A7D"/>
<ellipse cx="51.266" cy="22.1541" rx="3.29973" ry="6.26308" transform="rotate(-28.5964 51.266 22.1541)" fill="#F0D6C2"/>
<ellipse cx="26.3785" cy="9.6063" rx="2.89756" ry="1.49302" transform="rotate(165.692 26.3785 9.6063)" fill="#A78A7D"/>
<ellipse cx="26.4118" cy="9.82582" rx="2.6844" ry="1.21462" transform="rotate(165.692 26.4118 9.82582)" fill="#F0D6C2"/>
<ellipse cx="12.1424" cy="24.3986" rx="2.37073" ry="3.6878" transform="rotate(-155.423 12.1424 24.3986)" fill="#A78A7D"/>
<ellipse cx="12.3334" cy="24.6545" rx="2.09062" ry="3.53447" transform="rotate(-155.423 12.3334 24.6545)" fill="#F0D6C2"/>
</g>
<defs>
<filter id="filter0_i_5720_913" x="5.14587" y="5.146" width="54.0114" height="54.0112" filterUnits="userSpaceOnUse" color-interpolation-filters="sRGB">
<feFlood flood-opacity="0" result="BackgroundImageFix"/>
<feBlend mode="normal" in="SourceGraphic" in2="BackgroundImageFix" result="shape"/>
<feColorMatrix in="SourceAlpha" type="matrix" values="0 0 0 0 0 0 0 0 0 0 0 0 0 0 0 0 0 0 127 0" result="hardAlpha"/>
<feOffset/>
<feGaussianBlur stdDeviation="5"/>
<feComposite in2="hardAlpha" operator="arithmetic" k2="-1" k3="1"/>
<feColorMatrix type="matrix" values="0 0 0 0 0.654902 0 0 0 0 0.541176 0 0 0 0 0.490196 0 0 0 1 0"/>
<feBlend mode="normal" in2="shape" result="effect1_innerShadow_5720_913"/>
</filter>
</defs>
</svg>
