<svg width="81" height="78" viewBox="0 0 81 78" fill="none" xmlns="http://www.w3.org/2000/svg">
<path d="M25.6012 47.1855C25.6391 46.6931 26.3609 46.6931 26.3988 47.1855L27.2592 58.3726C27.2744 58.5693 27.4307 58.7256 27.6274 58.7408L38.8145 59.6012C39.3069 59.6391 39.3069 60.3609 38.8145 60.3988L27.6274 61.2592C27.4307 61.2744 27.2744 61.4307 27.2592 61.6274L26.3988 72.8145C26.3609 73.3069 25.6391 73.3069 25.6012 72.8145L24.7408 61.6274C24.7256 61.4307 24.5693 61.2744 24.3726 61.2592L13.1855 60.3988C12.6931 60.3609 12.6931 59.6391 13.1855 59.6012L24.3726 58.7408C24.5693 58.7256 24.7256 58.5693 24.7408 58.3726L25.6012 47.1855Z" fill="url(#paint0_radial)"/>
<path d="M55.6012 13.1855C55.6391 12.6931 56.3609 12.6931 56.3988 13.1855L57.5449 28.087C57.56 28.2837 57.7163 28.44 57.913 28.4551L72.8145 29.6012C73.3069 29.6391 73.3069 30.3609 72.8145 30.3988L57.913 31.5449C57.7163 31.56 57.56 31.7163 57.5449 31.913L56.3988 46.8145C56.3609 47.3069 55.6391 47.3069 55.6012 46.8145L54.4551 31.913C54.44 31.7163 54.2837 31.56 54.087 31.5449L39.1855 30.3988C38.6931 30.3609 38.6931 29.6391 39.1855 29.6012L54.087 28.4551C54.2837 28.44 54.44 28.2837 54.4551 28.087L55.6012 13.1855Z" fill="url(#paint1_radial)"/>
<path d="M13.6012 17.1855C13.6391 16.6931 14.3609 16.6931 14.3988 17.1855L14.9736 24.6583C14.9887 24.855 15.145 25.0113 15.3417 25.0264L22.8145 25.6012C23.3069 25.6391 23.3069 26.3609 22.8145 26.3988L15.3417 26.9736C15.145 26.9887 14.9887 27.145 14.9736 27.3417L14.3988 34.8145C14.3609 35.3069 13.6391 35.3069 13.6012 34.8145L13.0264 27.3417C13.0113 27.145 12.855 26.9887 12.6583 26.9736L5.18553 26.3988C4.69309 26.3609 4.69309 25.6391 5.18553 25.6012L12.6583 25.0264C12.855 25.0113 13.0113 24.855 13.0264 24.6583L13.6012 17.1855Z" fill="url(#paint2_radial)"/>
<path d="M71.8006 45.5928C71.8195 45.3465 72.1805 45.3465 72.1994 45.5928L72.6296 51.1863C72.6372 51.2847 72.7153 51.3628 72.8137 51.3704L78.4072 51.8006C78.6535 51.8195 78.6535 52.1805 78.4072 52.1994L72.8137 52.6296C72.7153 52.6372 72.6372 52.7153 72.6296 52.8137L72.1994 58.4072C72.1805 58.6535 71.8195 58.6535 71.8006 58.4072L71.3704 52.8137C71.3628 52.7153 71.2847 52.6372 71.1863 52.6296L65.5928 52.1994C65.3465 52.1805 65.3465 51.8195 65.5928 51.8006L71.1863 51.3704C71.2847 51.3628 71.3628 51.2847 71.3704 51.1863L71.8006 45.5928Z" fill="url(#paint3_radial)"/>
<path d="M36 12L36.2857 15.7143L40 16L36.2857 16.2857L36 20L35.7143 16.2857L32 16L35.7143 15.7143L36 12Z" fill="url(#paint4_radial)"/>
<path d="M40.5 41L40.6785 43.3215L43 43.5L40.6785 43.6785L40.5 46L40.3215 43.6785L38 43.5L40.3215 43.3215L40.5 41Z" fill="url(#paint5_radial)"/>
<path d="M4 62L4.28567 65.7143L8 66L4.28567 66.2857L4 70L3.71433 66.2857L0 66L3.71433 65.7143L4 62Z" fill="url(#paint6_radial)"/>
<path d="M68 0L68.2857 3.71433L72 4L68.2857 4.28567L68 8L67.7143 4.28567L64 4L67.7143 3.71433L68 0Z" fill="url(#paint7_radial)"/>
<defs>
<radialGradient id="paint0_radial" cx="0" cy="0" r="1" gradientUnits="userSpaceOnUse" gradientTransform="translate(26 60) rotate(90) scale(18)">
<stop stop-color="white"/>
<stop offset="1" stop-color="white" stop-opacity="0"/>
</radialGradient>
<radialGradient id="paint1_radial" cx="0" cy="0" r="1" gradientUnits="userSpaceOnUse" gradientTransform="translate(56 30) rotate(90) scale(22)">
<stop stop-color="white"/>
<stop offset="1" stop-color="white" stop-opacity="0"/>
</radialGradient>
<radialGradient id="paint2_radial" cx="0" cy="0" r="1" gradientUnits="userSpaceOnUse" gradientTransform="translate(14 26) rotate(90) scale(14)">
<stop stop-color="white"/>
<stop offset="1" stop-color="white" stop-opacity="0"/>
</radialGradient>
<radialGradient id="paint3_radial" cx="0" cy="0" r="1" gradientUnits="userSpaceOnUse" gradientTransform="translate(72 52) rotate(90) scale(9)">
<stop stop-color="white"/>
<stop offset="1" stop-color="white" stop-opacity="0"/>
</radialGradient>
<radialGradient id="paint4_radial" cx="0" cy="0" r="1" gradientUnits="userSpaceOnUse" gradientTransform="translate(36 16) rotate(90) scale(4)">
<stop stop-color="white"/>
<stop offset="1" stop-color="white" stop-opacity="0"/>
</radialGradient>
<radialGradient id="paint5_radial" cx="0" cy="0" r="1" gradientUnits="userSpaceOnUse" gradientTransform="translate(40.5 43.5) rotate(90) scale(2.5)">
<stop stop-color="white"/>
<stop offset="1" stop-color="white" stop-opacity="0"/>
</radialGradient>
<radialGradient id="paint6_radial" cx="0" cy="0" r="1" gradientUnits="userSpaceOnUse" gradientTransform="translate(4 66) rotate(90) scale(4)">
<stop stop-color="white"/>
<stop offset="1" stop-color="white" stop-opacity="0"/>
</radialGradient>
<radialGradient id="paint7_radial" cx="0" cy="0" r="1" gradientUnits="userSpaceOnUse" gradientTransform="translate(68 4) rotate(90) scale(4)">
<stop stop-color="white"/>
<stop offset="1" stop-color="white" stop-opacity="0"/>
</radialGradient>
</defs>
</svg>
