<svg width="1345" height="432" viewBox="0 0 1345 432" fill="none" xmlns="http://www.w3.org/2000/svg">
<path d="M998.735 179.939C997.495 181.179 995.485 181.179 994.245 179.939C993.006 178.699 993.006 176.689 994.245 175.449C995.485 174.209 1018.94 155.245 1018.94 155.245C1018.94 155.245 999.975 178.699 998.735 179.939Z" fill="url(#paint0_linear)"/>
<path d="M293.734 94.9388C292.494 96.1786 290.484 96.1786 289.244 94.9388C288.005 93.699 288.005 91.6888 289.244 90.449C290.484 89.2092 313.938 70.2449 313.938 70.2449C313.938 70.2449 294.974 93.699 293.734 94.9388Z" fill="url(#paint1_linear)"/>
<path d="M8.72482 428.898C7.11868 430.504 4.51461 430.504 2.90847 428.898C1.30232 427.292 1.30232 424.688 2.90846 423.082C4.51461 421.476 34.8984 396.908 34.8984 396.908C34.8984 396.908 10.331 427.292 8.72482 428.898Z" fill="url(#paint2_linear)" style="mix-blend-mode:overlay"/>
<path d="M1218.11 387.151C1216.88 388.38 1214.89 388.38 1213.66 387.151C1212.43 385.921 1212.43 383.927 1213.66 382.697C1214.89 381.467 1238.15 362.656 1238.15 362.656C1238.15 362.656 1219.34 385.921 1218.11 387.151Z" fill="url(#paint3_linear)" style="mix-blend-mode:overlay"/>
<circle cx="32" cy="75" r="7" fill="url(#paint4_linear)" style="mix-blend-mode:color-dodge"/>
<circle cx="786" cy="408" r="5" fill="url(#paint5_linear)" style="mix-blend-mode:overlay"/>
<path d="M395.5 132L396.681 137.319L402 138.5L396.681 139.681L395.5 145L394.319 139.681L389 138.5L394.319 137.319L395.5 132Z" fill="#FBFBFB" style="mix-blend-mode:overlay"/>
<path d="M213 201L214.689 205.311L219 207L214.689 208.689L213 213L211.311 208.689L207 207L211.311 205.311L213 201Z" fill="#FAFE36" style="mix-blend-mode:color-dodge"/>
<path d="M201 363L202.689 367.311L207 369L202.689 370.689L201 375L199.311 370.689L195 369L199.311 367.311L201 363Z" fill="#FF8C73" style="mix-blend-mode:color-dodge"/>
<path d="M1074 413L1074.84 420.163L1082 421L1074.84 421.837L1074 429L1073.16 421.837L1066 421L1073.16 420.163L1074 413Z" fill="#FF8C73" style="mix-blend-mode:lighten"/>
<circle cx="1337.21" cy="98.2115" r="27.2115" fill="url(#paint6_linear)" fill-opacity="0.15"/>
<circle cx="1337.21" cy="98.2112" r="23.2098" fill="url(#paint7_linear)" fill-opacity="0.15"/>
<circle cx="1337.21" cy="98.2116" r="20.8088" fill="url(#paint8_linear)" fill-opacity="0.15"/>
<circle cx="1337.21" cy="98.2117" r="18.0076" fill="url(#paint9_linear)"/>
<path d="M549.961 299.841C548.863 300.938 547.084 300.938 545.987 299.841C544.89 298.744 544.89 296.965 545.987 295.867C547.084 294.77 567.841 277.987 567.841 277.987C567.841 277.987 551.058 298.744 549.961 299.841Z" fill="url(#paint10_linear)" fill-opacity="0.6" style="mix-blend-mode:overlay"/>
<path d="M876 114L876.381 125.102L887 125.5L876.381 125.898L876 137L875.619 125.898L865 125.5L875.619 125.102L876 114Z" fill="#FAFE36" style="mix-blend-mode:color-dodge"/>
<circle r="22.2848" transform="matrix(-0.771754 0.635922 0.635922 0.771754 1023.37 60.3698)" fill="url(#paint11_linear)" fill-opacity="0.4" style="mix-blend-mode:overlay"/>
<circle cx="213.211" cy="0.211464" r="38.2115" fill="url(#paint12_linear)" fill-opacity="0.15"/>
<circle cx="213.211" cy="0.211269" r="32.5921" fill="url(#paint13_linear)" fill-opacity="0.15"/>
<circle cx="213.212" cy="0.211252" r="29.2205" fill="url(#paint14_linear)" fill-opacity="0.15"/>
<circle cx="213.212" cy="0.211313" r="25.287" fill="url(#paint15_linear)"/>
<defs>
<linearGradient id="paint0_linear" x1="1018.94" y1="155.245" x2="994.245" y2="179.939" gradientUnits="userSpaceOnUse">
<stop stop-color="white" stop-opacity="0"/>
<stop offset="1" stop-color="white"/>
</linearGradient>
<linearGradient id="paint1_linear" x1="313.938" y1="70.2449" x2="289.244" y2="94.9388" gradientUnits="userSpaceOnUse">
<stop stop-color="white" stop-opacity="0"/>
<stop offset="1" stop-color="#78FF96"/>
</linearGradient>
<linearGradient id="paint2_linear" x1="34.8984" y1="396.908" x2="2.90847" y2="428.898" gradientUnits="userSpaceOnUse">
<stop stop-color="white" stop-opacity="0"/>
<stop offset="1" stop-color="#FAFE36"/>
</linearGradient>
<linearGradient id="paint3_linear" x1="1238.15" y1="362.656" x2="1213.66" y2="387.151" gradientUnits="userSpaceOnUse">
<stop stop-color="white" stop-opacity="0"/>
<stop offset="0.9999" stop-color="#FF8C73"/>
<stop offset="1" stop-color="#78FF96"/>
</linearGradient>
<linearGradient id="paint4_linear" x1="32" y1="83.4778" x2="32" y2="68" gradientUnits="userSpaceOnUse">
<stop stop-color="#824AF8"/>
<stop offset="0.677083" stop-color="#D0BDFF"/>
</linearGradient>
<linearGradient id="paint5_linear" x1="786" y1="414.056" x2="786" y2="403" gradientUnits="userSpaceOnUse">
<stop stop-color="#FD5E5E" stop-opacity="0.51"/>
<stop offset="1" stop-color="#FF8C73"/>
</linearGradient>
<linearGradient id="paint6_linear" x1="1337.21" y1="131.168" x2="1337.21" y2="71" gradientUnits="userSpaceOnUse">
<stop stop-color="#20FFAF"/>
<stop offset="1" stop-color="#01DACC"/>
</linearGradient>
<linearGradient id="paint7_linear" x1="1337.21" y1="126.321" x2="1337.21" y2="75.0015" gradientUnits="userSpaceOnUse">
<stop stop-color="#20FFAF"/>
<stop offset="1" stop-color="#01DACC"/>
</linearGradient>
<linearGradient id="paint8_linear" x1="1337.21" y1="123.413" x2="1337.21" y2="77.4028" gradientUnits="userSpaceOnUse">
<stop stop-color="#20FFAF"/>
<stop offset="1" stop-color="#01DACC"/>
</linearGradient>
<linearGradient id="paint9_linear" x1="1337.21" y1="120.021" x2="1337.21" y2="80.2041" gradientUnits="userSpaceOnUse">
<stop stop-color="#20FFAF"/>
<stop offset="1" stop-color="#01DACC"/>
</linearGradient>
<linearGradient id="paint10_linear" x1="567.841" y1="277.987" x2="545.987" y2="299.841" gradientUnits="userSpaceOnUse">
<stop stop-color="white"/>
<stop offset="1" stop-color="#FF8C73"/>
</linearGradient>
<linearGradient id="paint11_linear" x1="7.25056" y1="4.06322" x2="35.1332" y2="41.169" gradientUnits="userSpaceOnUse">
<stop stop-color="white"/>
<stop offset="1" stop-color="white" stop-opacity="0"/>
</linearGradient>
<linearGradient id="paint12_linear" x1="213.211" y1="46.4898" x2="213.211" y2="-38" gradientUnits="userSpaceOnUse">
<stop stop-color="#FF8C73" stop-opacity="0.74"/>
<stop offset="1" stop-color="#FAFE36"/>
</linearGradient>
<linearGradient id="paint13_linear" x1="213.211" y1="39.684" x2="213.211" y2="-32.3809" gradientUnits="userSpaceOnUse">
<stop stop-color="#FF8C73" stop-opacity="0.74"/>
<stop offset="1" stop-color="#FAFE36"/>
</linearGradient>
<linearGradient id="paint14_linear" x1="213.212" y1="35.6006" x2="213.212" y2="-29.0093" gradientUnits="userSpaceOnUse">
<stop stop-color="#FF8C73" stop-opacity="0.74"/>
<stop offset="1" stop-color="#FAFE36"/>
</linearGradient>
<linearGradient id="paint15_linear" x1="213.212" y1="30.8367" x2="213.212" y2="-25.0757" gradientUnits="userSpaceOnUse">
<stop stop-color="#FF8C73" stop-opacity="0.74"/>
<stop offset="1" stop-color="#FAFE36"/>
</linearGradient>
</defs>
</svg>
