<svg width="74" height="74" viewBox="0 0 74 74" fill="none" xmlns="http://www.w3.org/2000/svg">
<g filter="url(#filter0_i_5720_708)">
<circle cx="36.9198" cy="37.3221" r="27" transform="rotate(61.4363 36.9198 37.3221)" fill="#235667"/>
<ellipse cx="6.28503" cy="7.45059" rx="6.28503" ry="7.45059" transform="matrix(-0.292897 0.956144 -0.954852 -0.297081 50.2347 19.2732)" fill="#1C3F53"/>
<ellipse cx="5.61917" cy="7.20434" rx="5.61917" ry="7.20434" transform="matrix(-0.292897 0.956144 -0.954852 -0.297081 49.5829 20.4661)" fill="#265F71"/>
<ellipse cx="4.29795" cy="4.72006" rx="4.29795" ry="4.72006" transform="matrix(-0.292897 0.956144 -0.954852 -0.297081 42.1345 42.1951)" fill="#1C3F53"/>
<ellipse cx="4.09652" cy="4.38651" rx="4.09652" ry="4.38651" transform="matrix(-0.292897 0.956144 -0.954852 -0.297081 41.8032 42.1729)" fill="#265F71"/>
<ellipse cx="57.9929" cy="42.1956" rx="3.50235" ry="6.66154" transform="rotate(13.6947 57.9929 42.1956)" fill="#1C3F53"/>
<ellipse cx="57.6007" cy="42.1849" rx="3.0073" ry="6.26308" transform="rotate(13.6947 57.6007 42.1849)" fill="#265F71"/>
<ellipse cx="16.337" cy="29.4772" rx="3.71953" ry="6.80393" transform="rotate(-159.514 16.337 29.4772)" fill="#1C3F53"/>
<ellipse cx="16.8457" cy="29.4267" rx="3.29972" ry="6.26308" transform="rotate(-159.514 16.8457 29.4267)" fill="#265F71"/>
<ellipse cx="23.6648" cy="56.4512" rx="2.89756" ry="1.49302" transform="rotate(34.7739 23.6648 56.4512)" fill="#1C3F53"/>
<ellipse cx="23.8091" cy="56.2821" rx="2.6844" ry="1.21462" transform="rotate(34.7739 23.8091 56.2821)" fill="#265F71"/>
<ellipse cx="44.1666" cy="57.5203" rx="2.37073" ry="3.6878" transform="rotate(73.6588 44.1666 57.5203)" fill="#1C3F53"/>
<ellipse cx="44.235" cy="57.2084" rx="2.09062" ry="3.53447" transform="rotate(73.6588 44.235 57.2084)" fill="#265F71"/>
</g>
<defs>
<filter id="filter0_i_5720_708" x="9.91467" y="10.3169" width="54.0103" height="54.0103" filterUnits="userSpaceOnUse" color-interpolation-filters="sRGB">
<feFlood flood-opacity="0" result="BackgroundImageFix"/>
<feBlend mode="normal" in="SourceGraphic" in2="BackgroundImageFix" result="shape"/>
<feColorMatrix in="SourceAlpha" type="matrix" values="0 0 0 0 0 0 0 0 0 0 0 0 0 0 0 0 0 0 127 0" result="hardAlpha"/>
<feOffset/>
<feGaussianBlur stdDeviation="5"/>
<feComposite in2="hardAlpha" operator="arithmetic" k2="-1" k3="1"/>
<feColorMatrix type="matrix" values="0 0 0 0 0.109804 0 0 0 0 0.247059 0 0 0 0 0.32549 0 0 0 1 0"/>
<feBlend mode="normal" in2="shape" result="effect1_innerShadow_5720_708"/>
</filter>
</defs>
</svg>
