<svg width="359" height="355" viewBox="0 0 359 355" fill="none" xmlns="http://www.w3.org/2000/svg">
<g filter="url(#filter0_d)">
<rect opacity="0.65" x="78.208" y="16" width="104.946" height="104.946" rx="8" transform="rotate(45 78.208 16)" fill="#7359CB"/>
<rect x="78.208" y="21.6813" width="96.9118" height="96.9118" rx="6" transform="rotate(45 78.208 21.6813)" fill="#403074"/>
<path d="M58.5841 55.7936C58.5841 57.3686 57.8341 57.9086 56.4091 57.9086H53.2591V61.0736H58.5841V75.5786H62.5891V54.6686H58.5841V55.7936ZM76.7979 75.8636C81.4779 75.8636 84.6579 73.1186 84.6579 69.1136C84.6579 66.6536 83.2179 64.9886 81.0279 64.1936C82.4379 63.4286 83.4429 62.0486 83.4429 60.1286C83.4429 56.7536 80.7579 54.3836 76.9029 54.3836C72.7929 54.3836 69.8379 57.0086 69.8379 60.6686L73.7979 60.9236C73.8129 59.2436 74.9379 58.2086 76.7679 58.2086C78.4179 58.2086 79.4529 59.0786 79.4529 60.5486C79.4529 62.3636 77.9979 63.0986 75.7629 63.0986V66.2336C78.9429 66.2336 80.6529 67.0136 80.6529 69.0836C80.6529 70.9436 79.2879 72.0386 76.9329 72.0386C74.4879 72.0386 72.9129 70.7186 72.9129 68.6486L68.9379 68.8886C68.9379 73.0736 72.0729 75.8636 76.7979 75.8636ZM96.4702 74.4536V68.2886H102.635V65.3186H96.4702V59.1536H93.4702V65.3186H87.3052V68.2886H93.4702V74.4536H96.4702Z" fill="url(#paint0_linear)"/>
<path d="M41.2655 97.0784V93.4424H44.9855V97.0784H46.4255V88.7144H44.9855V92.1164H41.2655V88.7144H39.8195V97.0784H41.2655ZM55.0246 97.0784L51.7066 88.7144H50.6146L47.2846 97.0784H48.8626L49.4926 95.3684H52.8286L53.4526 97.0784H55.0246ZM51.1666 90.8384L52.3546 94.0784H49.9726L51.1666 90.8384ZM59.0346 97.2584C60.7926 97.2584 62.1246 96.3164 62.6826 94.7864L61.3266 94.2944C60.9546 95.2904 60.1446 95.8724 59.0346 95.8724C57.4926 95.8724 56.5026 94.7444 56.5026 92.8904C56.5026 91.0484 57.4926 89.9144 59.0346 89.9144C60.1446 89.9144 60.9546 90.4964 61.3266 91.4924L62.6826 91.0064C62.1246 89.4704 60.7926 88.5344 59.0346 88.5344C56.6706 88.5344 55.0626 90.2744 55.0626 92.8904C55.0626 95.5124 56.6706 97.2584 59.0346 97.2584ZM70.7007 97.0784L67.4787 91.9604L70.6707 88.7144H68.7327L65.2467 92.3864V88.7144H63.8007V97.0784H65.2467V94.2284L66.4407 93.0164L68.9907 97.0784H70.7007ZM78.6074 97.0784L75.2894 88.7144H74.1974L70.8674 97.0784H72.4454L73.0754 95.3684H76.4114L77.0354 97.0784H78.6074ZM74.7494 90.8384L75.9374 94.0784H73.5554L74.7494 90.8384ZM81.692 97.0784V90.0044H84.326V88.7144H77.594V90.0044H80.234V97.0784H81.692ZM86.6616 97.0784V93.4424H90.3816V97.0784H91.8216V88.7144H90.3816V92.1164H86.6616V88.7144H85.2156V97.0784H86.6616ZM97.0307 97.2584C99.4067 97.2584 101.021 95.5244 101.021 92.9024C101.021 90.2684 99.4187 88.5344 97.0307 88.5344C94.6667 88.5344 93.0587 90.2744 93.0587 92.9024C93.0587 95.5124 94.6667 97.2584 97.0307 97.2584ZM97.0307 95.8724C95.4887 95.8724 94.4987 94.7444 94.4987 92.9024C94.4987 91.0424 95.4887 89.9144 97.0307 89.9144C98.5907 89.9144 99.5687 91.0604 99.5687 92.9024C99.5687 94.7264 98.5907 95.8724 97.0307 95.8724ZM107.372 94.6064L103.748 88.7144H102.254V97.0784H103.7V91.1684L107.312 97.0784H108.818V88.7144H107.372V94.6064ZM113.11 97.2284C114.814 97.2284 115.972 96.1724 115.972 94.6964C115.972 93.3644 115.084 92.7104 113.596 92.1524C112.408 91.7024 111.91 91.3844 111.91 90.7784C111.91 90.2204 112.39 89.8184 113.026 89.8184C113.614 89.8184 114.088 90.1544 114.43 90.7604L115.582 90.0584C115.06 89.0504 114.184 88.5344 113.074 88.5344C111.508 88.5344 110.47 89.4824 110.47 90.8084C110.47 92.0744 111.274 92.7584 112.84 93.3584C113.932 93.7784 114.538 94.0904 114.538 94.7924C114.538 95.5004 113.938 95.9444 113.152 95.9444C112.168 95.9444 111.496 95.4044 111.316 94.3664L109.912 94.7144C110.158 96.2384 111.34 97.2284 113.11 97.2284ZM39.2502 113.078V109.442H42.9702V113.078H44.4102V104.714H42.9702V108.116H39.2502V104.714H37.8042V113.078H39.2502ZM49.6194 113.258C51.9954 113.258 53.6094 111.524 53.6094 108.902C53.6094 106.268 52.0074 104.534 49.6194 104.534C47.2554 104.534 45.6474 106.274 45.6474 108.902C45.6474 111.512 47.2554 113.258 49.6194 113.258ZM49.6194 111.872C48.0774 111.872 47.0874 110.744 47.0874 108.902C47.0874 107.042 48.0774 105.914 49.6194 105.914C51.1794 105.914 52.1574 107.06 52.1574 108.902C52.1574 110.726 51.1794 111.872 49.6194 111.872ZM57.4316 113.228C59.1356 113.228 60.2936 112.172 60.2936 110.696C60.2936 109.364 59.4056 108.71 57.9176 108.152C56.7296 107.702 56.2316 107.384 56.2316 106.778C56.2316 106.22 56.7116 105.818 57.3476 105.818C57.9356 105.818 58.4096 106.154 58.7516 106.76L59.9036 106.058C59.3816 105.05 58.5056 104.534 57.3956 104.534C55.8296 104.534 54.7916 105.482 54.7916 106.808C54.7916 108.074 55.5956 108.758 57.1616 109.358C58.2536 109.778 58.8596 110.09 58.8596 110.792C58.8596 111.5 58.2596 111.944 57.4736 111.944C56.4896 111.944 55.8176 111.404 55.6376 110.366L54.2336 110.714C54.4796 112.238 55.6616 113.228 57.4316 113.228ZM64.7127 113.078V106.004H67.3467V104.714H60.6147V106.004H63.2547V113.078H64.7127ZM73.7923 113.078V111.788H69.6823V109.436H73.4923V108.146H69.6823V106.004H73.7923V104.714H68.2363V113.078H73.7923ZM77.4855 113.078C80.3055 113.078 81.8475 111.62 81.8475 108.962C81.8475 106.25 80.2635 104.714 77.4975 104.714H75.0855V113.078H77.4855ZM76.5315 106.04H77.4735C79.2975 106.04 80.3955 106.79 80.3955 108.908C80.3955 111.068 79.2795 111.752 77.3415 111.752H76.5315V106.04ZM88.7129 113.228C90.4169 113.228 91.5749 112.172 91.5749 110.696C91.5749 109.364 90.6869 108.71 89.1989 108.152C88.0109 107.702 87.5129 107.384 87.5129 106.778C87.5129 106.22 87.9929 105.818 88.6289 105.818C89.2169 105.818 89.6909 106.154 90.0329 106.76L91.1849 106.058C90.6629 105.05 89.7869 104.534 88.6769 104.534C87.1109 104.534 86.0729 105.482 86.0729 106.808C86.0729 108.074 86.8769 108.758 88.4429 109.358C89.5349 109.778 90.1409 110.09 90.1409 110.792C90.1409 111.5 89.5409 111.944 88.7549 111.944C87.7709 111.944 87.0989 111.404 86.9189 110.366L85.5149 110.714C85.7609 112.238 86.9429 113.228 88.7129 113.228ZM94.2198 113.078V104.714H92.7738V113.078H94.2198ZM100.921 110.606L97.2967 104.714H95.8027V113.078H97.2487V107.168L100.861 113.078H102.367V104.714H100.921V110.606ZM107.571 113.258C109.329 113.258 110.661 112.316 111.219 110.786L109.863 110.294C109.491 111.29 108.681 111.872 107.571 111.872C106.029 111.872 105.039 110.744 105.039 108.89C105.039 107.048 106.029 105.914 107.571 105.914C108.681 105.914 109.491 106.496 109.863 107.492L111.219 107.006C110.661 105.47 109.329 104.534 107.571 104.534C105.207 104.534 103.599 106.274 103.599 108.89C103.599 111.512 105.207 113.258 107.571 113.258ZM117.893 113.078V111.788H113.783V109.436H117.593V108.146H113.783V106.004H117.893V104.714H112.337V113.078H117.893ZM66.7634 127.788C68.6834 126.402 69.9314 125.052 69.9314 123.264C69.9314 121.692 68.8814 120.624 67.3214 120.624C65.6534 120.624 64.4714 121.836 64.4714 123.546L65.8334 123.654C65.8874 122.556 66.3974 121.968 67.2854 121.968C68.0834 121.968 68.5514 122.466 68.5514 123.312C68.5514 124.836 66.7094 126.516 64.5314 127.926V129.078H70.2614V127.788H66.7634ZM74.2363 129.186C76.7203 129.186 77.0983 126.756 77.0983 124.86C77.0983 123.048 76.7443 120.588 74.2183 120.588C71.6623 120.588 71.3563 123.102 71.3563 124.854C71.3563 126.672 71.6863 129.186 74.2363 129.186ZM74.2363 127.854C73.0183 127.854 72.7723 126.462 72.7723 124.902C72.7723 123.288 73.0123 121.92 74.2183 121.92C75.3883 121.92 75.6823 123.216 75.6823 124.908C75.6823 126.54 75.3943 127.854 74.2363 127.854ZM81.1033 121.236C81.1033 121.824 80.8213 122.022 80.2813 122.022H78.9553V123.18H81.1033V129.078H82.4953V120.714H81.1033V121.236ZM88.1082 123.336C87.7002 123.336 87.2262 123.42 86.7642 123.726L87.0822 122.004H90.5622V120.714H85.9422L85.1322 125.106L86.4462 125.436C86.7342 124.992 87.2082 124.638 87.9162 124.638C88.9842 124.638 89.4702 125.358 89.4702 126.168C89.4702 127.014 88.9542 127.866 87.8742 127.866C86.8722 127.866 86.3382 127.14 86.2482 126.444L84.8862 126.672C85.0962 128.1 86.3262 129.192 87.8922 129.192C89.6742 129.192 90.9402 127.758 90.9402 126.168C90.9402 124.65 89.7882 123.336 88.1082 123.336Z" fill="#E2D6FF"/>
<path d="M46.8785 120.998L47.2418 130.514C47.2498 130.723 47.4173 130.89 47.6262 130.898L57.1418 131.261L47.6262 131.625C47.4173 131.633 47.2498 131.8 47.2418 132.009L46.8785 141.525L46.5153 132.009C46.5073 131.8 46.3398 131.633 46.1308 131.625L36.6152 131.261L46.1308 130.898C46.3398 130.89 46.5073 130.723 46.5153 130.514L46.8785 120.998Z" fill="#20FFAF"/>
</g>
<g filter="url(#filter1_d)">
<rect opacity="0.65" x="264.239" width="127.618" height="127.618" rx="8" transform="rotate(45 264.239 0)" fill="#7359CB"/>
<rect x="264.24" y="7.06091" width="117.632" height="117.632" rx="6" transform="rotate(45 264.24 7.06091)" fill="#403074"/>
<path d="M217.113 81.2856C217.113 78.6456 215.445 77.2656 212.361 76.1016C209.961 75.2016 209.157 74.5776 209.157 73.5696C209.157 72.6216 209.985 71.9376 211.065 71.9376C212.133 71.9376 213.009 72.5856 213.669 73.7376L216.309 72.1296C215.433 70.4016 214.041 69.3816 212.289 69.0816V66.7176H209.901V69.0936C207.405 69.5376 205.821 71.2896 205.821 73.6296C205.821 76.1856 207.357 77.6376 210.633 78.8976C212.793 79.7256 213.813 80.3136 213.813 81.4896C213.813 82.7376 212.721 83.4936 211.329 83.4936C209.505 83.4936 208.257 82.4736 207.909 80.4816L204.669 81.2856C205.101 84.0216 207.021 85.9176 209.925 86.3496V88.9296H212.313V86.3736C215.241 85.9776 217.113 83.9736 217.113 81.2856ZM224.911 70.2816C224.911 71.5416 224.311 71.9736 223.171 71.9736H220.651V74.5056H224.911V86.1096H228.115V69.3816H224.911V70.2816ZM239.33 70.2816C239.33 71.5416 238.73 71.9736 237.59 71.9736H235.07V74.5056H239.33V86.1096H242.534V69.3816H239.33V70.2816ZM254.085 86.3376C259.365 86.3376 259.977 81.2376 259.977 77.6616C259.977 74.2776 259.425 69.1056 254.073 69.1056C248.697 69.1056 248.169 74.3016 248.169 77.6496C248.169 81.1656 248.733 86.3376 254.085 86.3376ZM254.085 83.2776C251.805 83.2776 251.433 80.6736 251.433 77.7576C251.433 74.7216 251.805 72.1896 254.073 72.1896C256.293 72.1896 256.713 74.6616 256.713 77.7576C256.713 80.7456 256.293 83.2776 254.085 83.2776ZM264.223 89.6376L267.223 82.3176H263.647L262.135 89.6376H264.223ZM274.143 83.1336C277.707 80.9496 280.047 77.9616 280.047 74.5896C280.047 71.3256 277.839 69.2016 274.743 69.2016C270.951 69.2016 268.899 72.3576 268.899 75.3336L272.043 75.5856C272.127 74.0496 272.691 72.2976 274.659 72.2976C276.195 72.2976 276.867 73.3416 276.867 74.6856C276.867 78.4416 271.587 81.9096 269.067 83.7216V86.1096H280.707V83.1336H274.143ZM289.078 86.3376C292.822 86.3376 295.366 84.1416 295.366 80.9376C295.366 78.9696 294.214 77.6376 292.462 77.0016C293.59 76.3896 294.394 75.2856 294.394 73.7496C294.394 71.0496 292.246 69.1536 289.162 69.1536C285.874 69.1536 283.51 71.2536 283.51 74.1816L286.678 74.3856C286.69 73.0416 287.59 72.2136 289.054 72.2136C290.374 72.2136 291.202 72.9096 291.202 74.0856C291.202 75.5376 290.038 76.1256 288.25 76.1256V78.6336C290.794 78.6336 292.162 79.2576 292.162 80.9136C292.162 82.4016 291.07 83.2776 289.186 83.2776C287.23 83.2776 285.97 82.2216 285.97 80.5656L282.79 80.7576C282.79 84.1056 285.298 86.3376 289.078 86.3376ZM303.488 86.3376C308.768 86.3376 309.38 81.2376 309.38 77.6616C309.38 74.2776 308.828 69.1056 303.476 69.1056C298.1 69.1056 297.572 74.3016 297.572 77.6496C297.572 81.1656 298.136 86.3376 303.488 86.3376ZM303.488 83.2776C301.208 83.2776 300.836 80.6736 300.836 77.7576C300.836 74.7216 301.208 72.1896 303.476 72.1896C305.696 72.1896 306.116 74.6616 306.116 77.7576C306.116 80.7456 305.696 83.2776 303.488 83.2776ZM319.194 85.2096V80.2776H324.126V77.9016H319.194V72.9696H316.794V77.9016H311.862V80.2776H316.794V85.2096H319.194Z" fill="url(#paint1_linear)"/>
<path d="M240.732 106.557V98.1933H239.286V106.557H240.732ZM247.433 104.085L243.809 98.1933H242.315V106.557H243.761V100.647L247.373 106.557H248.879V98.1933H247.433V104.085ZM254.787 106.557V103.071H256.053C257.907 103.071 258.897 102.207 258.897 100.605C258.897 99.0033 257.919 98.1933 256.053 98.1933H253.353V106.557H254.787ZM254.787 99.4833H255.909C256.935 99.4833 257.457 99.8073 257.457 100.623C257.457 101.463 256.887 101.781 255.909 101.781H254.787V99.4833ZM263.988 102.861C264.978 102.537 265.524 101.781 265.524 100.599C265.524 99.1293 264.69 98.1933 262.68 98.1933H259.98V106.557H261.426V103.053H262.014C262.128 103.053 262.278 103.053 262.446 103.047L264.516 106.557H266.202L263.988 102.861ZM261.426 99.4833H262.536C263.388 99.4833 264.084 99.7053 264.084 100.617C264.084 101.535 263.4 101.781 262.536 101.781H261.426V99.4833ZM268.65 106.557V98.1933H267.204V106.557H268.65ZM276.065 99.3873V98.1933H269.993V99.4833H274.259L269.711 105.363V106.557H276.215V105.267H271.511L276.065 99.3873ZM282.802 106.557V105.267H278.692V102.915H282.502V101.625H278.692V99.4833H282.802V98.1933H277.246V106.557H282.802ZM286.813 106.707C288.517 106.707 289.675 105.651 289.675 104.175C289.675 102.843 288.787 102.189 287.299 101.631C286.111 101.181 285.613 100.863 285.613 100.257C285.613 99.6993 286.093 99.2973 286.729 99.2973C287.317 99.2973 287.791 99.6333 288.133 100.239L289.285 99.5373C288.763 98.5293 287.887 98.0133 286.777 98.0133C285.211 98.0133 284.173 98.9613 284.173 100.287C284.173 101.553 284.977 102.237 286.543 102.837C287.635 103.257 288.241 103.569 288.241 104.271C288.241 104.979 287.641 105.423 286.855 105.423C285.871 105.423 285.199 104.883 285.019 103.845L283.615 104.193C283.861 105.717 285.043 106.707 286.813 106.707ZM237.327 122.557L234.009 114.193H232.917L229.587 122.557H231.165L231.795 120.847H235.131L235.755 122.557H237.327ZM233.469 116.317L234.657 119.557H232.275L233.469 116.317ZM244.588 120.349L242.926 114.673H241.504L239.842 120.349L238.066 114.193H236.554L239.05 122.557H240.46L242.218 116.785L243.97 122.557H245.38L247.876 114.193H246.364L244.588 120.349ZM254.845 122.557L251.527 114.193H250.435L247.105 122.557H248.683L249.313 120.847H252.649L253.273 122.557H254.845ZM250.987 116.317L252.175 119.557H249.793L250.987 116.317ZM259.714 118.861C260.704 118.537 261.25 117.781 261.25 116.599C261.25 115.129 260.416 114.193 258.406 114.193H255.706V122.557H257.152V119.053H257.74C257.854 119.053 258.004 119.053 258.172 119.047L260.242 122.557H261.928L259.714 118.861ZM257.152 115.483H258.262C259.114 115.483 259.81 115.705 259.81 116.617C259.81 117.535 259.126 117.781 258.262 117.781H257.152V115.483ZM265.33 122.557C268.15 122.557 269.692 121.099 269.692 118.441C269.692 115.729 268.108 114.193 265.342 114.193H262.93V122.557H265.33ZM264.376 115.519H265.318C267.142 115.519 268.24 116.269 268.24 118.387C268.24 120.547 267.124 121.231 265.186 121.231H264.376V115.519ZM276.484 122.557V121.267H272.374V118.915H276.184V117.625H272.374V115.483H276.484V114.193H270.928V122.557H276.484ZM280.177 122.557C282.997 122.557 284.539 121.099 284.539 118.441C284.539 115.729 282.955 114.193 280.189 114.193H277.777V122.557H280.177ZM279.223 115.519H280.165C281.989 115.519 283.087 116.269 283.087 118.387C283.087 120.547 281.971 121.231 280.033 121.231H279.223V115.519ZM290.132 122.557V114.193H288.686V122.557H290.132ZM296.833 120.085L293.209 114.193H291.715V122.557H293.161V116.647L296.773 122.557H298.279V114.193H296.833V120.085ZM253.348 137.267C255.268 135.881 256.516 134.531 256.516 132.743C256.516 131.171 255.466 130.103 253.906 130.103C252.238 130.103 251.056 131.315 251.056 133.025L252.418 133.133C252.472 132.035 252.982 131.447 253.87 131.447C254.668 131.447 255.136 131.945 255.136 132.791C255.136 134.315 253.294 135.995 251.116 137.405V138.557H256.846V137.267H253.348ZM260.821 138.665C263.305 138.665 263.683 136.235 263.683 134.339C263.683 132.527 263.329 130.067 260.803 130.067C258.247 130.067 257.941 132.581 257.941 134.333C257.941 136.151 258.271 138.665 260.821 138.665ZM260.821 137.333C259.603 137.333 259.357 135.941 259.357 134.381C259.357 132.767 259.597 131.399 260.803 131.399C261.973 131.399 262.267 132.695 262.267 134.387C262.267 136.019 261.979 137.333 260.821 137.333ZM267.07 137.267C268.99 135.881 270.238 134.531 270.238 132.743C270.238 131.171 269.188 130.103 267.628 130.103C265.96 130.103 264.778 131.315 264.778 133.025L266.14 133.133C266.194 132.035 266.704 131.447 267.592 131.447C268.39 131.447 268.858 131.945 268.858 132.791C268.858 134.315 267.016 135.995 264.838 137.405V138.557H270.568V137.267H267.07ZM274.549 130.715C274.549 131.303 274.267 131.501 273.727 131.501H272.401V132.659H274.549V138.557H275.941V130.193H274.549V130.715Z" fill="#E2D6FF"/>
<path d="M243.173 3.81165L243.642 20.78C243.648 20.9923 243.818 21.163 244.031 21.1688L260.999 21.6374L244.031 22.1059C243.818 22.1118 243.648 22.2825 243.642 22.4947L243.173 39.4631L242.705 22.4947C242.699 22.2825 242.528 22.1118 242.316 22.1059L225.348 21.6374L242.316 21.1688C242.528 21.163 242.699 20.9923 242.705 20.78L243.173 3.81165Z" fill="url(#paint2_radial)"/>
</g>
<g filter="url(#filter2_d)">
<rect opacity="0.65" x="250.195" y="186" width="113.413" height="113.413" rx="8" transform="rotate(45 250.195 186)" fill="#7359CB"/>
<rect x="250.196" y="191.911" width="105.053" height="105.053" rx="6" transform="rotate(45 250.196 191.911)" fill="#403074"/>
<path d="M212.756 255.779C212.756 252.919 210.949 251.424 207.608 250.163C205.008 249.188 204.137 248.512 204.137 247.42C204.137 246.393 205.034 245.652 206.204 245.652C207.361 245.652 208.31 246.354 209.025 247.602L211.885 245.86C210.936 243.988 209.428 242.883 207.53 242.558V239.997H204.943V242.571C202.239 243.052 200.523 244.95 200.523 247.485C200.523 250.254 202.187 251.827 205.736 253.192C208.076 254.089 209.181 254.726 209.181 256C209.181 257.352 207.998 258.171 206.49 258.171C204.514 258.171 203.162 257.066 202.785 254.908L199.275 255.779C199.743 258.743 201.823 260.797 204.969 261.265V264.06H207.556V261.291C210.728 260.862 212.756 258.691 212.756 255.779ZM221.874 248.46C221.12 248.46 220.249 248.564 219.339 249.071L219.911 246.094H227.321V242.883H217.064L215.283 252.464L218.507 253.27C219.027 252.425 219.937 251.697 221.406 251.697C223.603 251.697 224.448 253.127 224.448 254.648C224.448 256.234 223.551 257.963 221.354 257.963C219.261 257.963 218.273 256.442 218.143 255.142L214.75 255.727C215.179 258.821 217.909 261.278 221.406 261.278C225.345 261.278 228.114 258.093 228.114 254.648C228.114 251.359 225.592 248.46 221.874 248.46ZM232.487 264.827L235.737 256.897H231.863L230.225 264.827H232.487ZM243.878 261.252C249.598 261.252 250.261 255.727 250.261 251.853C250.261 248.187 249.663 242.584 243.865 242.584C238.041 242.584 237.469 248.213 237.469 251.84C237.469 255.649 238.08 261.252 243.878 261.252ZM243.878 257.937C241.408 257.937 241.005 255.116 241.005 251.957C241.005 248.668 241.408 245.925 243.865 245.925C246.27 245.925 246.725 248.603 246.725 251.957C246.725 255.194 246.27 257.937 243.878 257.937ZM252.788 246.094H261.758L254.205 261.005H258.066L265.879 245.392V242.883H252.788V246.094ZM275.14 248.46C274.386 248.46 273.515 248.564 272.605 249.071L273.177 246.094H280.587V242.883H270.33L268.549 252.464L271.773 253.27C272.293 252.425 273.203 251.697 274.672 251.697C276.869 251.697 277.714 253.127 277.714 254.648C277.714 256.234 276.817 257.963 274.62 257.963C272.527 257.963 271.539 256.442 271.409 255.142L268.016 255.727C268.445 258.821 271.175 261.278 274.672 261.278C278.611 261.278 281.38 258.093 281.38 254.648C281.38 251.359 278.858 248.46 275.14 248.46ZM291.785 260.03V254.687H297.128V252.113H291.785V246.77H289.185V252.113H283.842V254.687H289.185V260.03H291.785Z" fill="url(#paint3_linear)"/>
<path d="M215.942 281.255V273.588H214.616V281.255H215.942ZM222.076 278.989L218.754 273.588H217.384V281.255H218.71V275.837L222.021 281.255H223.401V273.588H222.076V278.989ZM229.697 281.255C232.282 281.255 233.695 279.918 233.695 277.482C233.695 274.996 232.243 273.588 229.708 273.588H227.497V281.255H229.697ZM228.822 274.803H229.686C231.358 274.803 232.364 275.491 232.364 277.432C232.364 279.412 231.341 280.039 229.565 280.039H228.822V274.803ZM238.104 281.42C240.282 281.42 241.762 279.83 241.762 277.427C241.762 275.012 240.293 273.423 238.104 273.423C235.937 273.423 234.463 275.018 234.463 277.427C234.463 279.819 235.937 281.42 238.104 281.42ZM238.104 280.149C236.691 280.149 235.783 279.115 235.783 277.427C235.783 275.722 236.691 274.688 238.104 274.688C239.534 274.688 240.431 275.738 240.431 277.427C240.431 279.099 239.534 280.149 238.104 280.149ZM247.575 278.989L244.253 273.588H242.884V281.255H244.209V275.837L247.52 281.255H248.901V273.588H247.575V278.989ZM256.77 281.255L253.729 273.588H252.728L249.675 281.255H251.122L251.699 279.687H254.757L255.329 281.255H256.77ZM253.234 275.535L254.323 278.505H252.139L253.234 275.535ZM259.59 281.255V274.77H262.004V273.588H255.833V274.77H258.253V281.255H259.59ZM264.137 281.255V273.588H262.811V281.255H264.137ZM268.907 281.42C271.085 281.42 272.564 279.83 272.564 277.427C272.564 275.012 271.096 273.423 268.907 273.423C266.74 273.423 265.266 275.018 265.266 277.427C265.266 279.819 266.74 281.42 268.907 281.42ZM268.907 280.149C267.493 280.149 266.586 279.115 266.586 277.427C266.586 275.722 267.493 274.688 268.907 274.688C270.337 274.688 271.233 275.738 271.233 277.427C271.233 279.099 270.337 280.149 268.907 280.149ZM278.378 278.989L275.056 273.588H273.686V281.255H275.012V275.837L278.323 281.255H279.703V273.588H278.378V278.989ZM283.63 281.392C285.192 281.392 286.253 280.424 286.253 279.071C286.253 277.85 285.439 277.251 284.075 276.739C282.986 276.327 282.53 276.035 282.53 275.48C282.53 274.968 282.97 274.6 283.553 274.6C284.092 274.6 284.526 274.908 284.84 275.463L285.896 274.82C285.417 273.896 284.614 273.423 283.597 273.423C282.161 273.423 281.21 274.292 281.21 275.507C281.21 276.668 281.947 277.295 283.382 277.845C284.383 278.23 284.939 278.516 284.939 279.159C284.939 279.808 284.389 280.215 283.668 280.215C282.766 280.215 282.15 279.72 281.985 278.769L280.698 279.088C280.924 280.485 282.007 281.392 283.63 281.392ZM216.882 295.255V288.77H219.297V287.588H213.126V288.77H215.546V295.255H216.882ZM223.088 295.42C225.266 295.42 226.745 293.83 226.745 291.427C226.745 289.012 225.277 287.423 223.088 287.423C220.921 287.423 219.447 289.018 219.447 291.427C219.447 293.819 220.921 295.42 223.088 295.42ZM223.088 294.149C221.674 294.149 220.767 293.115 220.767 291.427C220.767 289.722 221.674 288.688 223.088 288.688C224.518 288.688 225.414 289.738 225.414 291.427C225.414 293.099 224.518 294.149 223.088 294.149ZM233.855 295.42C235.467 295.42 236.688 294.556 237.199 293.154L235.956 292.703C235.615 293.616 234.873 294.149 233.855 294.149C232.442 294.149 231.534 293.115 231.534 291.416C231.534 289.727 232.442 288.688 233.855 288.688C234.873 288.688 235.615 289.221 235.956 290.134L237.199 289.689C236.688 288.281 235.467 287.423 233.855 287.423C231.688 287.423 230.214 289.018 230.214 291.416C230.214 293.819 231.688 295.42 233.855 295.42ZM239.541 295.255V291.922H242.951V295.255H244.271V287.588H242.951V290.706H239.541V287.588H238.216V295.255H239.541ZM252.146 295.255L249.104 287.588H248.103L245.051 295.255H246.497L247.075 293.687H250.133L250.705 295.255H252.146ZM248.609 289.535L249.698 292.505H247.515L248.609 289.535ZM256.6 291.867C257.508 291.57 258.008 290.877 258.008 289.793C258.008 288.446 257.244 287.588 255.401 287.588H252.926V295.255H254.252V292.043H254.791C254.895 292.043 255.033 292.043 255.187 292.037L257.084 295.255H258.63L256.6 291.867ZM254.252 288.77H255.269C256.05 288.77 256.688 288.974 256.688 289.81C256.688 290.651 256.061 290.877 255.269 290.877H254.252V288.77ZM260.865 295.255V287.588H259.54V295.255H260.865ZM265.421 295.255V288.77H267.836V287.588H261.665V288.77H264.085V295.255H265.421ZM271.932 295.255V292.268L274.605 287.588H273.103L271.244 290.948L269.424 287.588H267.917L270.612 292.268V295.255H271.932ZM279.296 295.255V287.588H277.971V295.255H279.296ZM285.431 292.989L282.109 287.588H280.739V295.255H282.065V289.837L285.376 295.255H286.756V287.588H285.431V292.989ZM240.238 308.072C241.998 306.802 243.142 305.564 243.142 303.925C243.142 302.484 242.18 301.505 240.75 301.505C239.221 301.505 238.137 302.616 238.137 304.184L239.386 304.283C239.435 303.276 239.903 302.737 240.717 302.737C241.448 302.737 241.877 303.194 241.877 303.969C241.877 305.366 240.189 306.906 238.192 308.199V309.255H243.445V308.072H240.238ZM247.08 309.354C249.357 309.354 249.704 307.126 249.704 305.388C249.704 303.727 249.379 301.472 247.064 301.472C244.721 301.472 244.44 303.777 244.44 305.383C244.44 307.049 244.743 309.354 247.08 309.354ZM247.08 308.133C245.964 308.133 245.738 306.857 245.738 305.427C245.738 303.947 245.958 302.693 247.064 302.693C248.136 302.693 248.406 303.881 248.406 305.432C248.406 306.928 248.142 308.133 247.08 308.133ZM252.8 308.072C254.56 306.802 255.704 305.564 255.704 303.925C255.704 302.484 254.742 301.505 253.312 301.505C251.783 301.505 250.699 302.616 250.699 304.184L251.948 304.283C251.997 303.276 252.465 302.737 253.279 302.737C254.01 302.737 254.439 303.194 254.439 303.969C254.439 305.366 252.751 306.906 250.754 308.199V309.255H256.007V308.072H252.8ZM259.647 302.066C259.647 302.605 259.389 302.787 258.894 302.787H257.678V303.848H259.647V309.255H260.923V301.588H259.647V302.066Z" fill="#E2D6FF"/>
<path d="M286.928 211.638L287.408 223.738C287.417 223.946 287.584 224.113 287.792 224.122L299.892 224.602L287.792 225.082C287.584 225.091 287.417 225.258 287.408 225.466L286.928 237.566L286.448 225.466C286.439 225.258 286.272 225.091 286.064 225.082L273.964 224.602L286.064 224.122C286.272 224.113 286.439 223.946 286.448 223.738L286.928 211.638Z" fill="#FF9142"/>
</g>
<g filter="url(#filter3_d)">
<rect opacity="0.65" x="80.8984" y="192" width="93.1946" height="93.1946" rx="8" transform="rotate(45 80.8984 192)" fill="#7359CB"/>
<rect x="80.8994" y="198.135" width="84.5181" height="84.5181" rx="6" transform="rotate(45 80.8994 198.135)" fill="#403074"/>
<path d="M61.6734 234.187C60.8034 234.187 59.7984 234.307 58.7484 234.892L59.4084 231.457H67.9584V227.752H56.1234L54.0684 238.807L57.7884 239.737C58.3884 238.762 59.4384 237.922 61.1334 237.922C63.6684 237.922 64.6434 239.572 64.6434 241.327C64.6434 243.157 63.6084 245.152 61.0734 245.152C58.6584 245.152 57.5184 243.397 57.3684 241.897L53.4534 242.572C53.9484 246.142 57.0984 248.977 61.1334 248.977C65.6784 248.977 68.8734 245.302 68.8734 241.327C68.8734 237.532 65.9634 234.187 61.6734 234.187ZM79.0657 248.947C85.6657 248.947 86.4307 242.572 86.4307 238.102C86.4307 233.872 85.7407 227.407 79.0507 227.407C72.3307 227.407 71.6707 233.902 71.6707 238.087C71.6707 242.482 72.3757 248.947 79.0657 248.947ZM79.0657 245.122C76.2157 245.122 75.7507 241.867 75.7507 238.222C75.7507 234.427 76.2157 231.262 79.0507 231.262C81.8257 231.262 82.3507 234.352 82.3507 238.222C82.3507 241.957 81.8257 245.122 79.0657 245.122ZM98.603 247.537V241.372H104.768V238.402H98.603V232.237H95.603V238.402H89.438V241.372H95.603V247.537H98.603Z" fill="url(#paint4_linear)"/>
<path d="M52.7635 266.083L51.1015 260.407H49.6795L48.0175 266.083L46.2415 259.927H44.7295L47.2255 268.291H48.6355L50.3935 262.519L52.1455 268.291H53.5555L56.0515 259.927H54.5395L52.7635 266.083ZM60.2632 268.471C62.6392 268.471 64.2532 266.737 64.2532 264.115C64.2532 261.481 62.6512 259.747 60.2632 259.747C57.8992 259.747 56.2912 261.487 56.2912 264.115C56.2912 266.725 57.8992 268.471 60.2632 268.471ZM60.2632 267.085C58.7212 267.085 57.7312 265.957 57.7312 264.115C57.7312 262.255 58.7212 261.127 60.2632 261.127C61.8232 261.127 62.8012 262.273 62.8012 264.115C62.8012 265.939 61.8232 267.085 60.2632 267.085ZM69.4943 264.595C70.4843 264.271 71.0303 263.515 71.0303 262.333C71.0303 260.863 70.1963 259.927 68.1863 259.927H65.4863V268.291H66.9323V264.787H67.5203C67.6343 264.787 67.7843 264.787 67.9523 264.781L70.0223 268.291H71.7083L69.4943 264.595ZM66.9323 261.217H68.0423C68.8943 261.217 69.5903 261.439 69.5903 262.351C69.5903 263.269 68.9063 263.515 68.0423 263.515H66.9323V261.217ZM79.6105 268.291L76.3885 263.173L79.5805 259.927H77.6425L74.1565 263.599V259.927H72.7105V268.291H74.1565V265.441L75.3505 264.229L77.9005 268.291H79.6105ZM82.9223 268.441C84.6263 268.441 85.7843 267.385 85.7843 265.909C85.7843 264.577 84.8963 263.923 83.4083 263.365C82.2203 262.915 81.7223 262.597 81.7223 261.991C81.7223 261.433 82.2023 261.031 82.8383 261.031C83.4263 261.031 83.9003 261.367 84.2423 261.973L85.3943 261.271C84.8723 260.263 83.9963 259.747 82.8863 259.747C81.3203 259.747 80.2823 260.695 80.2823 262.021C80.2823 263.287 81.0863 263.971 82.6523 264.571C83.7443 264.991 84.3503 265.303 84.3503 266.005C84.3503 266.713 83.7503 267.157 82.9643 267.157C81.9803 267.157 81.3083 266.617 81.1283 265.579L79.7243 265.927C79.9703 267.451 81.1523 268.441 82.9223 268.441ZM88.4292 268.291V264.655H92.1492V268.291H93.5892V259.927H92.1492V263.329H88.4292V259.927H86.9832V268.291H88.4292ZM98.7984 268.471C101.174 268.471 102.788 266.737 102.788 264.115C102.788 261.481 101.186 259.747 98.7984 259.747C96.4344 259.747 94.8264 261.487 94.8264 264.115C94.8264 266.725 96.4344 268.471 98.7984 268.471ZM98.7984 267.085C97.2564 267.085 96.2664 265.957 96.2664 264.115C96.2664 262.255 97.2564 261.127 98.7984 261.127C100.358 261.127 101.336 262.273 101.336 264.115C101.336 265.939 100.358 267.085 98.7984 267.085ZM105.443 268.291V264.805H106.709C108.563 264.805 109.553 263.941 109.553 262.339C109.553 260.737 108.575 259.927 106.709 259.927H104.009V268.291H105.443ZM105.443 261.217H106.565C107.591 261.217 108.113 261.541 108.113 262.357C108.113 263.197 107.543 263.515 106.565 263.515H105.443V261.217ZM113.19 268.441C114.894 268.441 116.052 267.385 116.052 265.909C116.052 264.577 115.164 263.923 113.676 263.365C112.488 262.915 111.99 262.597 111.99 261.991C111.99 261.433 112.47 261.031 113.106 261.031C113.694 261.031 114.168 261.367 114.51 261.973L115.662 261.271C115.14 260.263 114.264 259.747 113.154 259.747C111.588 259.747 110.55 260.695 110.55 262.021C110.55 263.287 111.354 263.971 112.92 264.571C114.012 264.991 114.618 265.303 114.618 266.005C114.618 266.713 114.018 267.157 113.232 267.157C112.248 267.157 111.576 266.617 111.396 265.579L109.992 265.927C110.238 267.451 111.42 268.441 113.19 268.441ZM52.2566 284.471C54.6326 284.471 56.2466 282.737 56.2466 280.115C56.2466 277.481 54.6446 275.747 52.2566 275.747C49.8926 275.747 48.2846 277.487 48.2846 280.115C48.2846 282.725 49.8926 284.471 52.2566 284.471ZM52.2566 283.085C50.7146 283.085 49.7246 281.957 49.7246 280.115C49.7246 278.255 50.7146 277.127 52.2566 277.127C53.8166 277.127 54.7946 278.273 54.7946 280.115C54.7946 281.939 53.8166 283.085 52.2566 283.085ZM61.4877 280.595C62.4777 280.271 63.0237 279.515 63.0237 278.333C63.0237 276.863 62.1897 275.927 60.1797 275.927H57.4797V284.291H58.9257V280.787H59.5137C59.6277 280.787 59.7777 280.787 59.9457 280.781L62.0157 284.291H63.7017L61.4877 280.595ZM58.9257 277.217H60.0357C60.8877 277.217 61.5837 277.439 61.5837 278.351C61.5837 279.269 60.8997 279.515 60.0357 279.515H58.9257V277.217ZM70.3458 281.075C70.1478 282.677 68.9778 283.085 68.0058 283.085C66.4638 283.085 65.4738 281.957 65.4738 280.103C65.4738 278.261 66.4638 277.127 68.0058 277.127C69.1158 277.127 69.9258 277.709 70.2978 278.705L71.6538 278.219C71.0958 276.683 69.7638 275.747 68.0058 275.747C65.6418 275.747 64.0338 277.487 64.0338 280.103C64.0338 282.725 65.6418 284.471 67.9158 284.471C68.9058 284.471 69.7578 284.111 70.2558 283.373L70.3818 284.291H71.6538V279.785H68.3118V281.075H70.3458ZM80.0263 284.291L76.7083 275.927H75.6163L72.2863 284.291H73.8643L74.4943 282.581H77.8303L78.4543 284.291H80.0263ZM76.1683 278.051L77.3563 281.291H74.9743L76.1683 278.051ZM86.0047 281.819L82.3807 275.927H80.8867V284.291H82.3327V278.381L85.9447 284.291H87.4507V275.927H86.0047V281.819ZM90.471 284.291V275.927H89.025V284.291H90.471ZM97.8859 277.121V275.927H91.8139V277.217H96.0799L91.5319 283.097V284.291H98.0359V283.001H93.3319L97.8859 277.121ZM104.623 284.291V283.001H100.513V280.649H104.323V279.359H100.513V277.217H104.623V275.927H99.0672V284.291H104.623ZM108.316 284.291C111.136 284.291 112.678 282.833 112.678 280.175C112.678 277.463 111.094 275.927 108.328 275.927H105.916V284.291H108.316ZM107.362 277.253H108.304C110.128 277.253 111.226 278.003 111.226 280.121C111.226 282.281 110.11 282.965 108.172 282.965H107.362V277.253Z" fill="#E2D6FF"/>
<path d="M60.372 207.662L60.6461 214.567C60.6544 214.775 60.8215 214.943 61.0299 214.951L67.9344 215.225L61.0299 215.499C60.8215 215.507 60.6544 215.674 60.6461 215.883L60.372 222.787L60.0979 215.883C60.0896 215.674 59.9225 215.507 59.7141 215.499L52.8096 215.225L59.7141 214.951C59.9225 214.943 60.0896 214.775 60.0979 214.567L60.372 207.662Z" fill="#78FF96"/>
</g>
<g filter="url(#filter4_d)">
<rect opacity="0.65" x="162.147" y="106" width="99.2038" height="99.2038" rx="8" transform="rotate(45 162.147 106)" fill="#7359CB"/>
<rect x="162.148" y="111.624" width="91.2501" height="91.2501" rx="6" transform="rotate(45 162.148 111.624)" fill="#403074"/>
<path d="M133.114 170.191C137.569 167.461 140.494 163.726 140.494 159.511C140.494 155.431 137.734 152.776 133.864 152.776C129.124 152.776 126.559 156.721 126.559 160.441L130.489 160.756C130.594 158.836 131.299 156.646 133.759 156.646C135.679 156.646 136.519 157.951 136.519 159.631C136.519 164.326 129.919 168.661 126.769 170.926V173.911H141.319V170.191H133.114ZM151.808 174.226C155.948 174.226 159.698 172.051 159.698 167.656C159.698 165.511 158.813 163.681 156.893 162.541C158.033 161.686 158.693 160.486 158.693 158.776C158.693 154.996 155.498 152.686 151.823 152.686C148.208 152.686 144.893 154.951 144.893 158.746C144.893 160.471 145.598 161.686 146.723 162.541C144.803 163.681 143.903 165.496 143.903 167.656C143.903 172.051 147.668 174.226 151.808 174.226ZM151.823 161.416C150.083 161.416 148.898 160.501 148.898 159.016C148.898 157.471 150.053 156.511 151.823 156.511C153.638 156.511 154.733 157.516 154.733 159.046C154.733 160.501 153.548 161.416 151.823 161.416ZM151.808 170.431C149.573 170.431 147.908 169.351 147.908 167.266C147.908 165.226 149.528 164.131 151.808 164.131C154.088 164.131 155.708 165.226 155.708 167.266C155.708 169.351 154.058 170.431 151.808 170.431ZM169.605 174.196C176.205 174.196 176.97 167.821 176.97 163.351C176.97 159.121 176.28 152.656 169.59 152.656C162.87 152.656 162.21 159.151 162.21 163.336C162.21 167.731 162.915 174.196 169.605 174.196ZM169.605 170.371C166.755 170.371 166.29 167.116 166.29 163.471C166.29 159.676 166.755 156.511 169.59 156.511C172.365 156.511 172.89 159.601 172.89 163.471C172.89 167.206 172.365 170.371 169.605 170.371ZM189.142 172.786V166.621H195.307V163.651H189.142V157.486H186.142V163.651H179.977V166.621H186.142V172.786H189.142Z" fill="url(#paint5_linear)"/>
<path d="M135.363 194.337V190.851H136.629C138.483 190.851 139.473 189.987 139.473 188.385C139.473 186.783 138.495 185.973 136.629 185.973H133.929V194.337H135.363ZM135.363 187.263H136.485C137.511 187.263 138.033 187.587 138.033 188.403C138.033 189.243 137.463 189.561 136.485 189.561H135.363V187.263ZM144.564 190.641C145.554 190.317 146.1 189.561 146.1 188.379C146.1 186.909 145.266 185.973 143.256 185.973H140.556V194.337H142.002V190.833H142.59C142.704 190.833 142.854 190.833 143.022 190.827L145.092 194.337H146.778L144.564 190.641ZM142.002 187.263H143.112C143.964 187.263 144.66 187.485 144.66 188.397C144.66 189.315 143.976 189.561 143.112 189.561H142.002V187.263ZM151.082 194.517C153.458 194.517 155.072 192.783 155.072 190.161C155.072 187.527 153.47 185.793 151.082 185.793C148.718 185.793 147.11 187.533 147.11 190.161C147.11 192.771 148.718 194.517 151.082 194.517ZM151.082 193.131C149.54 193.131 148.55 192.003 148.55 190.161C148.55 188.301 149.54 187.173 151.082 187.173C152.642 187.173 153.62 188.319 153.62 190.161C153.62 191.985 152.642 193.131 151.082 193.131ZM158.432 194.517C160.166 194.517 161.24 193.353 161.24 191.421V185.973H156.614V187.263H159.788V191.343C159.788 192.495 159.428 193.179 158.432 193.179C157.568 193.179 157.106 192.687 157.034 191.589L155.612 191.739C155.726 193.479 156.812 194.517 158.432 194.517ZM168.3 194.337V193.047H164.19V190.695H168V189.405H164.19V187.263H168.3V185.973H162.744V194.337H168.3ZM173.13 194.517C174.888 194.517 176.22 193.575 176.778 192.045L175.422 191.553C175.05 192.549 174.24 193.131 173.13 193.131C171.588 193.131 170.598 192.003 170.598 190.149C170.598 188.307 171.588 187.173 173.13 187.173C174.24 187.173 175.05 187.755 175.422 188.751L176.778 188.265C176.22 186.729 174.888 185.793 173.13 185.793C170.766 185.793 169.158 187.533 169.158 190.149C169.158 192.771 170.766 194.517 173.13 194.517ZM181.093 194.337V187.263H183.727V185.973H176.995V187.263H179.635V194.337H181.093ZM187.076 194.487C188.78 194.487 189.938 193.431 189.938 191.955C189.938 190.623 189.05 189.969 187.562 189.411C186.374 188.961 185.876 188.643 185.876 188.037C185.876 187.479 186.356 187.077 186.992 187.077C187.58 187.077 188.054 187.413 188.396 188.019L189.548 187.317C189.026 186.309 188.15 185.793 187.04 185.793C185.474 185.793 184.436 186.741 184.436 188.067C184.436 189.333 185.24 190.017 186.806 190.617C187.898 191.037 188.504 191.349 188.504 192.051C188.504 192.759 187.904 193.203 187.118 193.203C186.134 193.203 185.462 192.663 185.282 191.625L183.878 191.973C184.124 193.497 185.306 194.487 187.076 194.487ZM151.067 210.337C152.777 210.337 153.791 209.431 153.791 207.901C153.791 206.863 153.335 206.155 152.405 205.831C152.999 205.495 153.347 204.865 153.347 204.079C153.347 202.765 152.357 201.973 150.707 201.973H147.821V210.337H151.067ZM149.267 203.299H150.707C151.469 203.299 151.907 203.665 151.907 204.301C151.907 204.967 151.481 205.375 150.797 205.375H149.267V203.299ZM149.267 206.665H151.073C151.883 206.665 152.345 207.091 152.345 207.841C152.345 208.621 151.889 209.011 150.953 209.011H149.267V206.665ZM158.018 210.517C160.106 210.517 161.204 209.419 161.204 207.253V201.973H159.758V207.151C159.758 208.483 159.35 209.185 158.018 209.185C156.68 209.185 156.284 208.501 156.284 207.151V201.973H154.838V207.313C154.838 209.443 155.924 210.517 158.018 210.517ZM164.138 210.337V201.973H162.692V210.337H164.138ZM170.76 210.337V209.047H167.166V201.973H165.72V210.337H170.76ZM173.634 210.337V203.263H176.268V201.973H169.536V203.263H172.176V210.337H173.634Z" fill="#E2D6FF"/>
<path d="M189.933 209.098L190.248 217.042C190.256 217.25 190.424 217.418 190.632 217.426L198.576 217.741L190.632 218.057C190.424 218.065 190.256 218.232 190.248 218.44L189.933 226.384L189.617 218.44C189.609 218.232 189.442 218.065 189.234 218.057L181.29 217.741L189.234 217.426C189.442 217.418 189.609 217.25 189.617 217.042L189.933 209.098Z" fill="#FAFE36"/>
</g>
<g filter="url(#filter5_d)">
<rect x="164.009" y="24.5355" width="33.196" height="33.196" rx="5.5" transform="rotate(45 164.009 24.5355)" stroke="#403074" stroke-width="5" shape-rendering="crispEdges"/>
</g>
<g filter="url(#filter6_d)">
<rect x="307.009" y="163" width="38.196" height="38.196" rx="6" transform="rotate(45 307.009 163)" fill="#403074"/>
</g>
<defs>
<filter id="filter0_d" x="0" y="16" width="156.416" height="156.416" filterUnits="userSpaceOnUse" color-interpolation-filters="sRGB">
<feFlood flood-opacity="0" result="BackgroundImageFix"/>
<feColorMatrix in="SourceAlpha" type="matrix" values="0 0 0 0 0 0 0 0 0 0 0 0 0 0 0 0 0 0 127 0" result="hardAlpha"/>
<feOffset dy="4"/>
<feGaussianBlur stdDeviation="2"/>
<feComposite in2="hardAlpha" operator="out"/>
<feColorMatrix type="matrix" values="0 0 0 0 0 0 0 0 0 0 0 0 0 0 0 0 0 0 0.25 0"/>
<feBlend mode="normal" in2="BackgroundImageFix" result="effect1_dropShadow"/>
<feBlend mode="normal" in="SourceGraphic" in2="effect1_dropShadow" result="shape"/>
</filter>
<filter id="filter1_d" x="170" y="0" width="188.479" height="188.479" filterUnits="userSpaceOnUse" color-interpolation-filters="sRGB">
<feFlood flood-opacity="0" result="BackgroundImageFix"/>
<feColorMatrix in="SourceAlpha" type="matrix" values="0 0 0 0 0 0 0 0 0 0 0 0 0 0 0 0 0 0 127 0" result="hardAlpha"/>
<feOffset dy="4"/>
<feGaussianBlur stdDeviation="2"/>
<feComposite in2="hardAlpha" operator="out"/>
<feColorMatrix type="matrix" values="0 0 0 0 0 0 0 0 0 0 0 0 0 0 0 0 0 0 0.25 0"/>
<feBlend mode="normal" in2="BackgroundImageFix" result="effect1_dropShadow"/>
<feBlend mode="normal" in="SourceGraphic" in2="effect1_dropShadow" result="shape"/>
</filter>
<filter id="filter2_d" x="166" y="186" width="168.391" height="168.391" filterUnits="userSpaceOnUse" color-interpolation-filters="sRGB">
<feFlood flood-opacity="0" result="BackgroundImageFix"/>
<feColorMatrix in="SourceAlpha" type="matrix" values="0 0 0 0 0 0 0 0 0 0 0 0 0 0 0 0 0 0 127 0" result="hardAlpha"/>
<feOffset dy="4"/>
<feGaussianBlur stdDeviation="2"/>
<feComposite in2="hardAlpha" operator="out"/>
<feColorMatrix type="matrix" values="0 0 0 0 0 0 0 0 0 0 0 0 0 0 0 0 0 0 0.25 0"/>
<feBlend mode="normal" in2="BackgroundImageFix" result="effect1_dropShadow"/>
<feBlend mode="normal" in="SourceGraphic" in2="effect1_dropShadow" result="shape"/>
</filter>
<filter id="filter3_d" x="11" y="192" width="139.797" height="139.797" filterUnits="userSpaceOnUse" color-interpolation-filters="sRGB">
<feFlood flood-opacity="0" result="BackgroundImageFix"/>
<feColorMatrix in="SourceAlpha" type="matrix" values="0 0 0 0 0 0 0 0 0 0 0 0 0 0 0 0 0 0 127 0" result="hardAlpha"/>
<feOffset dy="4"/>
<feGaussianBlur stdDeviation="2"/>
<feComposite in2="hardAlpha" operator="out"/>
<feColorMatrix type="matrix" values="0 0 0 0 0 0 0 0 0 0 0 0 0 0 0 0 0 0 0.25 0"/>
<feBlend mode="normal" in2="BackgroundImageFix" result="effect1_dropShadow"/>
<feBlend mode="normal" in="SourceGraphic" in2="effect1_dropShadow" result="shape"/>
</filter>
<filter id="filter4_d" x="88" y="106" width="148.295" height="148.295" filterUnits="userSpaceOnUse" color-interpolation-filters="sRGB">
<feFlood flood-opacity="0" result="BackgroundImageFix"/>
<feColorMatrix in="SourceAlpha" type="matrix" values="0 0 0 0 0 0 0 0 0 0 0 0 0 0 0 0 0 0 127 0" result="hardAlpha"/>
<feOffset dy="4"/>
<feGaussianBlur stdDeviation="2"/>
<feComposite in2="hardAlpha" operator="out"/>
<feColorMatrix type="matrix" values="0 0 0 0 0 0 0 0 0 0 0 0 0 0 0 0 0 0 0.25 0"/>
<feBlend mode="normal" in2="BackgroundImageFix" result="effect1_dropShadow"/>
<feBlend mode="normal" in="SourceGraphic" in2="effect1_dropShadow" result="shape"/>
</filter>
<filter id="filter5_d" x="133" y="21" width="62.0176" height="62.0173" filterUnits="userSpaceOnUse" color-interpolation-filters="sRGB">
<feFlood flood-opacity="0" result="BackgroundImageFix"/>
<feColorMatrix in="SourceAlpha" type="matrix" values="0 0 0 0 0 0 0 0 0 0 0 0 0 0 0 0 0 0 127 0" result="hardAlpha"/>
<feOffset dy="4"/>
<feGaussianBlur stdDeviation="2"/>
<feComposite in2="hardAlpha" operator="out"/>
<feColorMatrix type="matrix" values="0 0 0 0 0 0 0 0 0 0 0 0 0 0 0 0 0 0 0.25 0"/>
<feBlend mode="normal" in2="BackgroundImageFix" result="effect1_dropShadow"/>
<feBlend mode="normal" in="SourceGraphic" in2="effect1_dropShadow" result="shape"/>
</filter>
<filter id="filter6_d" x="276" y="163" width="62.0176" height="62.0173" filterUnits="userSpaceOnUse" color-interpolation-filters="sRGB">
<feFlood flood-opacity="0" result="BackgroundImageFix"/>
<feColorMatrix in="SourceAlpha" type="matrix" values="0 0 0 0 0 0 0 0 0 0 0 0 0 0 0 0 0 0 127 0" result="hardAlpha"/>
<feOffset dy="4"/>
<feGaussianBlur stdDeviation="2"/>
<feComposite in2="hardAlpha" operator="out"/>
<feColorMatrix type="matrix" values="0 0 0 0 0 0 0 0 0 0 0 0 0 0 0 0 0 0 0.25 0"/>
<feBlend mode="normal" in2="BackgroundImageFix" result="effect1_dropShadow"/>
<feBlend mode="normal" in="SourceGraphic" in2="effect1_dropShadow" result="shape"/>
</filter>
<linearGradient id="paint0_linear" x1="50.2891" y1="45.5786" x2="108.405" y2="49.2085" gradientUnits="userSpaceOnUse">
<stop stop-color="#20FFAF"/>
<stop offset="1" stop-color="#78FF96"/>
</linearGradient>
<linearGradient id="paint1_linear" x1="201.813" y1="62.1096" x2="328.612" y2="84.4353" gradientUnits="userSpaceOnUse">
<stop stop-color="#20FFAF"/>
<stop offset="1" stop-color="#78FF96"/>
</linearGradient>
<radialGradient id="paint2_radial" cx="0" cy="0" r="1" gradientUnits="userSpaceOnUse" gradientTransform="translate(243.173 21.6374) rotate(90) scale(17.8257)">
<stop stop-color="white"/>
<stop offset="1" stop-color="white" stop-opacity="0"/>
</radialGradient>
<linearGradient id="paint3_linear" x1="198.521" y1="235.005" x2="304.693" y2="249.091" gradientUnits="userSpaceOnUse">
<stop stop-color="#20FFAF"/>
<stop offset="1" stop-color="#78FF96"/>
</linearGradient>
<linearGradient id="paint4_linear" x1="52.5684" y1="218.662" x2="109.616" y2="222.159" gradientUnits="userSpaceOnUse">
<stop stop-color="#20FFAF"/>
<stop offset="1" stop-color="#78FF96"/>
</linearGradient>
<linearGradient id="paint5_linear" x1="125.179" y1="143.911" x2="201.374" y2="150.169" gradientUnits="userSpaceOnUse">
<stop stop-color="#20FFAF"/>
<stop offset="1" stop-color="#78FF96"/>
</linearGradient>
</defs>
</svg>
