<svg width="89" height="74" viewBox="0 0 89 74" fill="none" xmlns="http://www.w3.org/2000/svg">
<path opacity="0.3" d="M18.148 50.669H15.8114V49.2448H22.0868V50.669H19.7613V57H18.148V50.669ZM25.2804 56.3992C24.9429 56.8776 24.4422 57.1168 23.7783 57.1168C23.3814 57.1168 23.0217 57.0408 22.699 56.8887C22.3801 56.7367 22.1279 56.5216 21.9424 56.2434C21.7607 55.9652 21.6698 55.6463 21.6698 55.2865C21.6698 54.975 21.7347 54.7024 21.8645 54.4687C21.9943 54.2351 22.1742 54.0552 22.4042 53.9291C22.7454 53.7362 23.1812 53.6398 23.7115 53.6398H25.2581V53.5285C25.2581 53.2837 25.1673 53.089 24.9855 52.9444C24.8075 52.7997 24.5534 52.7274 24.2234 52.7274C23.9823 52.7274 23.7505 52.7756 23.5279 52.8721C23.3091 52.9648 23.0829 53.128 22.8492 53.3616L21.7421 52.4326C22.0648 52.0876 22.4524 51.8299 22.9049 51.6593C23.361 51.4849 23.8376 51.3978 24.3346 51.3978C24.8427 51.3978 25.2804 51.4849 25.6475 51.6593C26.0147 51.8299 26.2947 52.0765 26.4876 52.3992C26.6842 52.7181 26.7825 53.0946 26.7825 53.5285V57H25.3805L25.2804 56.3992ZM23.2053 55.2865C23.2053 55.472 23.2776 55.6185 23.4222 55.726C23.5669 55.8336 23.7635 55.8873 24.0119 55.8873C24.2382 55.8873 24.4459 55.8391 24.635 55.7427C24.8242 55.6463 24.9744 55.5128 25.0857 55.3421C25.2006 55.1715 25.2581 54.9805 25.2581 54.7691H23.9341C23.6967 54.7691 23.5187 54.8118 23.4 54.8971C23.2702 54.9861 23.2053 55.1159 23.2053 55.2865ZM31.0256 51.3978C31.4966 51.3978 31.9046 51.522 32.2495 51.7705C32.5944 52.0153 32.8578 52.3547 33.0395 52.7886C33.2212 53.2225 33.3121 53.714 33.3121 54.2629C33.3121 54.8489 33.2101 55.3588 33.0061 55.7928C32.8058 56.223 32.5314 56.5512 32.1827 56.7775C31.8378 57.0037 31.4521 57.1168 31.0256 57.1168C30.714 57.1168 30.4266 57.0482 30.1633 56.911C29.8999 56.7738 29.6848 56.5661 29.5179 56.2879V59.2698H27.9936V51.5146H29.5179V52.2211C29.8406 51.6722 30.3432 51.3978 31.0256 51.3978ZM29.3789 54.2629C29.3789 54.7079 29.4846 55.0621 29.696 55.3255C29.9111 55.5851 30.2041 55.7149 30.575 55.7149C30.9495 55.7149 31.2444 55.5851 31.4595 55.3255C31.6746 55.0658 31.7822 54.7116 31.7822 54.2629C31.7822 53.8104 31.6746 53.4543 31.4595 53.1947C31.2444 52.9314 30.9495 52.7997 30.575 52.7997C30.2041 52.7997 29.9111 52.9314 29.696 53.1947C29.4846 53.4543 29.3789 53.8104 29.3789 54.2629ZM39.5542 57.1168C39.0461 57.1168 38.627 56.974 38.2969 56.6885C37.9705 56.3992 37.8073 55.943 37.8073 55.3199V52.7052H36.8504V51.5146H37.8073V50.3018L39.3539 49.4785V51.5146H40.5222V52.7052H39.3539V54.8915C39.3539 55.2327 39.3984 55.4812 39.4874 55.637C39.5764 55.7891 39.7396 55.8651 39.977 55.8651C40.1105 55.8651 40.2922 55.8354 40.5222 55.7761V56.9444C40.2143 57.0593 39.8917 57.1168 39.5542 57.1168ZM44.0583 57.1168C43.528 57.1168 43.0495 56.9944 42.623 56.7497C42.2002 56.5012 41.8683 56.1599 41.6272 55.726C41.3861 55.2884 41.2656 54.7969 41.2656 54.2517C41.2656 53.7065 41.3842 53.217 41.6216 52.783C41.8627 52.3491 42.1946 52.0097 42.6174 51.765C43.044 51.5202 43.5243 51.3978 44.0583 51.3978C44.5887 51.3978 45.0653 51.5202 45.4881 51.765C45.9109 52.0097 46.2428 52.3491 46.4839 52.783C46.725 53.217 46.8455 53.7065 46.8455 54.2517C46.8455 54.7932 46.7231 55.2828 46.4784 55.7204C46.2373 56.1544 45.9053 56.4956 45.4825 56.7441C45.0597 56.9926 44.585 57.1168 44.0583 57.1168ZM42.7955 54.2517C42.7955 54.7339 42.9067 55.1085 43.1293 55.3755C43.3518 55.6426 43.6615 55.7761 44.0583 55.7761C44.4552 55.7761 44.763 55.6426 44.9818 55.3755C45.2007 55.1085 45.3101 54.7339 45.3101 54.2517C45.3101 53.7696 45.2007 53.3969 44.9818 53.1335C44.763 52.8702 44.4552 52.7385 44.0583 52.7385C43.6541 52.7385 43.3425 52.8702 43.1237 53.1335C42.9049 53.3969 42.7955 53.7696 42.7955 54.2517ZM50.2567 51.5146H51.9312L53.1162 55.0028L54.329 51.5146H55.9757L53.7504 57H52.4987L50.2567 51.5146ZM56.7442 51.5146H58.2741V57H56.7442V51.5146ZM56.7219 49.2448H58.313V50.7135H56.7219V49.2448ZM62.0732 57.1168C61.4502 57.1168 60.9328 56.9852 60.5211 56.7218C60.1094 56.4585 59.8071 56.1136 59.6143 55.6871C59.4214 55.2568 59.325 54.7895 59.325 54.2851C59.325 53.7881 59.4177 53.3208 59.6032 52.8832C59.7923 52.4455 60.0853 52.0895 60.4821 51.815C60.8827 51.5369 61.3834 51.3978 61.9842 51.3978C62.5369 51.3978 63.006 51.522 63.3917 51.7705C63.7812 52.0153 64.0723 52.3547 64.2652 52.7886C64.4617 53.2188 64.56 53.7084 64.56 54.2573C64.56 54.3871 64.5489 54.5614 64.5266 54.7803H60.8549C60.8883 55.0733 61.007 55.3051 61.2109 55.4757C61.4186 55.6463 61.7098 55.7316 62.0844 55.7316C62.5851 55.7316 62.993 55.5461 63.3083 55.1752L64.3653 56.1099C63.7682 56.7812 63.0042 57.1168 62.0732 57.1168ZM63.108 53.6509C63.1043 53.4618 63.0542 53.293 62.9578 53.1447C62.8614 52.9963 62.7297 52.8813 62.5628 52.7997C62.3996 52.7144 62.216 52.6718 62.012 52.6718C61.6486 52.6718 61.3704 52.7682 61.1776 52.9611C60.9847 53.1502 60.8697 53.3802 60.8326 53.6509H63.108ZM65.0513 51.5146H66.6758L67.5326 54.6523L68.4227 51.5146H69.7245L70.6146 54.63L71.4825 51.5146H73.1181L71.3935 57H70.036L69.0791 53.6899L68.1445 57H66.7648L65.0513 51.5146ZM8.75619 65.3978C9.22722 65.3978 9.63519 65.522 9.98011 65.7705C10.325 66.0153 10.5884 66.3547 10.7701 66.7886C10.9518 67.2225 11.0427 67.714 11.0427 68.2629C11.0427 68.8489 10.9407 69.3588 10.7367 69.7928C10.5364 70.223 10.262 70.5512 9.91335 70.7775C9.56843 71.0037 9.18271 71.1168 8.75619 71.1168C8.44465 71.1168 8.15722 71.0482 7.89389 70.911C7.63056 70.7738 7.41545 70.5661 7.24855 70.2879V73.2698H5.72421V65.5146H7.24855V66.2211C7.57122 65.6722 8.07377 65.3978 8.75619 65.3978ZM7.10947 68.2629C7.10947 68.7079 7.21517 69.0621 7.42657 69.3255C7.64169 69.5851 7.93468 69.7149 8.30557 69.7149C8.68016 69.7149 8.97502 69.5851 9.19013 69.3255C9.40524 69.0658 9.5128 68.7116 9.5128 68.2629C9.5128 67.8104 9.40524 67.4543 9.19013 67.1947C8.97502 66.9314 8.68016 66.7997 8.30557 66.7997C7.93468 66.7997 7.64169 66.9314 7.42657 67.1947C7.21517 67.4543 7.10947 67.8104 7.10947 68.2629ZM15.4849 70.3992C15.1474 70.8776 14.6467 71.1168 13.9828 71.1168C13.586 71.1168 13.2262 71.0408 12.9035 70.8887C12.5846 70.7367 12.3324 70.5216 12.1469 70.2434C11.9652 69.9652 11.8743 69.6463 11.8743 69.2865C11.8743 68.975 11.9392 68.7024 12.069 68.4687C12.1988 68.2351 12.3787 68.0552 12.6087 67.9291C12.9499 67.7362 13.3857 67.6398 13.916 67.6398H15.4626V67.5285C15.4626 67.2837 15.3718 67.089 15.19 66.9444C15.012 66.7997 14.758 66.7274 14.4279 66.7274C14.1868 66.7274 13.955 66.7756 13.7325 66.8721C13.5136 66.9648 13.2874 67.128 13.0537 67.3616L11.9466 66.4326C12.2693 66.0876 12.6569 65.8299 13.1094 65.6593C13.5656 65.4849 14.0421 65.3978 14.5391 65.3978C15.0472 65.3978 15.4849 65.4849 15.8521 65.6593C16.2192 65.8299 16.4993 66.0765 16.6921 66.3992C16.8887 66.7181 16.987 67.0946 16.987 67.5285V71H15.585L15.4849 70.3992ZM13.4098 69.2865C13.4098 69.472 13.4821 69.6185 13.6268 69.726C13.7714 69.8336 13.968 69.8873 14.2165 69.8873C14.4427 69.8873 14.6504 69.8391 14.8395 69.7427C15.0287 69.6463 15.1789 69.5128 15.2902 69.3421C15.4051 69.1715 15.4626 68.9805 15.4626 68.7691H14.1386C13.9012 68.7691 13.7232 68.8118 13.6045 68.8971C13.4747 68.9861 13.4098 69.1159 13.4098 69.2865ZM20.1286 71.1168C19.1754 71.1168 18.3836 70.7478 17.753 70.0097L18.7934 69.0974C19.1606 69.624 19.6093 69.8873 20.1397 69.8873C20.3771 69.8873 20.5662 69.841 20.7071 69.7483C20.8481 69.6555 20.9186 69.5406 20.9186 69.4033C20.9186 69.2958 20.8759 69.2068 20.7906 69.1363C20.709 69.0658 20.6033 69.0065 20.4735 68.9583C20.3437 68.9101 20.1619 68.8544 19.9283 68.7914C19.5463 68.6875 19.2236 68.5781 18.9603 68.4631C18.7007 68.3445 18.4781 68.172 18.2927 67.9458C18.1072 67.7195 18.0145 67.4265 18.0145 67.0668C18.0145 66.7367 18.1017 66.4455 18.276 66.1933C18.454 65.9411 18.7025 65.7464 19.0215 65.6092C19.3404 65.4683 19.7095 65.3978 20.1286 65.3978C20.5773 65.3978 20.9816 65.4849 21.3414 65.6593C21.7048 65.8299 21.9923 66.0765 22.2037 66.3992L21.2412 67.1391C21.1077 66.9536 20.9371 66.8071 20.7294 66.6996C20.5254 66.592 20.3103 66.5383 20.0841 66.5383C19.8986 66.5383 19.7447 66.5753 19.6223 66.6495C19.5036 66.72 19.4443 66.8127 19.4443 66.9277C19.4443 67.0056 19.4721 67.0705 19.5277 67.1224C19.5834 67.1743 19.6761 67.2244 19.8059 67.2726C19.9357 67.3171 20.1211 67.369 20.3622 67.4284C20.7776 67.5322 21.1207 67.6398 21.3914 67.751C21.6659 67.8586 21.9051 68.0329 22.1091 68.274C22.3168 68.5114 22.4206 68.8303 22.4206 69.2309C22.4206 69.6018 22.3242 69.93 22.1313 70.2156C21.9422 70.5012 21.6733 70.7237 21.3247 70.8832C20.9797 71.0389 20.581 71.1168 20.1286 71.1168ZM25.7492 71.1168C25.2411 71.1168 24.822 70.974 24.4919 70.6885C24.1655 70.3992 24.0023 69.943 24.0023 69.3199V66.7052H23.0455V65.5146H24.0023V64.3018L25.5489 63.4785V65.5146H26.7172V66.7052H25.5489V68.8915C25.5489 69.2327 25.5934 69.4812 25.6824 69.637C25.7715 69.7891 25.9347 69.8651 26.172 69.8651C26.3055 69.8651 26.4873 69.8354 26.7172 69.7761V70.9444C26.4094 71.0593 26.0867 71.1168 25.7492 71.1168ZM30.6394 63.2448H32.1749V66.2211C32.3455 65.9319 32.5699 65.7223 32.848 65.5925C33.1299 65.4627 33.4322 65.3978 33.7548 65.3978C34.1702 65.3978 34.5281 65.4775 34.8286 65.637C35.1327 65.7965 35.3645 66.0264 35.524 66.3269C35.6834 66.6236 35.7632 66.9759 35.7632 67.3839V71H34.2277V67.9513C34.2277 67.5285 34.1517 67.2188 33.9996 67.0223C33.8476 66.8257 33.6102 66.7274 33.2875 66.7274C32.9092 66.7274 32.6292 66.8628 32.4475 67.1335C32.2657 67.4043 32.1749 67.8289 32.1749 68.4075V71H30.6394V63.2448ZM40.3675 70.3992C40.03 70.8776 39.5293 71.1168 38.8654 71.1168C38.4686 71.1168 38.1088 71.0408 37.7861 70.8887C37.4672 70.7367 37.215 70.5216 37.0295 70.2434C36.8478 69.9652 36.7569 69.6463 36.7569 69.2865C36.7569 68.975 36.8218 68.7024 36.9516 68.4687C37.0814 68.2351 37.2613 68.0552 37.4913 67.9291C37.8325 67.7362 38.2683 67.6398 38.7986 67.6398H40.3452V67.5285C40.3452 67.2837 40.2544 67.089 40.0726 66.9444C39.8946 66.7997 39.6406 66.7274 39.3105 66.7274C39.0694 66.7274 38.8376 66.7756 38.6151 66.8721C38.3962 66.9648 38.17 67.128 37.9363 67.3616L36.8292 66.4326C37.1519 66.0876 37.5395 65.8299 37.992 65.6593C38.4482 65.4849 38.9247 65.3978 39.4217 65.3978C39.9298 65.3978 40.3675 65.4849 40.7347 65.6593C41.1018 65.8299 41.3819 66.0765 41.5747 66.3992C41.7713 66.7181 41.8696 67.0946 41.8696 67.5285V71H40.4676L40.3675 70.3992ZM38.2924 69.2865C38.2924 69.472 38.3647 69.6185 38.5094 69.726C38.654 69.8336 38.8506 69.8873 39.0991 69.8873C39.3253 69.8873 39.533 69.8391 39.7221 69.7427C39.9113 69.6463 40.0615 69.5128 40.1728 69.3421C40.2877 69.1715 40.3452 68.9805 40.3452 68.7691H39.0212C38.7838 68.7691 38.6058 68.8118 38.4871 68.8971C38.3573 68.9861 38.2924 69.1159 38.2924 69.2865ZM45.5508 71.1168C44.9685 71.1168 44.4734 70.9833 44.0654 70.7163C43.6574 70.4492 43.3496 70.0987 43.1419 69.6648C42.9379 69.2272 42.8359 68.7561 42.8359 68.2517C42.8359 67.751 42.9379 67.2837 43.1419 66.8498C43.3496 66.4159 43.6574 66.0654 44.0654 65.7983C44.4734 65.5313 44.9685 65.3978 45.5508 65.3978C46.1257 65.3978 46.619 65.5369 47.0306 65.815C47.446 66.0895 47.7539 66.4975 47.9541 67.039L46.619 67.5675C46.4298 67.0074 46.0738 66.7274 45.5508 66.7274C45.2838 66.7274 45.0612 66.7997 44.8832 66.9444C44.7052 67.0853 44.5735 67.2726 44.4882 67.5063C44.4066 67.7362 44.3658 67.9847 44.3658 68.2517C44.3658 68.5225 44.4066 68.7747 44.4882 69.0083C44.5735 69.2383 44.7052 69.4256 44.8832 69.5702C45.0612 69.7149 45.2838 69.7872 45.5508 69.7872C46.0738 69.7872 46.4298 69.5053 46.619 68.9416L47.9541 69.4701C47.7539 70.0153 47.446 70.427 47.0306 70.7051C46.619 70.9796 46.1257 71.1168 45.5508 71.1168ZM51.1131 68.6022L50.4455 69.3644V71H48.9156V63.2448H50.4455V67.4729L52.2814 65.5146H54.2286L52.2313 67.573L54.4344 71H52.6152L51.1131 68.6022ZM58.5133 70.3992C58.1758 70.8776 57.6751 71.1168 57.0112 71.1168C56.6144 71.1168 56.2546 71.0408 55.932 70.8887C55.613 70.7367 55.3608 70.5216 55.1754 70.2434C54.9936 69.9652 54.9028 69.6463 54.9028 69.2865C54.9028 68.975 54.9677 68.7024 55.0975 68.4687C55.2273 68.2351 55.4072 68.0552 55.6371 67.9291C55.9783 67.7362 56.4141 67.6398 56.9445 67.6398H58.4911V67.5285C58.4911 67.2837 58.4002 67.089 58.2185 66.9444C58.0404 66.7997 57.7864 66.7274 57.4563 66.7274C57.2152 66.7274 56.9834 66.7756 56.7609 66.8721C56.5421 66.9648 56.3158 67.128 56.0822 67.3616L54.9751 66.4326C55.2977 66.0876 55.6853 65.8299 56.1378 65.6593C56.594 65.4849 57.0706 65.3978 57.5676 65.3978C58.0757 65.3978 58.5133 65.4849 58.8805 65.6593C59.2477 65.8299 59.5277 66.0765 59.7205 66.3992C59.9171 66.7181 60.0154 67.0946 60.0154 67.5285V71H58.6135L58.5133 70.3992ZM56.4382 69.2865C56.4382 69.472 56.5105 69.6185 56.6552 69.726C56.7998 69.8336 56.9964 69.8873 57.2449 69.8873C57.4711 69.8873 57.6788 69.8391 57.868 69.7427C58.0571 69.6463 58.2073 69.5128 58.3186 69.3421C58.4336 69.1715 58.4911 68.9805 58.4911 68.7691H57.167C56.9296 68.7691 56.7516 68.8118 56.6329 68.8971C56.5031 68.9861 56.4382 69.1159 56.4382 69.2865ZM63.5186 71.1168C63.0105 71.1168 62.5914 70.974 62.2613 70.6885C61.9349 70.3992 61.7717 69.943 61.7717 69.3199V66.7052H60.8149V65.5146H61.7717V64.3018L63.3183 63.4785V65.5146H64.4866V66.7052H63.3183V68.8915C63.3183 69.2327 63.3628 69.4812 63.4519 69.637C63.5409 69.7891 63.7041 69.8651 63.9414 69.8651C64.0749 69.8651 64.2567 69.8354 64.4866 69.7761V70.9444C64.1788 71.0593 63.8561 71.1168 63.5186 71.1168ZM65.5185 63.2448H67.054V66.2211C67.2246 65.9319 67.449 65.7223 67.7271 65.5925C68.009 65.4627 68.3113 65.3978 68.6339 65.3978C69.0493 65.3978 69.4072 65.4775 69.7077 65.637C70.0118 65.7965 70.2436 66.0264 70.4031 66.3269C70.5625 66.6236 70.6423 66.9759 70.6423 67.3839V71H69.1068V67.9513C69.1068 67.5285 69.0308 67.2188 68.8787 67.0223C68.7267 66.8257 68.4893 66.7274 68.1666 66.7274C67.7883 66.7274 67.5083 66.8628 67.3266 67.1335C67.1448 67.4043 67.054 67.8289 67.054 68.4075V71H65.5185V63.2448ZM74.401 71.1168C73.8706 71.1168 73.3922 70.9944 72.9657 70.7497C72.5428 70.5012 72.2109 70.1599 71.9698 69.726C71.7288 69.2884 71.6082 68.7969 71.6082 68.2517C71.6082 67.7065 71.7269 67.217 71.9643 66.783C72.2053 66.3491 72.5373 66.0097 72.9601 65.765C73.3866 65.5202 73.8669 65.3978 74.401 65.3978C74.9313 65.3978 75.4079 65.5202 75.8307 65.765C76.2535 66.0097 76.5855 66.3491 76.8266 66.783C77.0676 67.217 77.1882 67.7065 77.1882 68.2517C77.1882 68.7932 77.0658 69.2828 76.821 69.7204C76.5799 70.1544 76.248 70.4956 75.8252 70.7441C75.4024 70.9926 74.9276 71.1168 74.401 71.1168ZM73.1381 68.2517C73.1381 68.7339 73.2494 69.1085 73.4719 69.3755C73.6944 69.6426 74.0041 69.7761 74.401 69.7761C74.7978 69.7761 75.1057 69.6426 75.3245 69.3755C75.5433 69.1085 75.6527 68.7339 75.6527 68.2517C75.6527 67.7696 75.5433 67.3969 75.3245 67.1335C75.1057 66.8702 74.7978 66.7385 74.401 66.7385C73.9967 66.7385 73.6852 66.8702 73.4663 67.1335C73.2475 67.3969 73.1381 67.7696 73.1381 68.2517ZM78.2097 65.5146H79.7452V66.2211C79.9158 65.9319 80.1402 65.7223 80.4183 65.5925C80.7002 65.4627 81.0025 65.3978 81.3252 65.3978C81.7406 65.3978 82.0985 65.4775 82.3989 65.637C82.703 65.7965 82.9348 66.0264 83.0943 66.3269C83.2538 66.6236 83.3335 66.9759 83.3335 67.3839V71H81.798V67.9513C81.798 67.5285 81.722 67.2188 81.5699 67.0223C81.4179 66.8257 81.1805 66.7274 80.8578 66.7274C80.4795 66.7274 80.1995 66.8628 80.0178 67.1335C79.8361 67.4043 79.7452 67.8289 79.7452 68.4075V71H78.2097V65.5146Z" fill="#C3B9E6"/>
<path opacity="0.3" d="M60.1139 0.757997C60.2474 0.222102 60.7901 -0.104068 61.326 0.0294774L70.0589 2.20572C70.5948 2.33927 70.921 2.88196 70.7874 3.41785C70.6539 3.95375 70.1112 4.27992 69.5753 4.14637L61.8127 2.21193L59.8783 9.97453C59.7447 10.5104 59.202 10.8366 58.6662 10.7031C58.1303 10.5695 57.8041 10.0268 57.9376 9.49092L60.1139 0.757997ZM58.2356 42.631C63.6437 36.2205 66.6841 30.2702 67.1433 23.8286C67.603 17.3796 65.4878 10.2678 60.2271 1.51494L61.9413 0.484661C67.3145 9.42477 69.6384 16.9537 69.1382 23.9709C68.6374 30.9954 65.3187 37.3366 59.7643 43.9207L58.2356 42.631Z" fill="#C3B9E6"/>
</svg>
