<svg width="80" height="80" viewBox="0 0 80 80" fill="none" xmlns="http://www.w3.org/2000/svg">
<g filter="url(#filter0_i_3944_1097)">
<circle cx="39.6005" cy="39.6007" r="33.57" transform="rotate(168.474 39.6005 39.6007)" fill="#2E5C7C"/>
<ellipse cx="7.81438" cy="9.26357" rx="7.81438" ry="9.26357" transform="matrix(-0.828359 -0.560197 0.563819 -0.825898 56.2058 62.0041)" fill="#2A5473"/>
<ellipse cx="6.98651" cy="8.9574" rx="6.98651" ry="8.9574" transform="matrix(-0.828359 -0.560197 0.563819 -0.825898 55.0254 60.7946)" fill="#3E6C8C"/>
<ellipse cx="5.34379" cy="5.8686" rx="5.34379" ry="5.8686" transform="matrix(-0.828359 -0.560197 0.563819 -0.825898 31.908 44.0244)" fill="#2A5473"/>
<ellipse cx="5.09334" cy="5.45389" rx="5.09334" ry="5.45389" transform="matrix(-0.828359 -0.560197 0.563819 -0.825898 32.0552 43.6385)" fill="#3E6C8C"/>
<ellipse cx="26.1304" cy="62.8763" rx="4.35459" ry="8.28251" transform="rotate(120.733 26.1304 62.8763)" fill="#2A5473"/>
<ellipse cx="26.2856" cy="62.4138" rx="3.73908" ry="7.78709" transform="rotate(120.733 26.2856 62.4138)" fill="#3E6C8C"/>
<ellipse cx="56.4248" cy="17.9905" rx="4.62461" ry="8.45955" transform="rotate(-52.4765 56.4248 17.9905)" fill="#2A5473"/>
<ellipse cx="56.2994" cy="18.6135" rx="4.10266" ry="7.78709" transform="rotate(-52.4765 56.2994 18.6135)" fill="#3E6C8C"/>
<ellipse cx="21.6894" cy="16.8747" rx="3.60263" ry="1.85632" transform="rotate(141.812 21.6894 16.8747)" fill="#2A5473"/>
<ellipse cx="21.8378" cy="17.1077" rx="3.3376" ry="1.51018" transform="rotate(141.812 21.8378 17.1077)" fill="#3E6C8C"/>
<ellipse cx="12.9497" cy="40.8572" rx="2.94761" ry="4.58517" transform="rotate(-179.303 12.9497 40.8572)" fill="#2A5473"/>
<ellipse cx="13.2956" cy="41.052" rx="2.59934" ry="4.39453" transform="rotate(-179.303 13.2956 41.052)" fill="#3E6C8C"/>
</g>
<defs>
<filter id="filter0_i_3944_1097" x="6.02393" y="6.02405" width="67.1533" height="67.1532" filterUnits="userSpaceOnUse" color-interpolation-filters="sRGB">
<feFlood flood-opacity="0" result="BackgroundImageFix"/>
<feBlend mode="normal" in="SourceGraphic" in2="BackgroundImageFix" result="shape"/>
<feColorMatrix in="SourceAlpha" type="matrix" values="0 0 0 0 0 0 0 0 0 0 0 0 0 0 0 0 0 0 127 0" result="hardAlpha"/>
<feOffset/>
<feGaussianBlur stdDeviation="5"/>
<feComposite in2="hardAlpha" operator="arithmetic" k2="-1" k3="1"/>
<feColorMatrix type="matrix" values="0 0 0 0 0.164706 0 0 0 0 0.329412 0 0 0 0 0.45098 0 0 0 1 0"/>
<feBlend mode="normal" in2="shape" result="effect1_innerShadow_3944_1097"/>
</filter>
</defs>
</svg>
