<svg width="326" height="326" viewBox="0 0 326 326" fill="none" xmlns="http://www.w3.org/2000/svg">
<path d="M80.764 150.431C80.764 145.742 77.8012 143.291 72.3233 141.223C68.0603 139.625 66.6322 138.516 66.6322 136.726C66.6322 135.042 68.1029 133.827 70.0213 133.827C71.9183 133.827 73.4743 134.978 74.6466 137.024L79.3359 134.168C77.7799 131.099 75.3074 129.287 72.1954 128.754V124.555H67.9537V128.775C63.5202 129.564 60.7066 132.676 60.7066 136.832C60.7066 141.372 63.4349 143.952 69.2539 146.19C73.0906 147.66 74.9024 148.705 74.9024 150.794C74.9024 153.01 72.9627 154.353 70.4902 154.353C67.2503 154.353 65.0336 152.542 64.4154 149.003L58.6604 150.431C59.4277 155.291 62.8381 158.659 67.9963 159.426V164.009H72.238V159.469C77.4389 158.766 80.764 155.206 80.764 150.431ZM94.32 130.886C94.32 133.124 93.2543 133.891 91.2293 133.891H86.7532V138.388H94.32V159H100.011V129.287H94.32V130.886ZM119.637 130.886C119.637 133.124 118.571 133.891 116.546 133.891H112.07V138.388H119.637V159H125.328V129.287H119.637V130.886ZM145.551 159.405C154.929 159.405 156.016 150.346 156.016 143.994C156.016 137.983 155.036 128.797 145.529 128.797C135.98 128.797 135.042 138.026 135.042 143.973C135.042 150.218 136.044 159.405 145.551 159.405ZM145.551 153.97C141.501 153.97 140.84 149.344 140.84 144.165C140.84 138.772 141.501 134.275 145.529 134.275C149.473 134.275 150.219 138.665 150.219 144.165C150.219 149.472 149.473 153.97 145.551 153.97ZM163.263 165.267L168.592 152.264H162.24L159.554 165.267H163.263ZM180.588 153.714C186.919 149.835 191.075 144.527 191.075 138.538C191.075 132.74 187.153 128.967 181.654 128.967C174.919 128.967 171.274 134.573 171.274 139.859L176.858 140.307C177.008 137.578 178.009 134.466 181.505 134.466C184.233 134.466 185.427 136.321 185.427 138.708C185.427 145.38 176.048 151.54 171.572 154.758V159H192.248V153.714H180.588ZM206.822 159.405C213.472 159.405 217.991 155.504 217.991 149.813C217.991 146.318 215.945 143.952 212.833 142.822C214.836 141.735 216.264 139.774 216.264 137.046C216.264 132.25 212.449 128.882 206.971 128.882C201.131 128.882 196.932 132.612 196.932 137.813L202.559 138.175C202.58 135.788 204.179 134.317 206.779 134.317C209.124 134.317 210.595 135.553 210.595 137.642C210.595 140.221 208.527 141.266 205.351 141.266V145.721C209.87 145.721 212.3 146.829 212.3 149.771C212.3 152.414 210.36 153.97 207.014 153.97C203.539 153.97 201.301 152.094 201.301 149.152L195.653 149.494C195.653 155.44 200.108 159.405 206.822 159.405ZM232.122 159.405C241.501 159.405 242.588 150.346 242.588 143.994C242.588 137.983 241.608 128.797 232.101 128.797C222.552 128.797 221.614 138.026 221.614 143.973C221.614 150.218 222.616 159.405 232.122 159.405ZM232.122 153.97C228.073 153.97 227.412 149.344 227.412 144.165C227.412 138.772 228.073 134.275 232.101 134.275C236.044 134.275 236.79 138.665 236.79 144.165C236.79 149.472 236.044 153.97 232.122 153.97ZM259.725 157.401V148.641H268.486V144.421H259.725V135.66H255.462V144.421H246.702V148.641H255.462V157.401H259.725Z" fill="url(#paint0_linear)"/>
<path d="M92.4527 197V185.848H90.5247V197H92.4527ZM101.421 193.704L96.5886 185.848H94.5966V197H96.5246V189.12L101.341 197H103.349V185.848H101.421V193.704ZM111.293 197V192.352H112.981C115.453 192.352 116.773 191.2 116.773 189.064C116.773 186.928 115.469 185.848 112.981 185.848H109.381V197H111.293ZM111.293 187.568H112.789C114.157 187.568 114.853 188 114.853 189.088C114.853 190.208 114.093 190.632 112.789 190.632H111.293V187.568ZM123.594 192.072C124.914 191.64 125.642 190.632 125.642 189.056C125.642 187.096 124.53 185.848 121.85 185.848H118.25V197H120.178V192.328H120.962C121.114 192.328 121.314 192.328 121.538 192.32L124.298 197H126.546L123.594 192.072ZM120.178 187.568H121.658C122.794 187.568 123.722 187.864 123.722 189.08C123.722 190.304 122.81 190.632 121.658 190.632H120.178V187.568ZM129.843 197V185.848H127.915V197H129.843ZM139.763 187.44V185.848H131.667V187.568H137.355L131.291 195.408V197H139.963V195.28H133.691L139.763 187.44ZM148.78 197V195.28H143.3V192.144H148.38V190.424H143.3V187.568H148.78V185.848H141.372V197H148.78ZM154.161 197.2C156.433 197.2 157.977 195.792 157.977 193.824C157.977 192.048 156.793 191.176 154.809 190.432C153.225 189.832 152.561 189.408 152.561 188.6C152.561 187.856 153.201 187.32 154.049 187.32C154.833 187.32 155.465 187.768 155.921 188.576L157.457 187.64C156.761 186.296 155.593 185.608 154.113 185.608C152.025 185.608 150.641 186.872 150.641 188.64C150.641 190.328 151.713 191.24 153.801 192.04C155.257 192.6 156.065 193.016 156.065 193.952C156.065 194.896 155.265 195.488 154.217 195.488C152.905 195.488 152.009 194.768 151.769 193.384L149.897 193.848C150.225 195.88 151.801 197.2 154.161 197.2ZM172.885 197L168.461 185.848H167.005L162.565 197H164.669L165.509 194.72H169.957L170.789 197H172.885ZM167.741 188.68L169.325 193H166.149L167.741 188.68ZM182.6 194.056L180.384 186.488H178.488L176.272 194.056L173.904 185.848H171.888L175.216 197H177.096L179.44 189.304L181.776 197H183.656L186.984 185.848H184.968L182.6 194.056ZM196.31 197L191.886 185.848H190.43L185.99 197H188.094L188.934 194.72H193.382L194.214 197H196.31ZM191.166 188.68L192.75 193H189.574L191.166 188.68ZM202.834 192.072C204.154 191.64 204.882 190.632 204.882 189.056C204.882 187.096 203.77 185.848 201.09 185.848H197.49V197H199.418V192.328H200.202C200.354 192.328 200.554 192.328 200.778 192.32L203.538 197H205.786L202.834 192.072ZM199.418 187.568H200.898C202.034 187.568 202.962 187.864 202.962 189.08C202.962 190.304 202.05 190.632 200.898 190.632H199.418V187.568ZM210.356 197C214.116 197 216.172 195.056 216.172 191.512C216.172 187.896 214.06 185.848 210.372 185.848H207.156V197H210.356ZM209.084 187.616H210.34C212.772 187.616 214.236 188.616 214.236 191.44C214.236 194.32 212.748 195.232 210.164 195.232H209.084V187.616ZM225.261 197V195.28H219.781V192.144H224.861V190.424H219.781V187.568H225.261V185.848H217.853V197H225.261ZM230.218 197C233.978 197 236.034 195.056 236.034 191.512C236.034 187.896 233.922 185.848 230.234 185.848H227.018V197H230.218ZM228.946 187.616H230.202C232.634 187.616 234.098 188.616 234.098 191.44C234.098 194.32 232.61 195.232 230.026 195.232H228.946V187.616ZM138.2 218V206.848H136.272V218H138.2ZM147.167 214.704L142.335 206.848H140.343V218H142.271V210.12L147.087 218H149.095V206.848H147.167V214.704ZM157.863 216.28C160.423 214.432 162.087 212.632 162.087 210.248C162.087 208.152 160.687 206.728 158.607 206.728C156.383 206.728 154.807 208.344 154.807 210.624L156.623 210.768C156.695 209.304 157.375 208.52 158.559 208.52C159.623 208.52 160.247 209.184 160.247 210.312C160.247 212.344 157.791 214.584 154.887 216.464V218H162.527V216.28H157.863ZM167.861 218.144C171.173 218.144 171.677 214.904 171.677 212.376C171.677 209.96 171.205 206.68 167.837 206.68C164.429 206.68 164.021 210.032 164.021 212.368C164.021 214.792 164.461 218.144 167.861 218.144ZM167.861 216.368C166.237 216.368 165.909 214.512 165.909 212.432C165.909 210.28 166.229 208.456 167.837 208.456C169.397 208.456 169.789 210.184 169.789 212.44C169.789 214.616 169.405 216.368 167.861 216.368ZM176.226 216.28C178.786 214.432 180.45 212.632 180.45 210.248C180.45 208.152 179.05 206.728 176.97 206.728C174.746 206.728 173.17 208.344 173.17 210.624L174.986 210.768C175.058 209.304 175.738 208.52 176.922 208.52C177.986 208.52 178.61 209.184 178.61 210.312C178.61 212.344 176.154 214.584 173.25 216.464V218H180.89V216.28H176.226ZM186.231 207.544C186.231 208.328 185.855 208.592 185.135 208.592H183.367V210.136H186.231V218H188.087V206.848H186.231V207.544Z" fill="#E2D6FF"/>
<rect opacity="0.65" x="163" width="230.517" height="230.517" rx="14" transform="rotate(45 163 0)" fill="#7359CB"/>
<rect x="163" y="12.2831" width="213.145" height="213.145" rx="12" transform="rotate(45 163 12.2831)" fill="#403074"/>
<path d="M124 3L124.876 34.7349C124.882 34.9472 125.053 35.1179 125.265 35.1237L157 36L125.265 36.8763C125.053 36.8821 124.882 37.0528 124.876 37.2651L124 69L123.124 37.2651C123.118 37.0528 122.947 36.8821 122.735 36.8763L91 36L122.735 35.1237C122.947 35.1179 123.118 34.9472 123.124 34.7349L124 3Z" fill="url(#paint1_radial)"/>
<defs>
<linearGradient id="paint0_linear" x1="57" y1="116" x2="273.242" y2="153.102" gradientUnits="userSpaceOnUse">
<stop stop-color="#20FFAF"/>
<stop offset="1" stop-color="#78FF96"/>
</linearGradient>
<radialGradient id="paint1_radial" cx="0" cy="0" r="1" gradientUnits="userSpaceOnUse" gradientTransform="translate(124 36) rotate(90) scale(33)">
<stop stop-color="white"/>
<stop offset="1" stop-color="white" stop-opacity="0"/>
</radialGradient>
</defs>
</svg>
