<svg width="258" height="258" viewBox="0 0 258 258" fill="none" xmlns="http://www.w3.org/2000/svg">
<path d="M62.928 125.064C72.432 119.24 78.672 111.272 78.672 102.28C78.672 93.576 72.784 87.912 64.528 87.912C54.416 87.912 48.944 96.328 48.944 104.264L57.328 104.936C57.552 100.84 59.056 96.168 64.304 96.168C68.4 96.168 70.192 98.952 70.192 102.536C70.192 112.552 56.112 121.8 49.392 126.632V133H80.432V125.064H62.928ZM102.378 133.672C111.21 133.672 119.21 129.032 119.21 119.656C119.21 115.08 117.322 111.176 113.226 108.744C115.658 106.92 117.066 104.36 117.066 100.712C117.066 92.648 110.25 87.72 102.41 87.72C94.6975 87.72 87.6255 92.552 87.6255 100.648C87.6255 104.328 89.1295 106.92 91.5295 108.744C87.4335 111.176 85.5135 115.048 85.5135 119.656C85.5135 129.032 93.5455 133.672 102.378 133.672ZM102.41 106.344C98.6975 106.344 96.1695 104.392 96.1695 101.224C96.1695 97.928 98.6335 95.88 102.41 95.88C106.282 95.88 108.618 98.024 108.618 101.288C108.618 104.392 106.09 106.344 102.41 106.344ZM102.378 125.576C97.6095 125.576 94.0575 123.272 94.0575 118.824C94.0575 114.472 97.5135 112.136 102.378 112.136C107.242 112.136 110.698 114.472 110.698 118.824C110.698 123.272 107.178 125.576 102.378 125.576ZM139.915 133.608C153.995 133.608 155.627 120.008 155.627 110.472C155.627 101.448 154.155 87.656 139.883 87.656C125.547 87.656 124.139 101.512 124.139 110.44C124.139 119.816 125.643 133.608 139.915 133.608ZM139.915 125.448C133.835 125.448 132.843 118.504 132.843 110.728C132.843 102.632 133.835 95.88 139.883 95.88C145.803 95.88 146.923 102.472 146.923 110.728C146.923 118.696 145.803 125.448 139.915 125.448ZM181.163 130.6V117.448H194.316V111.112H181.163V97.96H174.764V111.112H161.611V117.448H174.764V130.6H181.163Z" fill="url(#paint0_linear)"/>
<path d="M89.0825 167V163.01H90.4405C92.6315 163.01 93.7935 161.995 93.7935 160.084C93.7935 158.187 92.6595 157.242 90.4405 157.242H87.1505V167H89.0825ZM89.0825 158.971H90.2445C91.3225 158.971 91.8545 159.258 91.8545 160.105C91.8545 160.987 91.2665 161.274 90.2445 161.274H89.0825V158.971ZM99.8882 162.765C100.987 162.352 101.596 161.456 101.596 160.084C101.596 158.362 100.651 157.242 98.2432 157.242H94.9532V167H96.8922V163.024H97.3402H97.9072L100.217 167H102.464L99.8882 162.765ZM96.8922 158.971H98.0472C98.8872 158.971 99.6572 159.132 99.6572 160.112C99.6572 161.099 98.9012 161.295 98.0472 161.295H96.8922V158.971ZM107.464 167.231C110.257 167.231 112.182 165.194 112.182 162.128C112.182 159.048 110.285 157.011 107.464 157.011C104.664 157.011 102.753 159.055 102.753 162.128C102.753 165.187 104.664 167.231 107.464 167.231ZM107.464 165.376C105.777 165.376 104.699 164.151 104.699 162.128C104.699 160.091 105.777 158.866 107.464 158.866C109.158 158.866 110.229 160.119 110.229 162.128C110.229 164.123 109.158 165.376 107.464 165.376ZM116.138 167.231C118.182 167.231 119.484 165.859 119.484 163.633V157.242H113.926V158.971H117.531V163.521C117.531 164.711 117.195 165.432 116.138 165.432C115.228 165.432 114.773 164.935 114.703 163.703L112.785 163.913C112.925 165.999 114.213 167.231 116.138 167.231ZM127.625 167V165.264H123.047V162.856H127.345V161.12H123.047V158.971H127.625V157.242H121.108V167H127.625ZM133.346 167.231C135.439 167.231 137.028 166.111 137.693 164.277L135.859 163.619C135.46 164.725 134.564 165.376 133.346 165.376C131.659 165.376 130.581 164.144 130.581 162.114C130.581 160.098 131.659 158.866 133.346 158.866C134.564 158.866 135.46 159.517 135.859 160.623L137.693 159.965C137.028 158.131 135.439 157.011 133.346 157.011C130.546 157.011 128.635 159.055 128.635 162.114C128.635 165.187 130.546 167.231 133.346 167.231ZM142.922 167V158.971H145.876V157.242H137.987V158.971H140.955V167H142.922ZM149.931 167.196C151.996 167.196 153.368 165.943 153.368 164.186C153.368 162.646 152.395 161.841 150.596 161.162C149.196 160.637 148.727 160.273 148.727 159.685C148.727 159.132 149.21 158.733 149.84 158.733C150.463 158.733 150.974 159.111 151.359 159.783L152.899 158.845C152.283 157.627 151.226 157.011 149.896 157.011C148.027 157.011 146.781 158.138 146.781 159.72C146.781 161.211 147.677 162.058 149.588 162.793C150.848 163.276 151.443 163.619 151.443 164.305C151.443 165.033 150.806 165.474 149.994 165.474C148.93 165.474 148.202 164.879 147.999 163.717L146.109 164.186C146.396 166.006 147.817 167.196 149.931 167.196ZM107.49 185C109.478 185 110.682 183.908 110.682 182.116C110.682 180.947 110.185 180.128 109.135 179.715C109.786 179.309 110.164 178.595 110.164 177.706C110.164 176.173 108.981 175.242 107.014 175.242H103.514V185H107.49ZM105.453 177.02H107.014C107.784 177.02 108.218 177.384 108.218 178.014C108.218 178.7 107.784 179.099 107.07 179.099H105.453V177.02ZM105.453 180.835H107.399C108.26 180.835 108.743 181.262 108.743 182.032C108.743 182.823 108.281 183.215 107.329 183.215H105.453V180.835ZM115.641 185.231C118.133 185.231 119.435 183.964 119.435 181.402V175.242H117.496V181.269C117.496 182.704 117.118 183.446 115.641 183.446C114.157 183.446 113.8 182.718 113.8 181.248V175.242H111.861V181.472C111.861 183.992 113.142 185.231 115.641 185.231ZM122.986 185V175.242H121.047V185H122.986ZM130.747 185V183.264H126.645V175.242H124.706V185H130.747ZM134.288 185V176.971H137.242V175.242H129.353V176.971H132.321V185H134.288Z" fill="#E2D6FF"/>
<rect opacity="0.65" x="129" width="182.434" height="182.434" rx="14" transform="rotate(45 129 0)" fill="#7359CB"/>
<rect x="129" y="12.5786" width="164.645" height="164.645" rx="12" transform="rotate(45 129 12.5786)" fill="#403074"/>
<path d="M181 190L181.596 205.02C181.605 205.228 181.772 205.395 181.98 205.404L197 206L181.98 206.596C181.772 206.605 181.605 206.772 181.596 206.98L181 222L180.404 206.98C180.395 206.772 180.228 206.605 180.02 206.596L165 206L180.02 205.404C180.228 205.395 180.395 205.228 180.404 205.02L181 190Z" fill="#FAFE36"/>
<defs>
<linearGradient id="paint0_linear" x1="46" y1="69" x2="201.731" y2="81.6956" gradientUnits="userSpaceOnUse">
<stop stop-color="#20FFAF"/>
<stop offset="1" stop-color="#78FF96"/>
</linearGradient>
</defs>
</svg>
