<svg width="457" height="357" viewBox="0 0 457 357" fill="none" xmlns="http://www.w3.org/2000/svg">
<g clip-path="url(#clip0)">
<mask id="mask0" mask-type="alpha" maskUnits="userSpaceOnUse" x="92" y="44" width="391" height="344">
<g style="mix-blend-mode:overlay">
<rect x="92.8515" y="44.9407" width="390" height="343" fill="url(#paint0_radial)"/>
</g>
</mask>
<g mask="url(#mask0)">
<circle cx="290.237" cy="190.449" r="166.5" fill="url(#paint1_radial)" fill-opacity="0.8"/>
<g filter="url(#filter0_f)">
<path d="M237.201 133.07C237.209 132.424 238.092 132.245 238.351 132.837L239.941 136.48C240.035 136.697 240.247 136.838 240.484 136.84L244.458 136.886C245.105 136.894 245.284 137.778 244.691 138.036L241.048 139.626C240.832 139.72 240.691 139.933 240.688 140.169L240.642 144.144C240.634 144.79 239.75 144.969 239.492 144.377L237.902 140.733C237.808 140.517 237.595 140.376 237.359 140.373L233.385 140.327C232.738 140.32 232.559 139.436 233.152 139.177L236.795 137.588C237.011 137.493 237.152 137.281 237.155 137.045L237.201 133.07Z" fill="white"/>
</g>
<path d="M235.632 117.336L237.669 124.784C237.708 124.929 237.849 125.022 237.998 125.002L245.651 123.979L238.203 126.016C238.059 126.056 237.965 126.196 237.985 126.345L239.008 133.998L236.971 126.551C236.931 126.406 236.791 126.313 236.642 126.332L228.989 127.355L236.437 125.318C236.581 125.279 236.675 125.138 236.655 124.989L235.632 117.336Z" fill="#78FF96"/>
<path fill-rule="evenodd" clip-rule="evenodd" d="M105.107 254.811C106.163 264.068 147.522 252.225 197.485 228.36C247.448 204.495 287.095 177.644 286.039 168.387C285.496 163.627 274.296 164.446 256.749 169.611L257.325 173.152C269.986 169.5 277.817 168.884 278.184 172.134C278.998 179.352 242.683 202.908 197.071 224.748C151.459 246.588 113.823 258.441 113.008 251.223C112.602 247.62 121.447 239.946 136.082 230.446L135.988 226.516C116.564 239.036 104.519 249.654 105.107 254.811Z" fill="url(#paint2_linear)" style="mix-blend-mode:color-dodge"/>
<circle r="68.8199" transform="matrix(-0.630105 0.77651 0.77651 0.630105 192.732 192.73)" fill="url(#paint3_linear)" fill-opacity="0.55" style="mix-blend-mode:hard-light"/>
<path d="M149.095 246.504C178.794 270.604 222.405 266.064 246.504 236.366C270.604 206.667 266.064 163.056 236.366 138.957C206.667 114.857 163.056 119.397 138.957 149.095C114.857 178.794 119.397 222.405 149.095 246.504Z" fill="url(#paint4_linear)" style="mix-blend-mode:overlay"/>
<circle cx="266.191" cy="181.292" r="2.75" transform="rotate(-11.4538 266.191 181.292)" fill="#78FF96"/>
<circle cx="280.751" cy="161.252" r="2" transform="rotate(-11.4538 280.751 161.252)" fill="#78FF96"/>
<circle cx="248.799" cy="167.215" r="2.5" transform="rotate(-11.4538 248.799 167.215)" fill="#78FF96" style="mix-blend-mode:color-dodge"/>
<circle cx="176.99" cy="155.236" r="1.5" transform="rotate(-11.4538 176.99 155.236)" fill="#78FF96"/>
<g filter="url(#filter1_f)">
<circle cx="258.536" cy="217.789" r="3" transform="rotate(-11.4538 258.536 217.789)" fill="#78FF96"/>
</g>
<circle cx="258.536" cy="217.789" r="3" transform="rotate(-11.4538 258.536 217.789)" fill="#78FF96"/>
<circle cx="233.297" cy="241.779" r="1.5" transform="rotate(-11.4538 233.297 241.779)" fill="#78FF96"/>
<g filter="url(#filter2_f)">
<circle cx="189.655" cy="200.115" r="3" transform="rotate(-11.4538 189.655 200.115)" fill="#78FF96"/>
</g>
<circle cx="189.655" cy="200.115" r="3" transform="rotate(-11.4538 189.655 200.115)" fill="#78FF96"/>
<circle cx="257.338" cy="131.305" r="2" transform="rotate(-11.4538 257.338 131.305)" fill="#78FF96"/>
</g>
</g>
<defs>
<filter id="filter0_f" x="221.564" y="121.249" width="34.7149" height="34.7149" filterUnits="userSpaceOnUse" color-interpolation-filters="sRGB">
<feFlood flood-opacity="0" result="BackgroundImageFix"/>
<feBlend mode="normal" in="SourceGraphic" in2="BackgroundImageFix" result="shape"/>
<feGaussianBlur stdDeviation="5" result="effect1_foregroundBlur"/>
</filter>
<filter id="filter1_f" x="252" y="211.253" width="13.072" height="13.072" filterUnits="userSpaceOnUse" color-interpolation-filters="sRGB">
<feFlood flood-opacity="0" result="BackgroundImageFix"/>
<feBlend mode="normal" in="SourceGraphic" in2="BackgroundImageFix" result="shape"/>
<feGaussianBlur stdDeviation="1.5" result="effect1_foregroundBlur"/>
</filter>
<filter id="filter2_f" x="183.119" y="193.579" width="13.072" height="13.072" filterUnits="userSpaceOnUse" color-interpolation-filters="sRGB">
<feFlood flood-opacity="0" result="BackgroundImageFix"/>
<feBlend mode="normal" in="SourceGraphic" in2="BackgroundImageFix" result="shape"/>
<feGaussianBlur stdDeviation="1.5" result="effect1_foregroundBlur"/>
</filter>
<radialGradient id="paint0_radial" cx="0" cy="0" r="1" gradientUnits="userSpaceOnUse" gradientTransform="translate(287.852 216.441) rotate(90) scale(171.5 195)">
<stop stop-color="#FF8C73"/>
<stop offset="0.8125" stop-color="#FFB178" stop-opacity="0.1"/>
</radialGradient>
<radialGradient id="paint1_radial" cx="0" cy="0" r="1" gradientUnits="userSpaceOnUse" gradientTransform="translate(290.237 190.449) rotate(90) scale(166.5)">
<stop stop-color="#20FFAF"/>
<stop offset="1" stop-color="#78FF96" stop-opacity="0"/>
</radialGradient>
<linearGradient id="paint2_linear" x1="196.019" y1="219.608" x2="200.093" y2="234.568" gradientUnits="userSpaceOnUse">
<stop stop-color="#716A84"/>
<stop offset="0.927083" stop-color="#F378EE"/>
</linearGradient>
<linearGradient id="paint3_linear" x1="22.3912" y1="12.548" x2="108.498" y2="127.138" gradientUnits="userSpaceOnUse">
<stop stop-color="#F378EE"/>
<stop offset="1" stop-color="#E0B2F0" stop-opacity="0"/>
</linearGradient>
<linearGradient id="paint4_linear" x1="164.92" y1="43.7509" x2="238.491" y2="326.915" gradientUnits="userSpaceOnUse">
<stop stop-color="white"/>
<stop offset="1" stop-color="white" stop-opacity="0"/>
</linearGradient>
<clipPath id="clip0">
<rect width="457" height="357" fill="white"/>
</clipPath>
</defs>
</svg>
