<svg width="249" height="270" viewBox="0 0 249 270" fill="none" xmlns="http://www.w3.org/2000/svg">
<path d="M148.106 99.5214C159.233 85.0502 150.329 69.3642 161.018 65.0914C171.707 60.8186 179.992 73.3606 181.649 80.4152C183.307 87.4698 175.227 105.523 169.275 113.707C157.138 133.378 137.237 140.844 132.833 137.458C126 132.205 137.828 118.624 148.106 99.5214Z" fill="#9AAEAD"/>
<path d="M123.571 242.908C115.374 235.452 113.512 222.747 110.447 211.634C121.29 201.708 128.445 200.032 144.565 209.263C144.565 209.263 150.401 240.085 145.777 241.896C141.152 243.708 130.08 248.828 123.571 242.908Z" fill="#9AAEAD"/>
<path d="M193.798 207.341C192.922 196.295 184.018 187.044 177.109 177.815C162.622 180.31 156.916 184.94 154.344 203.338C154.344 203.338 175.138 226.825 179.401 224.278C183.665 221.73 194.493 216.112 193.798 207.341Z" fill="#9AAEAD"/>
<path d="M165.487 145.184C184.762 177.164 179 198.596 153.31 211.2C130.349 222.465 109.067 225.296 93.6474 180.43C80.8302 143.136 85.9865 124.147 105.825 114.414C125.663 104.681 142.804 107.549 165.487 145.184Z" fill="#D8EAE9"/>
<path d="M143.609 81.2186C153.582 101.546 151.416 111.496 113.702 130C73.9427 149.507 66.793 144.127 56.8199 123.799C46.8469 103.472 55.7381 72.4633 79.7042 60.705C103.67 48.9466 133.636 60.8913 143.609 81.2186Z" fill="#C59E80"/>
<path d="M97.3635 180.154C97.4046 198.408 114.04 205.379 108.193 215.295C102.346 225.21 88.1226 220.35 82.498 215.78C76.8735 211.211 72.2314 191.984 71.9389 181.869C69.5178 158.882 80.7033 140.807 86.2584 140.795C94.8769 140.775 93.8193 158.754 97.3635 180.154Z" fill="#9AAEAD"/>
<ellipse cx="104.45" cy="111.142" rx="23.0291" ry="17.7147" transform="rotate(-26.1338 104.45 111.142)" fill="#E1C7B3"/>
<ellipse cx="78.2529" cy="103.136" rx="4.55521" ry="7.08588" transform="rotate(-26.1338 78.2529 103.136)" fill="#776969"/>
<ellipse cx="1.50005" cy="2.57407" rx="1.50005" ry="2.57407" transform="matrix(0.768115 -0.640311 0.712653 0.701517 75.0725 98.7217)" fill="white"/>
<ellipse cx="113.927" cy="85.0694" rx="4.55521" ry="7.08588" transform="rotate(-26.1338 113.927 85.0694)" fill="#776969"/>
<ellipse cx="1.50005" cy="2.57407" rx="1.50005" ry="2.57407" transform="matrix(0.768115 -0.640311 0.712653 0.701517 110.747 80.6553)" fill="white"/>
<path d="M101.179 110.578C99.3474 110.748 92.7963 110.853 94.5906 108.47C95.3906 107.407 98.6657 105.004 100.112 104.252C101.486 103.538 104.896 102.51 106.53 102.612C111.391 102.915 106.157 110.115 101.179 110.578Z" fill="#776969" stroke="#776969" stroke-width="1.37578" stroke-linecap="round"/>
<path d="M94.5383 120.915C100.1 123.748 108.059 122.538 106.158 115.214M106.158 115.214C110.777 120.953 115.501 117.896 118.039 109.385M106.158 115.214L103.329 109.448" stroke="#776969" stroke-width="2.06367" stroke-linecap="round"/>
<path d="M125.123 62.9687C132.263 41.785 102.216 38.1417 101.549 57.7027L125.123 62.9687Z" fill="#C59E80"/>
<path d="M120.219 61.9803C125.015 47.7527 104.835 45.3058 104.387 58.4435L120.219 61.9803Z" fill="#E1C7B3"/>
<path d="M54.4144 97.6598C33.2915 90.3424 48.7978 64.3498 64.6763 75.7931L54.4144 97.6598Z" fill="#C59E80"/>
<path d="M56.6337 93.177C42.4469 88.2624 52.8614 70.805 63.5259 78.4907L56.6337 93.177Z" fill="#E1C7B3"/>
<path fill-rule="evenodd" clip-rule="evenodd" d="M135.059 132.546L137.697 130.964L138.149 131.717L135.51 133.299L135.059 132.546Z" fill="url(#paint0_linear_3743_114)"/>
<path fill-rule="evenodd" clip-rule="evenodd" d="M135.982 130.16L137.622 132.895L137.272 134.182L135.657 131.487L135.982 130.16Z" fill="url(#paint1_linear_3743_114)"/>
<path fill-rule="evenodd" clip-rule="evenodd" d="M137.549 135.579L138.254 133.001L142.262 139.688L140.108 139.848L137.549 135.579Z" fill="url(#paint2_linear_3743_114)"/>
<path fill-rule="evenodd" clip-rule="evenodd" d="M128.161 137.866L126.83 135.647L141.908 139.108L143.238 141.328L128.161 137.866Z" fill="url(#paint3_linear_3743_114)"/>
<path fill-rule="evenodd" clip-rule="evenodd" d="M126.83 135.647L129.43 136.244L134.371 144.488L133.672 147.062L126.83 135.647Z" fill="url(#paint4_linear_3743_114)"/>
<path fill-rule="evenodd" clip-rule="evenodd" d="M133.672 147.062L135.432 140.835L133.612 140.417L132.309 144.731L133.672 147.062Z" fill="url(#paint5_linear_3743_114)"/>
<ellipse opacity="0.5" cx="57.7263" cy="54.5711" rx="57.7263" ry="54.5711" transform="matrix(0.870513 -0.492145 0.486107 0.873899 17.9648 73.6946)" fill="#EEFFFE" fill-opacity="0.5"/>
<path opacity="0.65" d="M123.673 50.5969C116.995 47.9846 105.909 45.5759 89.7714 47.7258C89.6113 47.7477 89.4457 47.7353 89.2852 47.6893C89.1247 47.6434 88.9731 47.565 88.8401 47.4592C88.7071 47.3534 88.5959 47.2225 88.5135 47.0752C88.4311 46.9279 88.3793 46.7675 88.3618 46.6043L87.9764 42.9516C87.9469 42.677 88.0163 42.4087 88.1719 42.1952C88.3276 41.9816 88.5592 41.8369 88.8254 41.7868C93.0451 40.9937 110.504 38.5157 124.63 48.5879C124.873 48.7542 125.053 48.9988 125.137 49.2755C125.221 49.5521 125.202 49.8417 125.084 50.0892C124.966 50.3367 124.757 50.525 124.497 50.6186C124.237 50.7122 123.944 50.7045 123.673 50.5969Z" fill="#F8FFFD"/>
<path opacity="0.65" d="M126.748 50.8967C128.476 49.437 130.604 51.938 128.88 53.4006C127.155 54.8632 125.005 52.3712 126.748 50.8967Z" fill="#F8FFFD"/>
<path d="M115.897 134.837C132.241 157.863 137.547 172.663 147.331 198.906" stroke="#9AAEAD" stroke-width="1.37578"/>
<path d="M76.3308 158.76C80.8858 161.739 84.2723 161.754 91.2618 159.891M74.8057 180.931C83.0753 184.888 86.8823 184.324 92.5831 179.82M80.7185 207.346C90.6714 207.386 95.1324 205.236 101.166 197.314M160.488 120.007C164.598 115.171 151.545 105.227 148.145 105.767M169.768 105.024C170.389 97.6722 157.194 91.4612 155.256 93.2576M177.26 86.972C176.424 77.7983 162.53 74.1852 157.879 75.6215" stroke="#D8EAE9" stroke-width="1.37578"/>
<defs>
<linearGradient id="paint0_linear_3743_114" x1="135.506" y1="132.85" x2="138.088" y2="131.302" gradientUnits="userSpaceOnUse">
<stop stop-color="#20FFAF"/>
<stop offset="1" stop-color="#01DACC"/>
</linearGradient>
<linearGradient id="paint1_linear_3743_114" x1="136.222" y1="130.654" x2="135.436" y2="131.125" gradientUnits="userSpaceOnUse">
<stop stop-color="#20FFAF"/>
<stop offset="1" stop-color="#01DACC"/>
</linearGradient>
<linearGradient id="paint2_linear_3743_114" x1="137.022" y1="134.2" x2="140.843" y2="140.574" gradientUnits="userSpaceOnUse">
<stop stop-color="#20FFAF"/>
<stop offset="1" stop-color="#01DACC"/>
</linearGradient>
<linearGradient id="paint3_linear_3743_114" x1="128.449" y1="135.463" x2="134.97" y2="146.343" gradientUnits="userSpaceOnUse">
<stop stop-color="#20FFAF"/>
<stop offset="1" stop-color="#01DACC"/>
</linearGradient>
<linearGradient id="paint4_linear_3743_114" x1="127.396" y1="136.094" x2="133.918" y2="146.974" gradientUnits="userSpaceOnUse">
<stop stop-color="#20FFAF"/>
<stop offset="1" stop-color="#01DACC"/>
</linearGradient>
<linearGradient id="paint5_linear_3743_114" x1="131.484" y1="141.909" x2="134.151" y2="146.828" gradientUnits="userSpaceOnUse">
<stop stop-color="#20FFAF"/>
<stop offset="1" stop-color="#01DACC"/>
</linearGradient>
</defs>
</svg>
