<svg width="201" height="261" viewBox="0 0 201 261" fill="none" xmlns="http://www.w3.org/2000/svg">
<path d="M148.018 90.348C130.296 106.323 123.978 117.995 115.832 141.155C117.775 142.119 122.24 141.785 124.15 140.531C141.095 129.411 146.806 117.88 159.85 103.667L148.018 90.348Z" fill="#C4CDCD"/>
<path d="M159.931 81.9902C158.861 81.1752 149.175 86.7711 147.892 90.9145C150.861 98.8167 153.985 100.81 159.904 103.783C159.904 103.783 167.388 92.4038 166.592 90.7836C165.797 89.1635 163.743 89.2985 161.354 89.6687C161.465 86.4922 161.001 82.8053 159.931 81.9902Z" fill="#776969"/>
<path d="M38.6512 111.486C61.7122 117.608 72.6616 125.108 90.4831 141.994C89.1943 143.738 85.0699 145.48 82.7979 145.237C62.6451 143.079 52.2994 135.427 34.205 128.738L38.6512 111.486Z" fill="#C4CDCD"/>
<path d="M24.2359 109.489C24.816 108.275 35.9887 108.832 39.0213 111.933C39.9879 120.318 38.1189 123.518 34.2094 128.866C34.2094 128.866 22.3564 122.159 22.3241 120.354C22.2919 118.549 24.1816 117.732 26.4756 116.97C24.9265 114.195 23.6559 110.703 24.2359 109.489Z" fill="#776969"/>
<path d="M135.252 181.497L113.647 185.419C117.169 202.072 118.981 212.166 121.991 231.387L140.933 227.949C140.722 204.111 142.102 186.492 135.252 181.497Z" fill="#C4CDCD"/>
<path d="M138.381 242.931C139.939 242.87 143.154 229.757 140.529 225.206C132.123 223.281 127.743 223.524 120.765 227.166C120.765 227.166 124.856 242.53 126.903 243.372C128.951 244.214 130.45 242.61 132.006 240.559C134.082 242.66 136.823 242.992 138.381 242.931Z" fill="#9AAEAD"/>
<path d="M81.7742 191.205L103.38 187.284C105.935 204.112 107.787 214.199 111.724 233.252L92.7819 236.69C84.601 214.299 77.1167 198.289 81.7742 191.205Z" fill="#C4CDCD"/>
<path d="M100.435 249.82C98.9553 250.31 91.3364 239.164 92.1945 233.98C99.3873 229.224 103.573 227.913 111.386 228.869C111.386 228.869 112.956 244.691 111.336 246.199C109.715 247.706 107.747 246.732 105.569 245.358C104.365 248.055 101.915 249.33 100.435 249.82Z" fill="#9AAEAD"/>
<path d="M76.6533 126.099L122.696 117.741C122.696 117.741 146.412 155.361 147.879 178.631C149.346 201.901 114.717 204.791 114.717 204.791C114.717 204.791 81.2822 214.256 74.477 191.955C67.6719 169.654 76.6533 126.099 76.6533 126.099Z" fill="#C4CDCD"/>
<path d="M97.7711 124.339L75.64 123.226C68.386 144.846 70.9738 171.493 66.4256 185.722C60.2615 205.007 108.509 218.128 112.053 203.019C115.597 187.91 109.15 155.845 97.7711 124.339Z" fill="#D4DFDF"/>
<path d="M73.7378 172.472C73.7248 170.332 75.6465 168.543 77.7463 168.741L86.3267 169.549L96.5964 172.016C98.0017 172.354 98.9578 173.584 98.9668 175.066L99.0533 189.348C99.065 191.283 97.4776 192.984 95.5529 193.048C87.1685 193.327 82.0128 192.526 75.5238 189.486C74.4688 188.992 73.8313 187.921 73.824 186.713L73.7378 172.472Z" fill="#C4CDCD"/>
<path d="M101.466 174.941C100.854 171.73 75.9352 166.947 74.1668 168.503C72.3984 170.06 76.0368 183.729 83.15 184.03C90.2632 184.331 102.078 178.151 101.466 174.941Z" fill="#DDF0EF"/>
<path d="M102.09 123.555L121.343 114.93C135.185 132.72 142.017 158.597 150.927 170.383C163.001 186.357 124.692 215.19 116.372 202.235C108.052 189.279 102.787 157 102.09 123.555Z" fill="#D4DFDF"/>
<path d="M139.914 160.503C139.187 158.477 136.753 157.485 134.855 158.441L127.945 161.924C127.801 161.996 127.663 162.079 127.533 162.171L119.522 167.823C118.352 168.649 117.899 170.126 118.393 171.503L123.217 184.951C123.871 186.773 125.944 187.807 127.765 187.172C135.185 184.586 139.454 182.07 144.127 177.047C144.907 176.208 145.116 175.003 144.717 173.892L139.914 160.503Z" fill="#C4CDCD"/>
<path d="M116.145 172.275C115.588 169.055 136.057 156.033 138.159 156.887C140.261 157.74 141.715 171.806 135.508 174.525C129.3 177.244 116.702 175.496 116.145 172.275Z" fill="#DDF0EF"/>
<path d="M116.44 71.8319C116.435 71.8294 116.43 71.8266 116.425 71.8237L108.635 67.4939C108.635 67.4939 105.636 54.063 105.457 49.9847C105.278 45.9065 105.281 39.74 108.488 40.3914C111.694 41.0428 110.943 53.9211 114.06 52.5334C117.177 51.1458 116.444 33.1924 117.768 29.6635C119.093 26.1347 126.49 31.0385 125.064 37.3824C123.643 43.7085 114.702 70.7761 116.425 71.8237L116.44 71.8319Z" fill="#776969"/>
<path d="M66.3698 80.9208C66.3736 80.9167 66.3774 80.9123 66.381 80.9079L72.3103 74.0877C72.3103 74.0877 70.4106 60.4572 69.1321 56.5786C67.8535 52.6999 65.6577 46.9327 62.8157 48.6819C59.9736 50.4311 65.2716 62.2116 61.7902 62.0216C58.3089 61.8316 52.628 44.7764 50.1036 41.9462C47.5792 39.116 42.2309 46.3333 45.8532 51.7609C49.4654 57.1733 67.6607 79.3152 66.381 80.9079L66.3698 80.9208Z" fill="#776969"/>
<path d="M121.643 54.5832C113.824 55.2092 113.936 68.9384 113.936 68.9384L123.614 78.5517C123.614 78.5517 139.555 74.6004 139.535 64.2919C139.514 53.9833 136.84 49.4449 133.884 49.1881C130.929 48.9312 129.462 53.9571 121.643 54.5832Z" fill="#C49E80"/>
<path d="M124.183 66.0123C119.645 66.5167 119.273 72.1189 119.273 72.1189L124.559 75.7362C124.559 75.7362 133.896 73.6156 134.213 69.4071C134.529 65.1986 133.128 63.4307 131.428 63.4198C129.729 63.409 128.721 65.5078 124.183 66.0123Z" fill="#E1C7B3"/>
<path d="M54.2697 66.8133C61.8098 64.6515 66.5298 77.5443 66.5298 77.5443L60.8484 89.9455C60.8484 89.9455 44.5356 91.8489 40.9316 82.1908C37.3275 72.5328 38.2366 67.3439 40.913 66.0648C43.5894 64.7857 46.7296 68.9752 54.2697 66.8133Z" fill="#C49E80"/>
<path d="M55.909 78.4052C60.3348 77.2825 62.6519 82.3966 62.6519 82.3966L58.9743 87.641C58.9743 87.641 49.4875 88.9373 47.7123 85.1084C45.9371 81.2796 46.6275 79.132 48.2147 78.5246C49.802 77.9172 51.4832 79.5279 55.909 78.4052Z" fill="#E1C7B3"/>
<ellipse cx="95.4368" cy="98.1203" rx="37.9842" ry="35.1223" transform="rotate(-10.2882 95.4368 98.1203)" fill="#C49E80"/>
<ellipse cx="97.5976" cy="108.569" rx="17.9514" ry="13.5286" transform="rotate(-10.2882 97.5976 108.569)" fill="#E1C7B3"/>
<path d="M95.113 106.485C93.6624 106.029 88.5585 103.883 90.3461 102.074C91.1431 101.267 94.7506 102.891 95.9984 102.623C97.183 102.368 99.5184 100.247 100.585 100.215C104.31 102.196 99.054 107.726 95.113 106.485Z" fill="#372831" stroke="#372831" stroke-width="1.37181" stroke-linecap="round"/>
<path d="M87.7658 113.208C91.3593 116.541 97.6306 117.333 97.7645 111.393M97.7645 111.393C100.023 116.719 104.246 115.423 107.988 109.538M97.7645 111.393L96.8639 106.432" stroke="#372831" stroke-width="2.05772" stroke-linecap="round"/>
<ellipse cx="77.2862" cy="94.2752" rx="4.68298" ry="7.28463" transform="rotate(-10.2882 77.2862 94.2752)" fill="#776969"/>
<ellipse cx="1.54213" cy="2.64627" rx="1.54213" ry="2.64627" transform="matrix(0.983922 -0.1786 0.274368 0.961625 74.7725 91.7905)" fill="white"/>
<ellipse cx="109.542" cy="88.4211" rx="4.68298" ry="7.28463" transform="rotate(-10.2882 109.542 88.4211)" fill="#776969"/>
<ellipse cx="1.54213" cy="2.64627" rx="1.54213" ry="2.64627" transform="matrix(0.983922 -0.1786 0.274368 0.961625 105.912 85.907)" fill="white"/>
<path fill-rule="evenodd" clip-rule="evenodd" d="M122.507 138.426L125.094 137.654L125.315 138.392L122.727 139.165L122.507 138.426Z" fill="url(#paint0_linear_3743_186)"/>
<path fill-rule="evenodd" clip-rule="evenodd" d="M123.81 136.597L124.61 139.279L124.034 140.297L123.245 137.655L123.81 136.597Z" fill="url(#paint1_linear_3743_186)"/>
<path fill-rule="evenodd" clip-rule="evenodd" d="M123.969 141.545L125.127 139.506L127.085 146.063L125.219 145.731L123.969 141.545Z" fill="url(#paint2_linear_3743_186)"/>
<path fill-rule="evenodd" clip-rule="evenodd" d="M115.487 141.454L114.837 139.278L126.909 145.493L127.559 147.669L115.487 141.454Z" fill="url(#paint3_linear_3743_186)"/>
<path fill-rule="evenodd" clip-rule="evenodd" d="M114.837 139.278L116.919 140.349L119.332 148.432L118.179 150.47L114.837 139.278Z" fill="url(#paint4_linear_3743_186)"/>
<path fill-rule="evenodd" clip-rule="evenodd" d="M118.179 150.469L121.027 145.556L119.57 144.806L117.526 148.192L118.179 150.469Z" fill="url(#paint5_linear_3743_186)"/>
<path d="M102.392 138.548L112.438 193.893" stroke="#C4CDCD" stroke-width="1.37181"/>
<ellipse cx="90.9214" cy="73.6778" rx="56.2499" ry="59.8595" transform="rotate(-10.2882 90.9214 73.6778)" fill="#DDF0EF" fill-opacity="0.25"/>
<path opacity="0.65" d="M135.58 73.2677C131.908 62.992 123.438 47.7871 104.143 31.0894C103.951 30.9243 103.795 30.7198 103.686 30.4891C103.578 30.2583 103.518 30.0066 103.511 29.7503C103.504 29.494 103.55 29.2388 103.647 29.0014C103.743 28.764 103.887 28.5497 104.07 28.3725L108.171 24.4133C108.479 24.115 108.88 23.9377 109.304 23.9135C109.727 23.8892 110.145 24.0193 110.481 24.2807C115.811 28.4248 136.872 46.3423 139.041 72.4492C139.087 72.8916 138.972 73.3365 138.717 73.6997C138.463 74.0629 138.087 74.319 137.66 74.4199C137.234 74.5207 136.787 74.4592 136.403 74.2469C136.02 74.0345 135.727 73.6861 135.58 73.2677Z" fill="#F8FFFD"/>
<path opacity="0.65" d="M138.383 77.1298C141.962 77.7353 141.079 82.6145 137.498 82.0152C133.918 81.4159 134.769 76.5199 138.383 77.1298Z" fill="#F8FFFD"/>
<path d="M44.7638 130.97C49.454 126.167 49.8614 122.742 48.4541 115.932M54.9595 134.928C59.7966 130.072 59.9724 126.84 58.8109 120.778M64.321 139.343C67.4779 134.907 67.7535 132.1 67.2572 126.887M130.567 113.561C131.748 120.885 132.673 124.611 138.259 125.617M136.166 103.985C137.679 112.884 139.235 116.601 145.31 117.305M143.486 97.1531C145.487 105.056 147.24 107.721 151.285 109.801" stroke="#DDF0EF" stroke-width="1.37181"/>
<defs>
<linearGradient id="paint0_linear_3743_186" x1="122.822" y1="138.782" x2="125.353" y2="138.026" gradientUnits="userSpaceOnUse">
<stop stop-color="#20FFAF"/>
<stop offset="1" stop-color="#01DACC"/>
</linearGradient>
<linearGradient id="paint1_linear_3743_186" x1="123.906" y1="137.069" x2="123.135" y2="137.299" gradientUnits="userSpaceOnUse">
<stop stop-color="#20FFAF"/>
<stop offset="1" stop-color="#01DACC"/>
</linearGradient>
<linearGradient id="paint2_linear_3743_186" x1="123.82" y1="140.259" x2="125.686" y2="146.508" gradientUnits="userSpaceOnUse">
<stop stop-color="#20FFAF"/>
<stop offset="1" stop-color="#01DACC"/>
</linearGradient>
<linearGradient id="paint3_linear_3743_186" x1="116.254" y1="139.473" x2="119.439" y2="150.14" gradientUnits="userSpaceOnUse">
<stop stop-color="#20FFAF"/>
<stop offset="1" stop-color="#01DACC"/>
</linearGradient>
<linearGradient id="paint4_linear_3743_186" x1="115.222" y1="139.781" x2="118.407" y2="150.449" gradientUnits="userSpaceOnUse">
<stop stop-color="#20FFAF"/>
<stop offset="1" stop-color="#01DACC"/>
</linearGradient>
<linearGradient id="paint5_linear_3743_186" x1="117.437" y1="145.613" x2="118.638" y2="150.374" gradientUnits="userSpaceOnUse">
<stop stop-color="#20FFAF"/>
<stop offset="1" stop-color="#01DACC"/>
</linearGradient>
</defs>
</svg>
