<svg width="142" height="163" viewBox="0 0 142 163" fill="none" xmlns="http://www.w3.org/2000/svg">
<path d="M41.4872 127.571C38.7255 137.116 37.3143 145.876 45.2401 148.169C53.166 150.462 54.7281 140.81 57.4898 131.265C60.2515 121.719 66.7749 118.415 52.6381 114.325C44.7123 112.032 44.2489 118.025 41.4872 127.571Z" fill="#9AAEAD"/>
<path d="M88.7959 136.454C88.7195 146.391 87.573 155.189 79.3223 155.125C71.0717 155.062 72.3281 145.366 72.4045 135.429C72.4809 125.492 67.1712 120.465 81.8874 120.578C90.1381 120.641 88.8723 126.517 88.7959 136.454Z" fill="#9AAEAD"/>
<g filter="url(#filter0_d_3743_150)">
<path d="M39.2154 57.8921C42.2171 58.1197 44.1537 61.592 45.774 63.5652C46.612 65.6156 47.0236 68.4145 46.8144 70.6203C46.6855 71.98 46.1907 73.3103 46.0578 74.6637C45.9354 75.9102 45.8433 77.081 45.4337 78.2795C44.9399 79.7243 44.8698 81.2481 44.4356 82.7046C43.9675 84.2749 43.5286 85.935 43.2926 87.5564C42.8342 90.7061 41.8252 93.6585 41.0588 96.7386C40.3053 99.7669 39.2571 102.729 38.3533 105.71C37.5365 108.405 36.9079 111.771 34.5576 113.561C32.4149 115.193 28.7413 113.226 27.0338 111.878C24.214 109.653 22.1986 106.684 20.1063 103.814C13.4482 94.6807 8.61497 82.6097 12.6614 71.4068C13.7221 68.47 15.2786 65.4889 18.0609 63.8397C20.9835 62.1074 23.7552 60.1248 26.9062 58.8093C29.4761 57.7364 32.434 57.378 35.2002 57.5877L39.2154 57.8921Z" fill="#543A3A"/>
<path d="M117.918 80.3953C114.649 81.0444 112.36 81.95 109.349 83.3414C106.919 84.7436 105.981 87.2167 105.509 89.8577C104.933 93.0841 106.294 95.6912 109.365 96.8213C111.48 97.5995 114.792 97.2993 116.941 96.6146C119.925 95.6638 123.771 95.4107 126.205 93.2867C127.321 92.3128 128.666 91.4683 129.102 89.9722C129.533 88.4957 129.665 87.314 129.713 85.7802C129.802 82.9011 128.166 81.1877 125.186 80.3889C122.376 79.6354 120.681 79.847 117.918 80.3953Z" fill="#9AAEAD"/>
<path d="M41.6103 70.6468C43.7471 69.8559 44.9397 68.5006 47.3788 68.1427C53.7014 69.9617 51.3435 77.6287 49.0315 80.8588C48.114 82.1406 46.2626 82.8347 44.9348 83.8056C43.4206 84.9128 41.8773 85.798 40.223 86.7424C38.1336 87.9351 34.5648 88.9171 31.9182 88.0542C29.3394 87.2134 25.0081 86.4639 24.7628 83.4815C24.5231 80.568 26.2099 77.9481 28.8989 76.2538C31.5937 74.5557 34.5185 73.7325 37.4158 72.3716C38.7894 71.7264 40.1646 71.182 41.6103 70.6468Z" fill="#9AAEAD"/>
<path d="M102.561 42.5548C93.8102 34.7765 86.8693 31.8782 73.9597 35.9865C65.1925 36.902 58.0031 46.7551 56.0194 49.7659C54.3411 52.3132 52.2948 54.5967 50.7456 57.2637C48.5996 60.9584 46.4394 64.564 44.552 68.4248C40.9609 75.7705 37.4768 83.1808 35.3638 91.1836C33.8139 97.0536 32.7679 103.053 32.0346 109.1C31.618 112.536 31.659 116.367 33.5625 119.181C35.5389 122.103 37.379 124.466 39.9562 126.757C44.7175 130.99 50.122 134.273 55.9864 136.38C61.4327 138.338 67.0553 140.227 72.7634 141.059C75.3367 141.434 77.9331 141.557 80.5212 141.648C82.8134 141.73 84.8688 140.994 87.1062 140.782C90.4891 140.462 93.4688 138.285 96.1235 136.108C98.9649 133.778 101.418 131.431 103.229 128.015C105.6 123.541 107.541 118.98 108.29 113.841C108.703 111.005 109.355 108.173 109.772 105.309C110.205 102.337 110.397 99.3761 110.831 96.3941C111.793 89.793 112.628 82.7402 112.231 76.0933C112.078 73.5327 112.413 70.6286 111.83 68.1485C111.571 67.0492 111.479 65.5536 111.416 64.4078C111.326 62.7832 110.83 61.1804 110.574 59.5826C110.018 56.1172 108.724 52.7353 107.338 49.6183C106.259 47.1916 104.502 44.2806 102.561 42.5548Z" fill="url(#paint0_linear_3743_150)"/>
<path d="M78.8066 67.362C79.8154 66.8701 81.3058 67.223 82.3817 67.5437C83.8734 69.0762 81.3733 70.5784 79.6571 69.3602C79.0253 68.9117 77.6457 67.928 78.8066 67.362Z" fill="#372831" stroke="#372831" stroke-width="1.31262" stroke-linecap="round"/>
<path d="M77.2051 75.8543C77.311 74.9726 77.4615 74.0941 77.5895 73.2154C78.4353 72.859 79.5209 72.4403 80.2545 71.9473C81.1026 71.3776 81.5918 72.2791 82.2323 72.7087C82.9845 73.2132 83.2865 73.5371 83.1596 74.4081C83.0491 75.1668 82.9568 75.9998 82.858 76.6778C82.9056 77.6477 81.9196 77.7241 81.0321 77.5949L78.5987 77.2404C77.9178 77.0087 77.1169 76.5882 77.2051 75.8543Z" fill="#E0D0C1"/>
<path d="M71.5044 72.079C74.2021 74.3662 79.786 73.8746 80.9153 70.3123C81.2831 73.6707 84.6851 76.2569 89.3526 74.0429" stroke="#372831" stroke-width="1.96893" stroke-linecap="round"/>
</g>
<path d="M74.1578 59.4357C73.8027 61.8729 71.9112 63.615 70.2052 63.3665C68.4991 63.118 67.1189 61.3499 67.474 58.9126C67.829 56.4754 69.7848 54.292 71.4909 54.5405C73.197 54.789 74.5128 56.9984 74.1578 59.4357Z" fill="#372831"/>
<path d="M95.7816 62.5856C95.4265 65.0228 93.535 66.7649 91.8289 66.5164C90.1229 66.2679 88.7427 64.4998 89.0978 62.0625C89.4528 59.6253 91.4086 57.4419 93.1147 57.6904C94.8207 57.9389 96.1366 60.1483 95.7816 62.5856Z" fill="#372831"/>
<ellipse cx="0.969051" cy="1.79183" rx="0.969051" ry="1.79183" transform="matrix(0.973214 0.241277 -0.199893 0.976612 69.5786 55.1633)" fill="white"/>
<ellipse cx="0.969051" cy="1.79183" rx="0.969051" ry="1.79183" transform="matrix(0.973214 0.241277 -0.199893 0.976612 91.6438 58.3774)" fill="white"/>
<path d="M67.8508 42.0465C63.7325 42.2786 61.6045 37.8216 60.4663 34.4636C59.8985 31.2913 62.5382 29.4437 65.2443 29.0978C68.4434 28.6889 72.8351 33.0278 72.9714 36.2851C73.0197 37.4398 71.9235 37.4015 71.0253 38.2694C70.0452 39.2165 69.2777 41.9661 67.8508 42.0465Z" fill="#AE8873"/>
<path d="M110.34 38.7256C107.108 38.6157 102.511 41.6953 101.954 44.9691C101.485 48.1868 103.351 51.136 106.965 50.7955C108.797 50.6229 110.601 49.9846 112.095 48.8711C113.242 48.0155 114.867 46.877 115.218 45.3859C116.009 42.0272 113.733 38.841 110.34 38.7256Z" fill="#AE8873"/>
<path fill-rule="evenodd" clip-rule="evenodd" d="M112.305 81.5122C103.453 84.6659 93.1671 85.7631 82.4915 84.2079C67.292 81.9937 54.3836 74.8517 46.1646 65.29C45.6101 66.3206 45.0703 67.3632 44.5511 68.4252C40.96 75.7709 37.476 83.1812 35.3629 91.184C33.813 97.054 32.767 103.053 32.0337 109.101C31.6171 112.536 31.6582 116.367 33.5616 119.181C35.5381 122.104 37.3781 124.467 39.9553 126.758C44.7167 130.99 50.1212 134.273 55.9855 136.381C61.4318 138.338 67.0544 140.228 72.7625 141.059C75.3358 141.434 77.9322 141.557 80.5203 141.649C81.9112 141.698 83.2149 141.447 84.5249 141.194C85.3739 141.03 86.2255 140.866 87.1053 140.783C90.4882 140.462 93.4679 138.285 96.1226 136.108C98.9641 133.778 101.417 131.432 103.228 128.016C105.599 123.542 107.54 118.98 108.289 113.842C108.495 112.427 108.76 111.014 109.027 109.597C109.294 108.173 109.562 106.745 109.771 105.31C109.988 103.825 110.144 102.342 110.3 100.859C110.456 99.3735 110.613 97.8867 110.83 96.3945C111.534 91.5636 112.17 86.4908 112.305 81.5122Z" fill="#D8EAE9"/>
<ellipse opacity="0.5" cx="83.4058" cy="50.0905" rx="45.7107" ry="40.5822" transform="rotate(8.28833 83.4058 50.0905)" fill="#EEFFFE" fill-opacity="0.5"/>
<path fill-rule="evenodd" clip-rule="evenodd" d="M98.6941 96.8391L101.105 97.1904L101.005 97.8785L98.5938 97.5272L98.6941 96.8391Z" fill="url(#paint1_linear_3743_150)"/>
<path fill-rule="evenodd" clip-rule="evenodd" d="M100.456 95.8384L100.092 98.3373L99.2327 98.9519L99.5915 96.4892L100.456 95.8384Z" fill="url(#paint2_linear_3743_150)"/>
<path fill-rule="evenodd" clip-rule="evenodd" d="M98.7035 99.9475L100.426 98.719L99.5363 104.829L98.1353 103.848L98.7035 99.9475Z" fill="url(#paint3_linear_3743_150)"/>
<path fill-rule="evenodd" clip-rule="evenodd" d="M91.7971 96.648L92.0925 94.6199L99.6095 104.296L99.314 106.324L91.7971 96.648Z" fill="url(#paint4_linear_3743_150)"/>
<path fill-rule="evenodd" clip-rule="evenodd" d="M92.0925 94.6199L93.3886 96.2881L92.2912 103.821L90.5731 105.05L92.0925 94.6199Z" fill="url(#paint5_linear_3743_150)"/>
<path fill-rule="evenodd" clip-rule="evenodd" d="M90.5729 105.05L94.7717 102.111L93.8645 100.944L90.9046 102.938L90.5729 105.05Z" fill="url(#paint6_linear_3743_150)"/>
<path d="M76.0436 89.8032C74.4939 106.478 71.9579 115.3 65.3991 130.39" stroke="#9AAEAD" stroke-width="1.31262"/>
<path d="M116.393 83.5131C117.785 88.1644 117.33 90.5543 115.668 94.6741M121.251 82.6435C123.674 86.8381 123.091 89.2111 121.253 93.4597" stroke="#D8EAE9" stroke-width="1.31262"/>
<path d="M38.6135 85.1445C36.1407 80.9662 36.0062 78.537 36.6253 74.1381M34.1079 87.16C30.7455 83.6734 30.739 81.2298 31.4981 76.6634" stroke="#D8EAE9" stroke-width="1.31262"/>
<path opacity="0.65" d="M46.1725 40.3245C50.2427 34.2995 58.2254 25.8869 73.4427 18.3021C73.594 18.2273 73.7283 18.1211 73.8368 17.9902C73.9453 17.8593 74.0256 17.7067 74.0724 17.5424C74.1193 17.3781 74.1316 17.2057 74.1087 17.0366C74.0857 16.8674 74.0281 16.7052 73.9394 16.5605L71.9478 13.3265C71.7984 13.083 71.5684 12.9021 71.299 12.8164C71.0297 12.7306 70.7388 12.7456 70.4785 12.8587C66.3527 14.6516 49.7936 22.7315 44.0738 39.2234C43.971 39.5014 43.9716 39.8076 44.0758 40.0841C44.1799 40.3607 44.3803 40.5883 44.6389 40.7239C44.8975 40.8596 45.1962 40.8938 45.4788 40.8202C45.7615 40.7466 46.0083 40.5702 46.1725 40.3245Z" fill="#F8FFFD"/>
<path opacity="0.65" d="M43.7244 42.3538C41.3138 42.1523 41.0768 45.4478 43.4869 45.6534C45.897 45.859 46.1582 42.5582 43.7244 42.3538Z" fill="#F8FFFD"/>
<defs>
<filter id="filter0_d_3743_150" x="8.55567" y="34.1223" width="123.786" height="112.783" filterUnits="userSpaceOnUse" color-interpolation-filters="sRGB">
<feFlood flood-opacity="0" result="BackgroundImageFix"/>
<feColorMatrix in="SourceAlpha" type="matrix" values="0 0 0 0 0 0 0 0 0 0 0 0 0 0 0 0 0 0 127 0" result="hardAlpha"/>
<feOffset dy="2.62524"/>
<feGaussianBlur stdDeviation="1.31262"/>
<feComposite in2="hardAlpha" operator="out"/>
<feColorMatrix type="matrix" values="0 0 0 0 0 0 0 0 0 0 0 0 0 0 0 0 0 0 0.25 0"/>
<feBlend mode="normal" in2="BackgroundImageFix" result="effect1_dropShadow_3743_150"/>
<feBlend mode="normal" in="SourceGraphic" in2="effect1_dropShadow_3743_150" result="shape"/>
</filter>
<linearGradient id="paint0_linear_3743_150" x1="81.5648" y1="33.8519" x2="66.0889" y2="140.087" gradientUnits="userSpaceOnUse">
<stop stop-color="#AD806B"/>
<stop offset="1" stop-color="#C99A81"/>
</linearGradient>
<linearGradient id="paint1_linear_3743_150" x1="98.8167" y1="97.2498" x2="101.176" y2="97.5935" gradientUnits="userSpaceOnUse">
<stop stop-color="#20FFAF"/>
<stop offset="1" stop-color="#01DACC"/>
</linearGradient>
<linearGradient id="paint2_linear_3743_150" x1="100.355" y1="96.2612" x2="99.637" y2="96.1566" gradientUnits="userSpaceOnUse">
<stop stop-color="#20FFAF"/>
<stop offset="1" stop-color="#01DACC"/>
</linearGradient>
<linearGradient id="paint3_linear_3743_150" x1="99.0704" y1="98.8379" x2="98.222" y2="104.662" gradientUnits="userSpaceOnUse">
<stop stop-color="#20FFAF"/>
<stop offset="1" stop-color="#01DACC"/>
</linearGradient>
<linearGradient id="paint4_linear_3743_150" x1="93.1773" y1="95.3181" x2="91.729" y2="105.26" gradientUnits="userSpaceOnUse">
<stop stop-color="#20FFAF"/>
<stop offset="1" stop-color="#01DACC"/>
</linearGradient>
<linearGradient id="paint5_linear_3743_150" x1="92.2158" y1="95.178" x2="90.7675" y2="105.12" gradientUnits="userSpaceOnUse">
<stop stop-color="#20FFAF"/>
<stop offset="1" stop-color="#01DACC"/>
</linearGradient>
<linearGradient id="paint6_linear_3743_150" x1="91.8119" y1="100.793" x2="90.9842" y2="105.147" gradientUnits="userSpaceOnUse">
<stop stop-color="#20FFAF"/>
<stop offset="1" stop-color="#01DACC"/>
</linearGradient>
</defs>
</svg>
