<svg width="1276" height="444" viewBox="0 0 1276 444" fill="none" xmlns="http://www.w3.org/2000/svg">
<rect opacity="0.65" x="135" y="28" width="190.919" height="190.919" rx="14" transform="rotate(45 135 28)" fill="#7359CB"/>
<rect x="135" y="40.2614" width="173.579" height="173.579" rx="12" transform="rotate(45 135 40.2614)" fill="#403074"/>
<path d="M95.249 115.473C95.249 118.938 93.599 120.126 90.464 120.126H83.534V127.089H95.249V159H104.06V112.998H95.249V115.473ZM134.863 159.627C145.159 159.627 152.155 153.588 152.155 144.777C152.155 139.365 148.987 135.702 144.169 133.953C147.271 132.27 149.482 129.234 149.482 125.01C149.482 117.585 143.575 112.371 135.094 112.371C126.052 112.371 119.551 118.146 119.551 126.198L128.263 126.759C128.296 123.063 130.771 120.786 134.797 120.786C138.427 120.786 140.704 122.7 140.704 125.934C140.704 129.927 137.503 131.544 132.586 131.544V138.441C139.582 138.441 143.344 140.157 143.344 144.711C143.344 148.803 140.341 151.212 135.16 151.212C129.781 151.212 126.316 148.308 126.316 143.754L117.571 144.282C117.571 153.489 124.468 159.627 134.863 159.627ZM177.687 156.525V142.962H191.25V136.428H177.687V122.865H171.087V136.428H157.524V142.962H171.087V156.525H177.687Z" fill="url(#paint0_linear_1901:655)"/>
<path d="M92.5902 194V189.863H96.6572V194H98.6032V184.242H96.6572V188.078H92.5902V184.242H90.6512V194H92.5902ZM108.874 194L104.912 184.242H103.47L99.5006 194H101.615L102.301 192.18H106.081L106.76 194H108.874ZM104.198 187.119L105.437 190.444H102.952L104.198 187.119ZM113.562 194.231C115.655 194.231 117.244 193.111 117.909 191.277L116.075 190.619C115.676 191.725 114.78 192.376 113.562 192.376C111.875 192.376 110.797 191.144 110.797 189.114C110.797 187.098 111.875 185.866 113.562 185.866C114.78 185.866 115.676 186.517 116.075 187.623L117.909 186.965C117.244 185.131 115.655 184.011 113.562 184.011C110.762 184.011 108.851 186.055 108.851 189.114C108.851 192.187 110.762 194.231 113.562 194.231ZM127.44 194L123.681 188.022L127.412 184.242H124.766L121.028 188.148V184.242H119.089V194H121.028V190.703L122.281 189.436L125.137 194H127.44ZM136.915 194L132.953 184.242H131.511L127.542 194H129.656L130.342 192.18H134.122L134.801 194H136.915ZM132.239 187.119L133.478 190.444H130.993L132.239 187.119ZM140.63 194V185.971H143.584V184.242H135.695V185.971H138.663V194H140.63ZM146.486 194V189.863H150.553V194H152.499V184.242H150.553V188.078H146.486V184.242H144.547V194H146.486ZM158.535 194.231C161.328 194.231 163.253 192.194 163.253 189.128C163.253 186.048 161.356 184.011 158.535 184.011C155.735 184.011 153.824 186.055 153.824 189.128C153.824 192.187 155.735 194.231 158.535 194.231ZM158.535 192.376C156.848 192.376 155.77 191.151 155.77 189.128C155.77 187.091 156.848 185.866 158.535 185.866C160.229 185.866 161.3 187.119 161.3 189.128C161.3 191.123 160.229 192.376 158.535 192.376ZM170.518 190.654L166.563 184.242H164.568V194H166.507V187.56L170.448 194H172.457V184.242H170.518V190.654ZM177.444 194.196C179.509 194.196 180.881 192.943 180.881 191.186C180.881 189.646 179.908 188.841 178.109 188.162C176.709 187.637 176.24 187.273 176.24 186.685C176.24 186.132 176.723 185.733 177.353 185.733C177.976 185.733 178.487 186.111 178.872 186.783L180.412 185.845C179.796 184.627 178.739 184.011 177.409 184.011C175.54 184.011 174.294 185.138 174.294 186.72C174.294 188.211 175.19 189.058 177.101 189.793C178.361 190.276 178.956 190.619 178.956 191.305C178.956 192.033 178.319 192.474 177.507 192.474C176.443 192.474 175.715 191.879 175.512 190.717L173.622 191.186C173.909 193.006 175.33 194.196 177.444 194.196ZM90.5301 212V207.863H94.5971V212H96.5431V202.242H94.5971V206.078H90.5301V202.242H88.5911V212H90.5301ZM102.578 212.231C105.371 212.231 107.296 210.194 107.296 207.128C107.296 204.048 105.399 202.011 102.578 202.011C99.7784 202.011 97.8674 204.055 97.8674 207.128C97.8674 210.187 99.7784 212.231 102.578 212.231ZM102.578 210.376C100.891 210.376 99.8134 209.151 99.8134 207.128C99.8134 205.091 100.891 203.866 102.578 203.866C104.272 203.866 105.343 205.119 105.343 207.128C105.343 209.123 104.272 210.376 102.578 210.376ZM111.799 212.196C113.864 212.196 115.236 210.943 115.236 209.186C115.236 207.646 114.263 206.841 112.464 206.162C111.064 205.637 110.595 205.273 110.595 204.685C110.595 204.132 111.078 203.733 111.708 203.733C112.331 203.733 112.842 204.111 113.227 204.783L114.767 203.845C114.151 202.627 113.094 202.011 111.764 202.011C109.895 202.011 108.649 203.138 108.649 204.72C108.649 206.211 109.545 207.058 111.456 207.793C112.716 208.276 113.311 208.619 113.311 209.305C113.311 210.033 112.674 210.474 111.862 210.474C110.798 210.474 110.07 209.879 109.867 208.717L107.977 209.186C108.264 211.006 109.685 212.196 111.799 212.196ZM120.586 212V203.971H123.54V202.242H115.651V203.971H118.619V212H120.586ZM131.021 212V210.264H126.443V207.856H130.741V206.12H126.443V203.971H131.021V202.242H124.504V212H131.021ZM135.347 212C138.658 212 140.471 210.306 140.471 207.198C140.471 204.034 138.602 202.242 135.361 202.242H132.484V212H135.347ZM134.423 204.02H135.326C137.307 204.02 138.511 204.755 138.511 207.121C138.511 209.557 137.279 210.215 135.151 210.215H134.423V204.02ZM148.418 212.196C150.483 212.196 151.855 210.943 151.855 209.186C151.855 207.646 150.882 206.841 149.083 206.162C147.683 205.637 147.214 205.273 147.214 204.685C147.214 204.132 147.697 203.733 148.327 203.733C148.95 203.733 149.461 204.111 149.846 204.783L151.386 203.845C150.77 202.627 149.713 202.011 148.383 202.011C146.514 202.011 145.268 203.138 145.268 204.72C145.268 206.211 146.164 207.058 148.075 207.793C149.335 208.276 149.93 208.619 149.93 209.305C149.93 210.033 149.293 210.474 148.481 210.474C147.417 210.474 146.689 209.879 146.486 208.717L144.596 209.186C144.883 211.006 146.304 212.196 148.418 212.196ZM155.082 212V202.242H153.143V212H155.082ZM162.752 208.654L158.797 202.242H156.802V212H158.741V205.56L162.682 212H164.691V202.242H162.752V208.654ZM170.721 212.231C172.814 212.231 174.403 211.111 175.068 209.277L173.234 208.619C172.835 209.725 171.939 210.376 170.721 210.376C169.034 210.376 167.956 209.144 167.956 207.114C167.956 205.098 169.034 203.866 170.721 203.866C171.939 203.866 172.835 204.517 173.234 205.623L175.068 204.965C174.403 203.131 172.814 202.011 170.721 202.011C167.921 202.011 166.01 204.055 166.01 207.114C166.01 210.187 167.921 212.231 170.721 212.231ZM182.766 212V210.264H178.188V207.856H182.486V206.12H178.188V203.971H182.766V202.242H176.249V212H182.766ZM123.042 228.264C125.121 226.99 126.486 225.247 126.486 223.28C126.486 221.376 125.198 220.137 123.392 220.137C121.18 220.137 119.983 221.978 119.983 223.714L121.817 223.861C121.866 222.965 122.195 221.943 123.343 221.943C124.239 221.943 124.631 222.552 124.631 223.336C124.631 225.527 121.551 227.55 120.081 228.607V230H126.871V228.264H123.042ZM131.496 230.133C134.576 230.133 134.933 227.158 134.933 225.072C134.933 223.098 134.611 220.081 131.489 220.081C128.353 220.081 128.045 223.112 128.045 225.065C128.045 227.116 128.374 230.133 131.496 230.133ZM131.496 228.348C130.166 228.348 129.949 226.829 129.949 225.128C129.949 223.357 130.166 221.88 131.489 221.88C132.784 221.88 133.029 223.322 133.029 225.128C133.029 226.871 132.784 228.348 131.496 228.348ZM139.321 220.767C139.321 221.502 138.971 221.754 138.306 221.754H136.836V223.231H139.321V230H141.19V220.242H139.321V220.767ZM147.788 223.245C147.382 223.245 146.913 223.301 146.423 223.574L146.731 221.971H150.721V220.242H145.198L144.239 225.401L145.975 225.835C146.255 225.38 146.745 224.988 147.536 224.988C148.719 224.988 149.174 225.758 149.174 226.577C149.174 227.431 148.691 228.362 147.508 228.362C146.381 228.362 145.849 227.543 145.779 226.843L143.952 227.158C144.183 228.824 145.653 230.147 147.536 230.147C149.657 230.147 151.148 228.432 151.148 226.577C151.148 224.806 149.79 223.245 147.788 223.245Z" fill="#E2D6FF"/>
<path d="M77 220L77.6845 237.931C77.6925 238.14 77.86 238.308 78.0689 238.316L96 239L78.0689 239.684C77.86 239.692 77.6925 239.86 77.6845 240.069L77 258L76.3155 240.069C76.3075 239.86 76.14 239.692 75.9311 239.684L58 239L75.9311 238.316C76.14 238.308 76.3075 238.14 76.3155 237.931L77 220Z" fill="#20FFAF"/>
<rect opacity="0.65" x="638" width="230.517" height="230.517" rx="14" transform="rotate(45 638 0)" fill="#7359CB"/>
<rect x="638" y="12.2831" width="213.145" height="213.145" rx="12" transform="rotate(45 638 12.2831)" fill="#403074"/>
<path d="M555.764 150.431C555.764 145.742 552.801 143.291 547.323 141.223C543.06 139.625 541.632 138.516 541.632 136.726C541.632 135.042 543.103 133.827 545.021 133.827C546.918 133.827 548.474 134.978 549.647 137.024L554.336 134.168C552.78 131.099 550.307 129.287 547.195 128.754V124.555H542.954V128.775C538.52 129.564 535.707 132.676 535.707 136.832C535.707 141.372 538.435 143.952 544.254 146.19C548.091 147.66 549.902 148.705 549.902 150.794C549.902 153.01 547.963 154.353 545.49 154.353C542.25 154.353 540.034 152.542 539.415 149.003L533.66 150.431C534.428 155.291 537.838 158.659 542.996 159.426V164.009H547.238V159.469C552.439 158.766 555.764 155.206 555.764 150.431ZM569.32 130.886C569.32 133.124 568.254 133.891 566.229 133.891H561.753V138.388H569.32V159H575.011V129.287H569.32V130.886ZM594.637 130.886C594.637 133.124 593.571 133.891 591.546 133.891H587.07V138.388H594.637V159H600.328V129.287H594.637V130.886ZM620.551 159.405C629.929 159.405 631.016 150.346 631.016 143.994C631.016 137.983 630.036 128.797 620.529 128.797C610.98 128.797 610.042 138.026 610.042 143.973C610.042 150.218 611.044 159.405 620.551 159.405ZM620.551 153.97C616.501 153.97 615.84 149.344 615.84 144.165C615.84 138.772 616.501 134.275 620.529 134.275C624.473 134.275 625.219 138.665 625.219 144.165C625.219 149.472 624.473 153.97 620.551 153.97ZM638.263 165.267L643.592 152.264H637.24L634.554 165.267H638.263ZM655.588 153.714C661.919 149.835 666.075 144.527 666.075 138.538C666.075 132.74 662.153 128.967 656.654 128.967C649.919 128.967 646.274 134.573 646.274 139.859L651.858 140.307C652.008 137.578 653.009 134.466 656.505 134.466C659.233 134.466 660.427 136.321 660.427 138.708C660.427 145.38 651.048 151.54 646.572 154.758V159H667.248V153.714H655.588ZM681.822 159.405C688.472 159.405 692.991 155.504 692.991 149.813C692.991 146.318 690.945 143.952 687.833 142.822C689.836 141.735 691.264 139.774 691.264 137.046C691.264 132.25 687.449 128.882 681.971 128.882C676.131 128.882 671.932 132.612 671.932 137.813L677.559 138.175C677.58 135.788 679.179 134.317 681.779 134.317C684.124 134.317 685.595 135.553 685.595 137.642C685.595 140.221 683.527 141.266 680.351 141.266V145.721C684.87 145.721 687.3 146.829 687.3 149.771C687.3 152.414 685.36 153.97 682.014 153.97C678.539 153.97 676.301 152.094 676.301 149.152L670.653 149.494C670.653 155.44 675.108 159.405 681.822 159.405ZM707.122 159.405C716.501 159.405 717.588 150.346 717.588 143.994C717.588 137.983 716.608 128.797 707.101 128.797C697.552 128.797 696.614 138.026 696.614 143.973C696.614 150.218 697.616 159.405 707.122 159.405ZM707.122 153.97C703.073 153.97 702.412 149.344 702.412 144.165C702.412 138.772 703.073 134.275 707.101 134.275C711.044 134.275 711.79 138.665 711.79 144.165C711.79 149.472 711.044 153.97 707.122 153.97ZM734.725 157.401V148.641H743.486V144.421H734.725V135.66H730.462V144.421H721.702V148.641H730.462V157.401H734.725Z" fill="url(#paint1_linear_1901:655)"/>
<path d="M567.453 197V185.848H565.525V197H567.453ZM576.421 193.704L571.589 185.848H569.597V197H571.525V189.12L576.341 197H578.349V185.848H576.421V193.704ZM586.293 197V192.352H587.981C590.453 192.352 591.773 191.2 591.773 189.064C591.773 186.928 590.469 185.848 587.981 185.848H584.381V197H586.293ZM586.293 187.568H587.789C589.157 187.568 589.853 188 589.853 189.088C589.853 190.208 589.093 190.632 587.789 190.632H586.293V187.568ZM598.594 192.072C599.914 191.64 600.642 190.632 600.642 189.056C600.642 187.096 599.53 185.848 596.85 185.848H593.25V197H595.178V192.328H595.962C596.114 192.328 596.314 192.328 596.538 192.32L599.298 197H601.546L598.594 192.072ZM595.178 187.568H596.658C597.794 187.568 598.722 187.864 598.722 189.08C598.722 190.304 597.81 190.632 596.658 190.632H595.178V187.568ZM604.843 197V185.848H602.915V197H604.843ZM614.763 187.44V185.848H606.667V187.568H612.355L606.291 195.408V197H614.963V195.28H608.691L614.763 187.44ZM623.78 197V195.28H618.3V192.144H623.38V190.424H618.3V187.568H623.78V185.848H616.372V197H623.78ZM629.161 197.2C631.433 197.2 632.977 195.792 632.977 193.824C632.977 192.048 631.793 191.176 629.809 190.432C628.225 189.832 627.561 189.408 627.561 188.6C627.561 187.856 628.201 187.32 629.049 187.32C629.833 187.32 630.465 187.768 630.921 188.576L632.457 187.64C631.761 186.296 630.593 185.608 629.113 185.608C627.025 185.608 625.641 186.872 625.641 188.64C625.641 190.328 626.713 191.24 628.801 192.04C630.257 192.6 631.065 193.016 631.065 193.952C631.065 194.896 630.265 195.488 629.217 195.488C627.905 195.488 627.009 194.768 626.769 193.384L624.897 193.848C625.225 195.88 626.801 197.2 629.161 197.2ZM647.885 197L643.461 185.848H642.005L637.565 197H639.669L640.509 194.72H644.957L645.789 197H647.885ZM642.741 188.68L644.325 193H641.149L642.741 188.68ZM657.6 194.056L655.384 186.488H653.488L651.272 194.056L648.904 185.848H646.888L650.216 197H652.096L654.44 189.304L656.776 197H658.656L661.984 185.848H659.968L657.6 194.056ZM671.31 197L666.886 185.848H665.43L660.99 197H663.094L663.934 194.72H668.382L669.214 197H671.31ZM666.166 188.68L667.75 193H664.574L666.166 188.68ZM677.834 192.072C679.154 191.64 679.882 190.632 679.882 189.056C679.882 187.096 678.77 185.848 676.09 185.848H672.49V197H674.418V192.328H675.202C675.354 192.328 675.554 192.328 675.778 192.32L678.538 197H680.786L677.834 192.072ZM674.418 187.568H675.898C677.034 187.568 677.962 187.864 677.962 189.08C677.962 190.304 677.05 190.632 675.898 190.632H674.418V187.568ZM685.356 197C689.116 197 691.172 195.056 691.172 191.512C691.172 187.896 689.06 185.848 685.372 185.848H682.156V197H685.356ZM684.084 187.616H685.34C687.772 187.616 689.236 188.616 689.236 191.44C689.236 194.32 687.748 195.232 685.164 195.232H684.084V187.616ZM700.261 197V195.28H694.781V192.144H699.861V190.424H694.781V187.568H700.261V185.848H692.853V197H700.261ZM705.218 197C708.978 197 711.034 195.056 711.034 191.512C711.034 187.896 708.922 185.848 705.234 185.848H702.018V197H705.218ZM703.946 187.616H705.202C707.634 187.616 709.098 188.616 709.098 191.44C709.098 194.32 707.61 195.232 705.026 195.232H703.946V187.616ZM613.2 218V206.848H611.272V218H613.2ZM622.167 214.704L617.335 206.848H615.343V218H617.271V210.12L622.087 218H624.095V206.848H622.167V214.704ZM632.863 216.28C635.423 214.432 637.087 212.632 637.087 210.248C637.087 208.152 635.687 206.728 633.607 206.728C631.383 206.728 629.807 208.344 629.807 210.624L631.623 210.768C631.695 209.304 632.375 208.52 633.559 208.52C634.623 208.52 635.247 209.184 635.247 210.312C635.247 212.344 632.791 214.584 629.887 216.464V218H637.527V216.28H632.863ZM642.861 218.144C646.173 218.144 646.677 214.904 646.677 212.376C646.677 209.96 646.205 206.68 642.837 206.68C639.429 206.68 639.021 210.032 639.021 212.368C639.021 214.792 639.461 218.144 642.861 218.144ZM642.861 216.368C641.237 216.368 640.909 214.512 640.909 212.432C640.909 210.28 641.229 208.456 642.837 208.456C644.397 208.456 644.789 210.184 644.789 212.44C644.789 214.616 644.405 216.368 642.861 216.368ZM651.226 216.28C653.786 214.432 655.45 212.632 655.45 210.248C655.45 208.152 654.05 206.728 651.97 206.728C649.746 206.728 648.17 208.344 648.17 210.624L649.986 210.768C650.058 209.304 650.738 208.52 651.922 208.52C652.986 208.52 653.61 209.184 653.61 210.312C653.61 212.344 651.154 214.584 648.25 216.464V218H655.89V216.28H651.226ZM661.231 207.544C661.231 208.328 660.855 208.592 660.135 208.592H658.367V210.136H661.231V218H663.087V206.848H661.231V207.544Z" fill="#E2D6FF"/>
<path d="M599 3L599.876 34.7349C599.882 34.9472 600.053 35.1179 600.265 35.1237L632 36L600.265 36.8763C600.053 36.8821 599.882 37.0528 599.876 37.2651L599 69L598.124 37.2651C598.118 37.0528 597.947 36.8821 597.735 36.8763L566 36L597.735 35.1237C597.947 35.1179 598.118 34.9472 598.124 34.7349L599 3Z" fill="url(#paint2_radial_1901:655)"/>
<rect opacity="0.65" x="1131" y="18" width="205.061" height="205.061" rx="14" transform="rotate(45 1131 18)" fill="#7359CB"/>
<rect x="1131" y="30.3335" width="187.618" height="187.618" rx="12" transform="rotate(45 1131 30.3335)" fill="#403074"/>
<path d="M1073.34 150.431C1073.34 145.742 1070.38 143.291 1064.9 141.223C1060.64 139.625 1059.21 138.516 1059.21 136.726C1059.21 135.042 1060.68 133.827 1062.6 133.827C1064.49 133.827 1066.05 134.978 1067.22 137.024L1071.91 134.168C1070.36 131.099 1067.88 129.287 1064.77 128.754V124.555H1060.53V128.775C1056.1 129.564 1053.28 132.676 1053.28 136.832C1053.28 141.372 1056.01 143.952 1061.83 146.19C1065.67 147.66 1067.48 148.705 1067.48 150.794C1067.48 153.01 1065.54 154.353 1063.07 154.353C1059.83 154.353 1057.61 152.542 1056.99 149.003L1051.24 150.431C1052 155.291 1055.41 158.659 1060.57 159.426V164.009H1064.81V159.469C1070.01 158.766 1073.34 155.206 1073.34 150.431ZM1088.05 138.431C1086.81 138.431 1085.38 138.602 1083.89 139.433L1084.83 134.552H1096.98V129.287H1080.16L1077.24 144.996L1082.53 146.318C1083.38 144.932 1084.87 143.738 1087.28 143.738C1090.88 143.738 1092.27 146.083 1092.27 148.577C1092.27 151.177 1090.8 154.012 1087.19 154.012C1083.76 154.012 1082.14 151.518 1081.93 149.387L1076.37 150.346C1077.07 155.419 1081.55 159.448 1087.28 159.448C1093.74 159.448 1098.28 154.225 1098.28 148.577C1098.28 143.184 1094.14 138.431 1088.05 138.431ZM1105.21 165.267L1110.53 152.264H1104.18L1101.5 165.267H1105.21ZM1123.64 159.405C1133.02 159.405 1134.1 150.346 1134.1 143.994C1134.1 137.983 1133.12 128.797 1123.62 128.797C1114.07 128.797 1113.13 138.026 1113.13 143.973C1113.13 150.218 1114.13 159.405 1123.64 159.405ZM1123.64 153.97C1119.59 153.97 1118.93 149.344 1118.93 144.165C1118.93 138.772 1119.59 134.275 1123.62 134.275C1127.56 134.275 1128.31 138.665 1128.31 144.165C1128.31 149.472 1127.56 153.97 1123.64 153.97ZM1138 134.552H1152.71L1140.33 159H1146.66L1159.47 133.401V129.287H1138V134.552ZM1174.41 138.431C1173.17 138.431 1171.75 138.602 1170.25 139.433L1171.19 134.552H1183.34V129.287H1166.52L1163.6 144.996L1168.89 146.318C1169.74 144.932 1171.23 143.738 1173.64 143.738C1177.25 143.738 1178.63 146.083 1178.63 148.577C1178.63 151.177 1177.16 154.012 1173.56 154.012C1170.13 154.012 1168.51 151.518 1168.29 149.387L1162.73 150.346C1163.43 155.419 1167.91 159.448 1173.64 159.448C1180.1 159.448 1184.64 154.225 1184.64 148.577C1184.64 143.184 1180.51 138.431 1174.41 138.431ZM1201.46 157.401V148.641H1210.22V144.421H1201.46V135.66H1197.2V144.421H1188.44V148.641H1197.2V157.401H1201.46Z" fill="url(#paint3_linear_1901:655)"/>
<path d="M1072.57 195V184.545H1070.76V195H1072.57ZM1080.97 191.91L1076.44 184.545H1074.57V195H1076.38V187.612L1080.9 195H1082.78V184.545H1080.97V191.91ZM1091.44 195C1094.96 195 1096.89 193.177 1096.89 189.855C1096.89 186.465 1094.91 184.545 1091.45 184.545H1088.44V195H1091.44ZM1090.25 186.202H1091.42C1093.7 186.202 1095.08 187.14 1095.08 189.787C1095.08 192.487 1093.68 193.342 1091.26 193.342H1090.25V186.202ZM1102.94 195.225C1105.91 195.225 1107.93 193.057 1107.93 189.78C1107.93 186.487 1105.92 184.32 1102.94 184.32C1099.98 184.32 1097.97 186.495 1097.97 189.78C1097.97 193.042 1099.98 195.225 1102.94 195.225ZM1102.94 193.492C1101.01 193.492 1099.77 192.082 1099.77 189.78C1099.77 187.455 1101.01 186.045 1102.94 186.045C1104.89 186.045 1106.11 187.477 1106.11 189.78C1106.11 192.06 1104.89 193.492 1102.94 193.492ZM1115.89 191.91L1111.36 184.545H1109.49V195H1111.3V187.612L1115.81 195H1117.7V184.545H1115.89V191.91ZM1128.47 195L1124.32 184.545H1122.95L1118.79 195H1120.76L1121.55 192.862H1125.72L1126.5 195H1128.47ZM1123.64 187.2L1125.13 191.25H1122.15L1123.64 187.2ZM1132.35 195V186.157H1135.64V184.545H1127.22V186.157H1130.52V195H1132.35ZM1138.58 195V184.545H1136.78V195H1138.58ZM1145.12 195.225C1148.09 195.225 1150.11 193.057 1150.11 189.78C1150.11 186.487 1148.11 184.32 1145.12 184.32C1142.17 184.32 1140.16 186.495 1140.16 189.78C1140.16 193.042 1142.17 195.225 1145.12 195.225ZM1145.12 193.492C1143.2 193.492 1141.96 192.082 1141.96 189.78C1141.96 187.455 1143.2 186.045 1145.12 186.045C1147.07 186.045 1148.3 187.477 1148.3 189.78C1148.3 192.06 1147.07 193.492 1145.12 193.492ZM1158.08 191.91L1153.55 184.545H1151.68V195H1153.49V187.612L1158 195H1159.88V184.545H1158.08V191.91ZM1165.27 195.188C1167.4 195.188 1168.85 193.867 1168.85 192.022C1168.85 190.357 1167.74 189.54 1165.88 188.842C1164.4 188.28 1163.77 187.882 1163.77 187.125C1163.77 186.427 1164.37 185.925 1165.17 185.925C1165.9 185.925 1166.5 186.345 1166.92 187.102L1168.36 186.225C1167.71 184.965 1166.62 184.32 1165.23 184.32C1163.27 184.32 1161.97 185.505 1161.97 187.162C1161.97 188.745 1162.98 189.6 1164.94 190.35C1166.3 190.875 1167.06 191.265 1167.06 192.142C1167.06 193.027 1166.31 193.582 1165.33 193.582C1164.1 193.582 1163.26 192.907 1163.03 191.61L1161.28 192.045C1161.58 193.95 1163.06 195.188 1165.27 195.188ZM1178.28 195V186.157H1181.58V184.545H1173.16V186.157H1176.46V195H1178.28ZM1186.78 195.225C1189.75 195.225 1191.77 193.057 1191.77 189.78C1191.77 186.487 1189.77 184.32 1186.78 184.32C1183.83 184.32 1181.82 186.495 1181.82 189.78C1181.82 193.042 1183.83 195.225 1186.78 195.225ZM1186.78 193.492C1184.85 193.492 1183.62 192.082 1183.62 189.78C1183.62 187.455 1184.85 186.045 1186.78 186.045C1188.73 186.045 1189.95 187.477 1189.95 189.78C1189.95 192.06 1188.73 193.492 1186.78 193.492ZM1078.01 215.225C1080.2 215.225 1081.87 214.047 1082.57 212.135L1080.87 211.52C1080.41 212.765 1079.39 213.492 1078.01 213.492C1076.08 213.492 1074.84 212.082 1074.84 209.765C1074.84 207.463 1076.08 206.045 1078.01 206.045C1079.39 206.045 1080.41 206.772 1080.87 208.017L1082.57 207.41C1081.87 205.49 1080.2 204.32 1078.01 204.32C1075.05 204.32 1073.04 206.495 1073.04 209.765C1073.04 213.042 1075.05 215.225 1078.01 215.225ZM1085.8 215V210.455H1090.45V215H1092.25V204.545H1090.45V208.797H1085.8V204.545H1083.99V215H1085.8ZM1103.02 215L1098.87 204.545H1097.51L1093.34 215H1095.32L1096.1 212.862H1100.27L1101.05 215H1103.02ZM1098.2 207.2L1099.68 211.25H1096.7L1098.2 207.2ZM1109.13 210.38C1110.37 209.975 1111.05 209.03 1111.05 207.552C1111.05 205.715 1110.01 204.545 1107.49 204.545H1104.12V215H1105.93V210.62H1106.66C1106.8 210.62 1106.99 210.62 1107.2 210.612L1109.79 215H1111.9L1109.13 210.38ZM1105.93 206.157H1107.31C1108.38 206.157 1109.25 206.435 1109.25 207.575C1109.25 208.722 1108.39 209.03 1107.31 209.03H1105.93V206.157ZM1114.98 215V204.545H1113.18V215H1114.98ZM1121.23 215V206.157H1124.52V204.545H1116.11V206.157H1119.41V215H1121.23ZM1130.15 215V210.927L1133.79 204.545H1131.74L1129.21 209.127L1126.73 204.545H1124.67L1128.35 210.927V215H1130.15ZM1140.26 215V204.545H1138.45V215H1140.26ZM1148.66 211.91L1144.13 204.545H1142.27V215H1144.07V207.612L1148.59 215H1150.47V204.545H1148.66V211.91ZM1158.68 213.387C1161.08 211.655 1162.64 209.967 1162.64 207.732C1162.64 205.767 1161.33 204.432 1159.38 204.432C1157.29 204.432 1155.81 205.947 1155.81 208.085L1157.52 208.22C1157.58 206.847 1158.22 206.112 1159.33 206.112C1160.33 206.112 1160.91 206.735 1160.91 207.792C1160.91 209.697 1158.61 211.797 1155.89 213.56V215H1163.05V213.387H1158.68ZM1168.04 215.135C1171.15 215.135 1171.62 212.097 1171.62 209.727C1171.62 207.463 1171.18 204.387 1168.02 204.387C1164.83 204.387 1164.44 207.53 1164.44 209.72C1164.44 211.992 1164.86 215.135 1168.04 215.135ZM1168.04 213.47C1166.52 213.47 1166.21 211.73 1166.21 209.78C1166.21 207.762 1166.51 206.052 1168.02 206.052C1169.48 206.052 1169.85 207.672 1169.85 209.787C1169.85 211.827 1169.49 213.47 1168.04 213.47ZM1175.88 213.387C1178.28 211.655 1179.84 209.967 1179.84 207.732C1179.84 205.767 1178.53 204.432 1176.58 204.432C1174.49 204.432 1173.01 205.947 1173.01 208.085L1174.72 208.22C1174.78 206.847 1175.42 206.112 1176.53 206.112C1177.53 206.112 1178.11 206.735 1178.11 207.792C1178.11 209.697 1175.81 211.797 1173.09 213.56V215H1180.25V213.387H1175.88ZM1185.25 205.197C1185.25 205.932 1184.9 206.18 1184.23 206.18H1182.57V207.627H1185.25V215H1186.99V204.545H1185.25V205.197Z" fill="#E2D6FF"/>
<path d="M1199 62L1199.9 84.7144C1199.91 84.9229 1200.08 85.09 1200.29 85.0982L1223 86L1200.29 86.9018C1200.08 86.91 1199.91 87.0771 1199.9 87.2856L1199 110L1198.1 87.2856C1198.09 87.0771 1197.92 86.91 1197.71 86.9018L1175 86L1197.71 85.0982C1197.92 85.09 1198.09 84.9229 1198.1 84.7144L1199 62Z" fill="#FF9142"/>
<rect opacity="0.65" x="906" y="196" width="168.291" height="168.291" rx="14" transform="rotate(45 906 196)" fill="#7359CB"/>
<rect x="906" y="208.506" width="150.605" height="150.605" rx="12" transform="rotate(45 906 208.506)" fill="#403074"/>
<path d="M868.031 288.155C866.117 288.155 863.906 288.419 861.596 289.706L863.048 282.149H881.858V273.998H855.821L851.3 298.319L859.484 300.365C860.804 298.22 863.114 296.372 866.843 296.372C872.42 296.372 874.565 300.002 874.565 303.863C874.565 307.889 872.288 312.278 866.711 312.278C861.398 312.278 858.89 308.417 858.56 305.117L849.947 306.602C851.036 314.456 857.966 320.693 866.843 320.693C876.842 320.693 883.871 312.608 883.871 303.863C883.871 295.514 877.469 288.155 868.031 288.155ZM905.838 320.627C920.358 320.627 922.041 306.602 922.041 296.768C922.041 287.462 920.523 273.239 905.805 273.239C891.021 273.239 889.569 287.528 889.569 296.735C889.569 306.404 891.12 320.627 905.838 320.627ZM905.838 312.212C899.568 312.212 898.545 305.051 898.545 297.032C898.545 288.683 899.568 281.72 905.805 281.72C911.91 281.72 913.065 288.518 913.065 297.032C913.065 305.249 911.91 312.212 905.838 312.212ZM948.364 317.525V303.962H961.927V297.428H948.364V283.865H941.764V297.428H928.201V303.962H941.764V317.525H948.364Z" fill="url(#paint4_linear_1901:655)"/>
<path d="M872.693 352.018L870.915 345.816H869.004L867.233 352.018L865.259 345.242H863.229L866.176 355H868.052L869.963 348.658L871.867 355H873.743L876.69 345.242H874.667L872.693 352.018ZM881.623 355.231C884.416 355.231 886.341 353.194 886.341 350.128C886.341 347.048 884.444 345.011 881.623 345.011C878.823 345.011 876.912 347.055 876.912 350.128C876.912 353.187 878.823 355.231 881.623 355.231ZM881.623 353.376C879.936 353.376 878.858 352.151 878.858 350.128C878.858 348.091 879.936 346.866 881.623 346.866C883.317 346.866 884.388 348.119 884.388 350.128C884.388 352.123 883.317 353.376 881.623 353.376ZM892.591 350.765C893.69 350.352 894.299 349.456 894.299 348.084C894.299 346.362 893.354 345.242 890.946 345.242H887.656V355H889.595V351.024H890.043H890.61L892.92 355H895.167L892.591 350.765ZM889.595 346.971H890.75C891.59 346.971 892.36 347.132 892.36 348.112C892.36 349.099 891.604 349.295 890.75 349.295H889.595V346.971ZM904.534 355L900.775 349.022L904.506 345.242H901.86L898.122 349.148V345.242H896.183V355H898.122V351.703L899.375 350.436L902.231 355H904.534ZM908.43 355.196C910.495 355.196 911.867 353.943 911.867 352.186C911.867 350.646 910.894 349.841 909.095 349.162C907.695 348.637 907.226 348.273 907.226 347.685C907.226 347.132 907.709 346.733 908.339 346.733C908.962 346.733 909.473 347.111 909.858 347.783L911.398 346.845C910.782 345.627 909.725 345.011 908.395 345.011C906.526 345.011 905.28 346.138 905.28 347.72C905.28 349.211 906.176 350.058 908.087 350.793C909.347 351.276 909.942 351.619 909.942 352.305C909.942 353.033 909.305 353.474 908.493 353.474C907.429 353.474 906.701 352.879 906.498 351.717L904.608 352.186C904.895 354.006 906.316 355.196 908.43 355.196ZM915.094 355V350.863H919.161V355H921.107V345.242H919.161V349.078H915.094V345.242H913.155V355H915.094ZM927.142 355.231C929.935 355.231 931.86 353.194 931.86 350.128C931.86 347.048 929.963 345.011 927.142 345.011C924.342 345.011 922.431 347.055 922.431 350.128C922.431 353.187 924.342 355.231 927.142 355.231ZM927.142 353.376C925.455 353.376 924.377 352.151 924.377 350.128C924.377 348.091 925.455 346.866 927.142 346.866C928.836 346.866 929.907 348.119 929.907 350.128C929.907 352.123 928.836 353.376 927.142 353.376ZM935.094 355V351.01H936.452C938.643 351.01 939.805 349.995 939.805 348.084C939.805 346.187 938.671 345.242 936.452 345.242H933.162V355H935.094ZM935.094 346.971H936.256C937.334 346.971 937.866 347.258 937.866 348.105C937.866 348.987 937.278 349.274 936.256 349.274H935.094V346.971ZM944.11 355.196C946.175 355.196 947.547 353.943 947.547 352.186C947.547 350.646 946.574 349.841 944.775 349.162C943.375 348.637 942.906 348.273 942.906 347.685C942.906 347.132 943.389 346.733 944.019 346.733C944.642 346.733 945.153 347.111 945.538 347.783L947.078 346.845C946.462 345.627 945.405 345.011 944.075 345.011C942.206 345.011 940.96 346.138 940.96 347.72C940.96 349.211 941.856 350.058 943.767 350.793C945.027 351.276 945.622 351.619 945.622 352.305C945.622 353.033 944.985 353.474 944.173 353.474C943.109 353.474 942.381 352.879 942.178 351.717L940.288 352.186C940.575 354.006 941.996 355.196 944.11 355.196ZM872.15 373.231C874.943 373.231 876.868 371.194 876.868 368.128C876.868 365.048 874.971 363.011 872.15 363.011C869.35 363.011 867.439 365.055 867.439 368.128C867.439 371.187 869.35 373.231 872.15 373.231ZM872.15 371.376C870.463 371.376 869.385 370.151 869.385 368.128C869.385 366.091 870.463 364.866 872.15 364.866C873.844 364.866 874.915 366.119 874.915 368.128C874.915 370.123 873.844 371.376 872.15 371.376ZM883.119 368.765C884.218 368.352 884.827 367.456 884.827 366.084C884.827 364.362 883.882 363.242 881.474 363.242H878.184V373H880.123V369.024H880.571H881.138L883.448 373H885.695L883.119 368.765ZM880.123 364.971H881.278C882.118 364.971 882.888 365.132 882.888 366.112C882.888 367.099 882.132 367.295 881.278 367.295H880.123V364.971ZM893.242 369.395C892.934 370.97 891.702 371.376 890.694 371.376C889.007 371.376 887.929 370.144 887.929 368.114C887.929 366.098 889.007 364.866 890.694 364.866C891.912 364.866 892.808 365.517 893.207 366.623L895.041 365.965C894.376 364.131 892.787 363.011 890.694 363.011C887.894 363.011 885.983 365.055 885.983 368.114C885.983 371.187 887.894 373.231 890.568 373.231C891.688 373.231 892.598 372.839 893.172 372.097L893.333 373H895.041V367.659H890.939V369.395H893.242ZM905.083 373L901.121 363.242H899.679L895.71 373H897.824L898.51 371.18H902.29L902.969 373H905.083ZM900.407 366.119L901.646 369.444H899.161L900.407 366.119ZM911.929 369.654L907.974 363.242H905.979V373H907.918V366.56L911.859 373H913.868V363.242H911.929V369.654ZM917.525 373V363.242H915.586V373H917.525ZM926.288 364.838V363.242H919.015V364.971H923.838L918.693 371.418V373H926.477V371.264H921.143L926.288 364.838ZM934.112 373V371.264H929.534V368.856H933.832V367.12H929.534V364.971H934.112V363.242H927.595V373H934.112ZM938.438 373C941.749 373 943.562 371.306 943.562 368.198C943.562 365.034 941.693 363.242 938.452 363.242H935.575V373H938.438ZM937.514 365.02H938.417C940.398 365.02 941.602 365.755 941.602 368.121C941.602 370.557 940.37 371.215 938.242 371.215H937.514V365.02Z" fill="#E2D6FF"/>
<path d="M868 222L868.52 235.096C868.528 235.305 868.695 235.472 868.904 235.48L882 236L868.904 236.52C868.695 236.528 868.528 236.695 868.52 236.904L868 250L867.48 236.904C867.472 236.695 867.305 236.528 867.096 236.52L854 236L867.096 235.48C867.305 235.472 867.472 235.305 867.48 235.096L868 222Z" fill="#78FF96"/>
<rect opacity="0.65" x="377" y="186" width="182.434" height="182.434" rx="14" transform="rotate(45 377 186)" fill="#7359CB"/>
<rect x="377" y="198.579" width="164.645" height="164.645" rx="12" transform="rotate(45 377 198.579)" fill="#403074"/>
<path d="M318.928 311.064C328.432 305.24 334.672 297.272 334.672 288.28C334.672 279.576 328.784 273.912 320.528 273.912C310.416 273.912 304.944 282.328 304.944 290.264L313.328 290.936C313.552 286.84 315.056 282.168 320.304 282.168C324.4 282.168 326.192 284.952 326.192 288.536C326.192 298.552 312.112 307.8 305.392 312.632V319H336.432V311.064H318.928ZM358.378 319.672C367.21 319.672 375.21 315.032 375.21 305.656C375.21 301.08 373.322 297.176 369.226 294.744C371.658 292.92 373.066 290.36 373.066 286.712C373.066 278.648 366.25 273.72 358.41 273.72C350.698 273.72 343.626 278.552 343.626 286.648C343.626 290.328 345.13 292.92 347.53 294.744C343.434 297.176 341.514 301.048 341.514 305.656C341.514 315.032 349.546 319.672 358.378 319.672ZM358.41 292.344C354.698 292.344 352.17 290.392 352.17 287.224C352.17 283.928 354.634 281.88 358.41 281.88C362.282 281.88 364.618 284.024 364.618 287.288C364.618 290.392 362.09 292.344 358.41 292.344ZM358.378 311.576C353.61 311.576 350.058 309.272 350.058 304.824C350.058 300.472 353.514 298.136 358.378 298.136C363.242 298.136 366.698 300.472 366.698 304.824C366.698 309.272 363.178 311.576 358.378 311.576ZM395.915 319.608C409.995 319.608 411.627 306.008 411.627 296.472C411.627 287.448 410.155 273.656 395.883 273.656C381.547 273.656 380.139 287.512 380.139 296.44C380.139 305.816 381.643 319.608 395.915 319.608ZM395.915 311.448C389.835 311.448 388.843 304.504 388.843 296.728C388.843 288.632 389.835 281.88 395.883 281.88C401.803 281.88 402.923 288.472 402.923 296.728C402.923 304.696 401.803 311.448 395.915 311.448ZM437.163 316.6V303.448H450.316V297.112H437.163V283.96H430.764V297.112H417.611V303.448H430.764V316.6H437.163Z" fill="url(#paint5_linear_1901:655)"/>
<path d="M345.082 353V349.01H346.44C348.631 349.01 349.793 347.995 349.793 346.084C349.793 344.187 348.659 343.242 346.44 343.242H343.15V353H345.082ZM345.082 344.971H346.244C347.322 344.971 347.854 345.258 347.854 346.105C347.854 346.987 347.266 347.274 346.244 347.274H345.082V344.971ZM355.888 348.765C356.987 348.352 357.596 347.456 357.596 346.084C357.596 344.362 356.651 343.242 354.243 343.242H350.953V353H352.892V349.024H353.34H353.907L356.217 353H358.464L355.888 348.765ZM352.892 344.971H354.047C354.887 344.971 355.657 345.132 355.657 346.112C355.657 347.099 354.901 347.295 354.047 347.295H352.892V344.971ZM363.464 353.231C366.257 353.231 368.182 351.194 368.182 348.128C368.182 345.048 366.285 343.011 363.464 343.011C360.664 343.011 358.753 345.055 358.753 348.128C358.753 351.187 360.664 353.231 363.464 353.231ZM363.464 351.376C361.777 351.376 360.699 350.151 360.699 348.128C360.699 346.091 361.777 344.866 363.464 344.866C365.158 344.866 366.229 346.119 366.229 348.128C366.229 350.123 365.158 351.376 363.464 351.376ZM372.138 353.231C374.182 353.231 375.484 351.859 375.484 349.633V343.242H369.926V344.971H373.531V349.521C373.531 350.711 373.195 351.432 372.138 351.432C371.228 351.432 370.773 350.935 370.703 349.703L368.785 349.913C368.925 351.999 370.213 353.231 372.138 353.231ZM383.625 353V351.264H379.047V348.856H383.345V347.12H379.047V344.971H383.625V343.242H377.108V353H383.625ZM389.346 353.231C391.439 353.231 393.028 352.111 393.693 350.277L391.859 349.619C391.46 350.725 390.564 351.376 389.346 351.376C387.659 351.376 386.581 350.144 386.581 348.114C386.581 346.098 387.659 344.866 389.346 344.866C390.564 344.866 391.46 345.517 391.859 346.623L393.693 345.965C393.028 344.131 391.439 343.011 389.346 343.011C386.546 343.011 384.635 345.055 384.635 348.114C384.635 351.187 386.546 353.231 389.346 353.231ZM398.922 353V344.971H401.876V343.242H393.987V344.971H396.955V353H398.922ZM405.931 353.196C407.996 353.196 409.368 351.943 409.368 350.186C409.368 348.646 408.395 347.841 406.596 347.162C405.196 346.637 404.727 346.273 404.727 345.685C404.727 345.132 405.21 344.733 405.84 344.733C406.463 344.733 406.974 345.111 407.359 345.783L408.899 344.845C408.283 343.627 407.226 343.011 405.896 343.011C404.027 343.011 402.781 344.138 402.781 345.72C402.781 347.211 403.677 348.058 405.588 348.793C406.848 349.276 407.443 349.619 407.443 350.305C407.443 351.033 406.806 351.474 405.994 351.474C404.93 351.474 404.202 350.879 403.999 349.717L402.109 350.186C402.396 352.006 403.817 353.196 405.931 353.196ZM363.49 371C365.478 371 366.682 369.908 366.682 368.116C366.682 366.947 366.185 366.128 365.135 365.715C365.786 365.309 366.164 364.595 366.164 363.706C366.164 362.173 364.981 361.242 363.014 361.242H359.514V371H363.49ZM361.453 363.02H363.014C363.784 363.02 364.218 363.384 364.218 364.014C364.218 364.7 363.784 365.099 363.07 365.099H361.453V363.02ZM361.453 366.835H363.399C364.26 366.835 364.743 367.262 364.743 368.032C364.743 368.823 364.281 369.215 363.329 369.215H361.453V366.835ZM371.641 371.231C374.133 371.231 375.435 369.964 375.435 367.402V361.242H373.496V367.269C373.496 368.704 373.118 369.446 371.641 369.446C370.157 369.446 369.8 368.718 369.8 367.248V361.242H367.861V367.472C367.861 369.992 369.142 371.231 371.641 371.231ZM378.986 371V361.242H377.047V371H378.986ZM386.747 371V369.264H382.645V361.242H380.706V371H386.747ZM390.288 371V362.971H393.242V361.242H385.353V362.971H388.321V371H390.288Z" fill="#E2D6FF"/>
<path d="M428 376L428.596 391.02C428.605 391.228 428.772 391.395 428.98 391.404L444 392L428.98 392.596C428.772 392.605 428.605 392.772 428.596 392.98L428 408L427.404 392.98C427.395 392.772 427.228 392.605 427.02 392.596L412 392L427.02 391.404C427.228 391.395 427.395 391.228 427.404 391.02L428 376Z" fill="#FAFE36"/>
<rect x="377" y="33.5355" width="65.7107" height="65.7107" rx="9.5" transform="rotate(45 377 33.5355)" stroke="#403074" stroke-width="5"/>
<rect x="899" y="30" width="70.7107" height="70.7107" rx="12" transform="rotate(45 899 30)" fill="#403074"/>
<defs>
<linearGradient id="paint0_linear_1901:655" x1="77" y1="93" x2="197.786" y2="100.349" gradientUnits="userSpaceOnUse">
<stop stop-color="#20FFAF"/>
<stop offset="1" stop-color="#78FF96"/>
</linearGradient>
<linearGradient id="paint1_linear_1901:655" x1="532" y1="116" x2="748.242" y2="153.102" gradientUnits="userSpaceOnUse">
<stop stop-color="#20FFAF"/>
<stop offset="1" stop-color="#78FF96"/>
</linearGradient>
<radialGradient id="paint2_radial_1901:655" cx="0" cy="0" r="1" gradientUnits="userSpaceOnUse" gradientTransform="translate(599 36) rotate(90) scale(33)">
<stop stop-color="white"/>
<stop offset="1" stop-color="white" stop-opacity="0"/>
</radialGradient>
<linearGradient id="paint3_linear_1901:655" x1="1050" y1="116" x2="1216.47" y2="137.724" gradientUnits="userSpaceOnUse">
<stop stop-color="#20FFAF"/>
<stop offset="1" stop-color="#78FF96"/>
</linearGradient>
<linearGradient id="paint4_linear_1901:655" x1="848" y1="254" x2="968.786" y2="261.349" gradientUnits="userSpaceOnUse">
<stop stop-color="#20FFAF"/>
<stop offset="1" stop-color="#78FF96"/>
</linearGradient>
<linearGradient id="paint5_linear_1901:655" x1="302" y1="255" x2="457.731" y2="267.696" gradientUnits="userSpaceOnUse">
<stop stop-color="#20FFAF"/>
<stop offset="1" stop-color="#78FF96"/>
</linearGradient>
</defs>
</svg>
