<svg width="41" height="41" viewBox="0 0 41 41" fill="none" xmlns="http://www.w3.org/2000/svg">
<rect x="0.343384" y="0.443604" width="40" height="40" rx="8" fill="#FF8C73"/>
<path d="M31.6426 14.1849H30.421C30.1029 14.1849 29.2706 14.5186 29.2706 14.8026V25.1175C29.2706 25.4022 30.1029 25.6357 30.421 25.6357H31.6426V27.9258H23.7359V25.6357H25.3177V14.9479H25.0424L21.2363 27.9258H18.2895L14.5326 14.9479H14.2481V25.6356H15.8291V27.9258H9.50412V25.6356H10.3814C10.7257 25.6356 11.0852 25.4022 11.0852 25.1174V14.8026C11.0852 14.5185 10.7258 14.1849 10.3814 14.1849H9.50412V11.8945H17.7011L20.3776 21.0552H20.4496L23.1524 11.8945H31.6426V14.1849Z" fill="white"/>
</svg>
